<?xml version="1.0" encoding="utf-8"?>
<!-- Generator: Adobe Illustrator 23.0.2, SVG Export Plug-In . SVG Version: 6.00 Build 0)  -->
<svg version="1.1" xmlns="http://www.w3.org/2000/svg" xmlns:xlink="http://www.w3.org/1999/xlink" x="0px" y="0px"
	 viewBox="0 0 547.2 201" style="enable-background:new 0 0 547.2 201;" xml:space="preserve">
<style type="text/css">
	.st0{fill:#FFFFFF;}
	.st1{fill:url(#SVGID_1_);}
	.st2{fill:url(#SVGID_2_);}
	.st3{fill:url(#SVGID_3_);}
	.st4{fill:url(#SVGID_4_);}
	.st5{fill:url(#SVGID_5_);}
	.st6{fill:url(#SVGID_6_);}
	.st7{fill:url(#SVGID_7_);}
	.st8{fill:url(#SVGID_8_);}
	.st9{fill:url(#SVGID_9_);}
	.st10{fill:url(#SVGID_10_);}
	.st11{fill:url(#SVGID_11_);}
	.st12{fill:url(#SVGID_12_);}
</style>
<g id="Layer_1">
</g>
<g id="Ebene_1">
	<g>
		<path class="st0" d="M491.4,185.1H56.6c-17.9,0-32.6-14.7-32.6-32.6V48.7c0-17.9,14.7-32.6,32.6-32.6h434.8
			c17.9,0,32.6,14.7,32.6,32.6v103.9C524,170.5,509.3,185.1,491.4,185.1z"/>
		<g>
			<g>
				<linearGradient id="SVGID_1_" gradientUnits="userSpaceOnUse" x1="495.3568" y1="5.3959" x2="90.6805" y2="98.9211">
					<stop  offset="0" style="stop-color:#3E5CAA"/>
					<stop  offset="1" style="stop-color:#00BED2"/>
				</linearGradient>
				<path class="st1" d="M195.1,55.6h2.7v37.7h-2.7V55.6z"/>
				<linearGradient id="SVGID_2_" gradientUnits="userSpaceOnUse" x1="497.4456" y1="14.4341" x2="92.7694" y2="107.9593">
					<stop  offset="0" style="stop-color:#3E5CAA"/>
					<stop  offset="1" style="stop-color:#00BED2"/>
				</linearGradient>
				<path class="st2" d="M218.2,74.5c0-11,8.3-19.1,19.5-19.1c5.3,0,10.1,1.7,13.4,5.2l-1.7,1.8c-3.2-3.2-7.2-4.5-11.6-4.5
					c-9.6,0-16.9,7.1-16.9,16.6c0,9.5,7.3,16.6,16.9,16.6c4.4,0,8.3-1.3,11.6-4.5l1.7,1.8c-3.3,3.5-8.1,5.3-13.4,5.3
					C226.5,93.6,218.2,85.4,218.2,74.5z"/>
				<linearGradient id="SVGID_3_" gradientUnits="userSpaceOnUse" x1="499.7948" y1="24.5989" x2="95.1185" y2="118.124">
					<stop  offset="0" style="stop-color:#3E5CAA"/>
					<stop  offset="1" style="stop-color:#00BED2"/>
				</linearGradient>
				<path class="st3" d="M297,90.8v2.5h-26V55.6h25.2v2.5h-22.4V73h20.1v2.4h-20.1v15.4H297z"/>
				<linearGradient id="SVGID_4_" gradientUnits="userSpaceOnUse" x1="509.9281" y1="68.4448" x2="105.2518" y2="161.97">
					<stop  offset="0" style="stop-color:#3E5CAA"/>
					<stop  offset="1" style="stop-color:#00BED2"/>
				</linearGradient>
				<path class="st4" d="M227.6,147.6c0,6.5-5.2,10.3-15.1,10.3H193v-37.7h18.4c9.4,0,14.3,3.9,14.3,9.8c0,3.8-1.9,6.7-5,8.3
					C224.9,139.6,227.6,142.8,227.6,147.6z M201.7,126.8v8.9h8.7c4.3,0,6.6-1.5,6.6-4.5c0-3-2.3-4.4-6.6-4.4H201.7z M218.8,146.7
					c0-3.2-2.4-4.7-6.9-4.7h-10.2v9.3h10.2C216.4,151.3,218.8,149.9,218.8,146.7z"/>
				<linearGradient id="SVGID_5_" gradientUnits="userSpaceOnUse" x1="512.8223" y1="80.9678" x2="108.146" y2="174.493">
					<stop  offset="0" style="stop-color:#3E5CAA"/>
					<stop  offset="1" style="stop-color:#00BED2"/>
				</linearGradient>
				<path class="st5" d="M268.9,157.8l-7.3-10.5h-0.4h-7.6v10.5h-8.7v-37.7h16.3c10.1,0,16.4,5.2,16.4,13.7c0,5.6-2.9,9.8-7.7,11.9
					l8.4,12.1H268.9z M260.8,127.3h-7.1v13.1h7.1c5.3,0,8-2.5,8-6.6C268.8,129.7,266.1,127.3,260.8,127.3z"/>
				<linearGradient id="SVGID_6_" gradientUnits="userSpaceOnUse" x1="515.2664" y1="91.5431" x2="110.5901" y2="185.0683">
					<stop  offset="0" style="stop-color:#3E5CAA"/>
					<stop  offset="1" style="stop-color:#00BED2"/>
				</linearGradient>
				<path class="st6" d="M324.4,150.9v7h-29.2v-37.7h28.5v7h-19.8v8.2h17.5v6.8h-17.5v8.7H324.4z"/>
				<linearGradient id="SVGID_7_" gradientUnits="userSpaceOnUse" x1="518.1483" y1="104.0131" x2="113.4721" y2="197.5383">
					<stop  offset="0" style="stop-color:#3E5CAA"/>
					<stop  offset="1" style="stop-color:#00BED2"/>
				</linearGradient>
				<path class="st7" d="M366.9,149.8h-17.5l-3.3,8.1h-8.9l16.8-37.7h8.6l16.8,37.7h-9.1L366.9,149.8z M364.2,143.2l-6-14.4l-6,14.4
					H364.2z"/>
				<linearGradient id="SVGID_8_" gradientUnits="userSpaceOnUse" x1="520.4492" y1="113.9688" x2="115.7729" y2="207.494">
					<stop  offset="0" style="stop-color:#3E5CAA"/>
					<stop  offset="1" style="stop-color:#00BED2"/>
				</linearGradient>
				<path class="st8" d="M407.8,143.1l-5.1,5.3v9.5h-8.7v-37.7h8.7v17.6l16.7-17.6h9.7L413.5,137l16.5,20.9h-10.2L407.8,143.1z"/>
				<linearGradient id="SVGID_9_" gradientUnits="userSpaceOnUse" x1="523.114" y1="125.4993" x2="118.4378" y2="219.0244">
					<stop  offset="0" style="stop-color:#3E5CAA"/>
					<stop  offset="1" style="stop-color:#00BED2"/>
				</linearGradient>
				<path class="st9" d="M441,139.3h15.2v6.7H441V139.3z"/>
				<linearGradient id="SVGID_10_" gradientUnits="userSpaceOnUse" x1="524.4482" y1="131.272" x2="119.7719" y2="224.7972">
					<stop  offset="0" style="stop-color:#3E5CAA"/>
					<stop  offset="1" style="stop-color:#00BED2"/>
				</linearGradient>
				<path class="st10" d="M498.2,157.8l-7.3-10.5h-0.4h-7.6v10.5h-8.7v-37.7h16.3c10.1,0,16.4,5.2,16.4,13.7c0,5.6-2.9,9.8-7.7,11.9
					l8.4,12.1H498.2z M490,127.3h-7.1v13.1h7.1c5.3,0,8-2.5,8-6.6C498.1,129.7,495.4,127.3,490,127.3z"/>
			</g>
			<linearGradient id="SVGID_11_" gradientUnits="userSpaceOnUse" x1="17.6649" y1="109.9102" x2="197.0804" y2="109.9102">
				<stop  offset="0" style="stop-color:#3E5CAA"/>
				<stop  offset="1" style="stop-color:#00BED2"/>
			</linearGradient>
			<path class="st11" d="M156.9,51H87.8l69.1,117.7c13.4,0,24.3-10.9,24.3-24.3V75.4C181.2,61.9,170.3,51,156.9,51z"/>
			<linearGradient id="SVGID_12_" gradientUnits="userSpaceOnUse" x1="17.6649" y1="91.324" x2="197.0804" y2="91.324">
				<stop  offset="0" style="stop-color:#3E5CAA"/>
				<stop  offset="1" style="stop-color:#00BED2"/>
			</linearGradient>
			<path class="st12" d="M65.4,32.4c-13.4,0-24.3,10.9-24.3,24.3v69.1c0,13.4,10.9,24.3,24.3,24.3h69.1L65.4,32.4z"/>
		</g>
	</g>
</g>
</svg>
