<?xml version="1.0" encoding="utf-8"?>
<!-- Generator: Adobe Illustrator 22.0.1, SVG Export Plug-In . SVG Version: 6.00 Build 0)  -->
<svg version="1.1" id="Layer_1" xmlns="http://www.w3.org/2000/svg" xmlns:xlink="http://www.w3.org/1999/xlink" x="0px" y="0px"
	 viewBox="0 0 100 100" style="enable-background:new 0 0 100 100;" xml:space="preserve">
<style type="text/css">
	.st0{fill:#DB7758;}
	.st1{fill:#A55038;}
	.st2{fill:#BAB1AE;}
	.st3{fill:#E2DCDE;}
	.st4{fill:#CCC1BD;}
	.st5{fill:#A5A09F;}
	.st6{fill:#3A3144;}
	.st7{fill:#1C1C1C;}
	.st8{fill:#FFFFFF;}
	.st9{fill:#64DD80;}
	.st10{fill:#4FA35D;}
	.st11{fill:#A3805F;}
	.st12{fill:#BD966B;}
	.st13{fill:#997756;}
	.st14{fill:#563A28;}
	.st15{fill:#D3A87D;}
	.st16{fill:#82634A;}
	.st17{fill:#C25DD1;}
	.st18{fill:#924C9E;}
	.st19{fill:#3E2318;}
	.st20{fill:#E2BD81;}
	.st21{fill:#F9E4C0;}
	.st22{fill:#FAD28C;}
	.st23{fill:#D8B47C;}
	.st24{fill:#AF9068;}
	.st25{fill:#C5D859;}
	.st26{fill:#97A045;}
	.st27{fill:#A58362;}
	.st28{fill:#DDB185;}
	.st29{fill:#68564E;}
	.st30{fill:#59D2D8;}
	.st31{fill:#40A0A0;}
	.st32{fill:#F2F2F2;}
	.st33{fill:#757575;}
	.st34{fill:#E5E5E5;}
	.st35{fill:#BFBFBF;}
	.st36{fill:#303030;}
	.st37{fill:#6AD65B;}
	.st38{fill:#58A54A;}
	.st39{fill:#935E2A;}
	.st40{fill:#6D4721;}
	.st41{fill:#9E682A;}
	.st42{fill:#7594C6;}
	.st43{fill:#536C91;}
	.st44{fill:#F1BB71;}
	.st45{fill:#DB9F58;}
	.st46{fill:#B25204;}
	.st47{fill:#FFEECD;}
	.st48{fill:#28231F;}
	.st49{fill:#984815;}
	.st50{fill:#B75E83;}
	.st51{fill:#874865;}
	.st52{fill:#E5B070;}
	.st53{fill:#5B83D3;}
	.st54{fill:#496DA5;}
	.st55{fill:#15161A;}
	.st56{fill:#E8E8E8;}
	.st57{fill:#F8F8F8;}
	.st58{fill:#CECECE;}
	.st59{fill:#7C7C7C;}
	.st60{fill:#914C6B;}
	.st61{fill:#FF991F;}
	.st62{fill:#CC7A1F;}
	.st63{fill:#FFF9EE;}
	.st64{fill:#FCAE59;}
	.st65{fill:#455E83;}
	.st66{fill:#31445B;}
	.st67{fill:#A0A0A0;}
	.st68{fill:#7A7A7A;}
	.st69{fill:#C1C1C1;}
	.st70{fill:#E0E0E0;}
	.st71{fill:#85CCD3;}
	.st72{fill:#6AA2A5;}
	.st73{fill:#B97342;}
	.st74{fill:#F4F6F5;}
	.st75{fill:#FF9CC7;}
	.st76{fill:#D180A6;}
	.st77{fill:#C6C6C6;}
	.st78{fill:#191919;}
	.st79{fill:#895633;}
	.st80{fill:#8DABAD;}
	.st81{fill:#607272;}
	.st82{fill:#797572;}
	.st83{fill:#93918F;}
	.st84{fill:#393333;}
	.st85{fill:#FBFDFA;}
	.st86{fill:#5FAFFF;}
	.st87{fill:#4380AA;}
	.st88{fill:#D87430;}
	.st89{fill:#FCF0DE;}
	.st90{fill:#BC672E;}
	.st91{fill:#F99885;}
	.st92{fill:#3D332C;}
	.st93{fill:#2DFFAC;}
	.st94{fill:#20A56B;}
	.st95{fill:#E8B360;}
	.st96{fill:#FCCF86;}
	.st97{fill:#CE9E51;}
	.st98{fill:#FFC866;}
	.st99{fill:#FCEEE0;}
	.st100{fill:#FCDDB1;}
	.st101{fill:#4BB7A7;}
	.st102{fill:#31776B;}
	.st103{fill:#8E8E8E;}
	.st104{fill:#666666;}
	.st105{fill:#FAFCE8;}
	.st106{fill:#444444;}
	.st107{fill:#232323;}
	.st108{fill:#D3D3D3;}
	.st109{fill:#595959;}
	.st110{fill:#3A3A3A;}
	.st111{fill:#515151;}
	.st112{fill:#353535;}
	.st113{fill:#6D6D6D;}
	.st114{fill:#919191;}
	.st115{fill:#F9F9F9;}
	.st116{fill:#DDDDDD;}
	.st117{fill:#ADADAD;}
	.st118{fill:#CCD875;}
	.st119{fill:#A5AA5F;}
	.st120{fill:#9E9183;}
	.st121{fill:#8C8073;}
	.st122{fill:#B8A996;}
	.st123{fill:#5FB2B2;}
	.st124{fill:#4E8986;}
	.st125{fill:#415168;}
	.st126{fill:#99BDE0;}
	.st127{fill:#C8D4DB;}
	.st128{fill:#5F7693;}
	.st129{fill:#5F8AB4;}
	.st130{fill:#43627C;}
	.st131{fill:#683916;}
	.st132{fill:#AD621E;}
	.st133{fill:#96541D;}
	.st134{fill:#AA6D3C;}
	.st135{fill:#442510;}
	.st136{fill:#E1DAC7;}
	.st137{fill:#B27C50;}
	.st138{fill:#D9B382;}
	.st139{fill:#B2916D;}
	.st140{fill:#7F664E;}
	.st141{fill:#231307;}
	.st142{fill:#474749;}
	.st143{fill:#282828;}
	.st144{fill:#70665D;}
	.st145{fill:#A3978B;}
	.st146{fill:#665E58;}
	.st147{fill:#BCB0A6;}
	.st148{fill:#33302D;}
</style>
<g id="koala">
	<path class="st0" d="M99,50.3c0,16.5-8.1,31.1-20.4,40.2c-8.2-3.2-18.3-0.1-29.2-0.1c-10.9,0-20.1-4.4-29.3,0.1
		C7.7,81.4-0.3,66.8-0.3,50.3C-0.3,22.9,22,0.6,49.4,0.6C76.8,0.6,99,22.9,99,50.3z"/>
	<path class="st1" d="M83.8,30.3c-1.6-0.2-20.2,15.2-21.9,15.2c-24.7,0-26.4-13.1-30.3,10.5L56,94.8c7.8-1.3,17.9-7.5,22.6-4.3
		C91,81.4,99,66.8,99,50.3c0-1.7-0.1-3.4-0.2-5L83.8,30.3z"/>
	<path class="st2" d="M49.4,58C33,58,19.7,70.6,19.7,86.1c0,1.5,0.1,2.9,0.4,4.3c5,3.7,10.8,6.5,17.1,8c3.4-2.1,7.5-3.1,11.7-3.1
		c4.2,0,8.9,0.7,12.8,3.1c6.2-1.6,12-4.4,17.1-8.1c0.2-1.4,0.3-2.8,0.3-4.3C79.1,70.6,65.8,58,49.4,58z"/>
	<path class="st3" d="M49.4,62c-10.2,0-18.5,9.3-18.5,20.8c0,6.2,2.4,11.8,6.3,15.6c3.9,1,8,1.5,12.2,1.5c4.2,0,8.3-0.5,12.3-1.5
		c3.9-3.8,6.3-9.4,6.3-15.6C67.9,71.3,59.6,62,49.4,62z"/>
	<path class="st4" d="M88.7,38.4C86,29.5,77.7,24.3,70.1,26.6c-2.4,0.8-4.5,2.2-6.1,4.1c-3.5-2.2-8.3-3.6-14.7-3.6
		c-6.4,0-11.2,1.3-14.7,3.6c-1.6-1.9-3.6-3.4-6.1-4.1c-7.5-2.3-15.9,2.9-18.6,11.7c-2.7,8.8,1.2,17.9,8.7,20.2
		c2.2,0.7,4.4,0.7,6.6,0.2c2,10.1,12,12.4,24.1,12.4c12.1,0,22.1-2.3,24.1-12.4c2.1,0.5,4.4,0.4,6.5-0.2
		C87.6,56.2,91.5,47.2,88.7,38.4z"/>
	<ellipse transform="matrix(0.2958 -0.9553 0.9553 0.2958 -23.9967 52.6201)" class="st5" cx="23.7" cy="42.6" rx="9" ry="7.7"/>
	<ellipse transform="matrix(0.9553 -0.2958 0.2958 0.9553 -9.2369 24.1077)" class="st5" cx="75.1" cy="42.6" rx="7.7" ry="9"/>
	<path class="st5" d="M54.6,71c1.7-0.1,3.1-1.5,3.1-3.3c0,0,0,0,0,0c0-7.9-3.7-14.2-8.4-14.2c-4.6,0-8.4,6.4-8.4,14.2c0,0,0,0,0,0
		c0,1.7,1.4,3.1,3.1,3.3c1.7,0.1,3.5,0.2,5.3,0.2C51.2,71.2,53,71.1,54.6,71z"/>
	<path class="st3" d="M55.1,60.5c0,3.6-2.6,10.6-5.7,10.6c-3.2,0-5.7-7-5.7-10.6s2.6-6.6,5.7-6.6C52.5,53.9,55.1,56.9,55.1,60.5z"/>
	<path class="st6" d="M56.1,59.5c0,1.6-3,3.3-6.7,3.3c-3.7,0-6.7-1.7-6.7-3.3c0-1.6,3-2.4,6.7-2.4C53.1,57.1,56.1,57.9,56.1,59.5z"
		/>
	<path class="st3" d="M49.4,57.9c0,1.9-1.5,3.5-3.4,3.5c-1.9,0-3.4-1.5-3.4-3.5s1.5-3.5,3.4-3.5C47.8,54.4,49.4,55.9,49.4,57.9z"/>
	<ellipse class="st3" cx="52.8" cy="57.9" rx="3.4" ry="3.5"/>
	<path class="st6" d="M51.2,59.8h-3.7c-1.5,0-2.8-1.3-2.8-2.8v-5.3c0-1.5,0.7-2.8,1.9-3.7v0c1.7-1.3,4-1.3,5.6,0v0
		c1.2,0.9,1.9,2.3,1.9,3.7V57C54.1,58.5,52.8,59.8,51.2,59.8z"/>
	<path class="st3" d="M44.5,45.5c0,2.1-1.7,3.8-3.8,3.8s-3.8-1.7-3.8-3.8c0-2.1,1.7-3.8,3.8-3.8S44.5,43.4,44.5,45.5z"/>
	<path class="st3" d="M61.8,45.5c0,2.1-1.7,3.8-3.8,3.8c-2.1,0-3.8-1.7-3.8-3.8c0-2.1,1.7-3.8,3.8-3.8
		C60.2,41.7,61.8,43.4,61.8,45.5z"/>
	<circle class="st7" cx="40.7" cy="45.5" r="2.1"/>
	<path class="st7" d="M60.1,45.5c0,1.1-0.9,2.1-2.1,2.1c-1.1,0-2.1-0.9-2.1-2.1c0-1.1,0.9-2.1,2.1-2.1
		C59.2,43.4,60.1,44.3,60.1,45.5z"/>
	<circle class="st8" cx="41.4" cy="44.7" r="1.1"/>
	<circle class="st8" cx="58.8" cy="44.7" r="1.1"/>
</g>
</svg>
