<?xml version="1.0" encoding="utf-8"?>
<!-- Generator: Adobe Illustrator 22.0.1, SVG Export Plug-In . SVG Version: 6.00 Build 0)  -->
<svg version="1.1" id="Layer_1" xmlns="http://www.w3.org/2000/svg" xmlns:xlink="http://www.w3.org/1999/xlink" x="0px" y="0px"
	 viewBox="0 0 100 100" style="enable-background:new 0 0 100 100;" xml:space="preserve">
<style type="text/css">
	.st0{fill:#DB7758;}
	.st1{fill:#A55038;}
	.st2{fill:#BAB1AE;}
	.st3{fill:#E2DCDE;}
	.st4{fill:#CCC1BD;}
	.st5{fill:#A5A09F;}
	.st6{fill:#3A3144;}
	.st7{fill:#1C1C1C;}
	.st8{fill:#FFFFFF;}
	.st9{fill:#64DD80;}
	.st10{fill:#4FA35D;}
	.st11{fill:#A3805F;}
	.st12{fill:#BD966B;}
	.st13{fill:#997756;}
	.st14{fill:#563A28;}
	.st15{fill:#D3A87D;}
	.st16{fill:#82634A;}
	.st17{fill:#C25DD1;}
	.st18{fill:#924C9E;}
	.st19{fill:#3E2318;}
	.st20{fill:#E2BD81;}
	.st21{fill:#F9E4C0;}
	.st22{fill:#FAD28C;}
	.st23{fill:#D8B47C;}
	.st24{fill:#AF9068;}
	.st25{fill:#C5D859;}
	.st26{fill:#97A045;}
	.st27{fill:#A58362;}
	.st28{fill:#DDB185;}
	.st29{fill:#68564E;}
	.st30{fill:#59D2D8;}
	.st31{fill:#40A0A0;}
	.st32{fill:#F2F2F2;}
	.st33{fill:#757575;}
	.st34{fill:#E5E5E5;}
	.st35{fill:#BFBFBF;}
	.st36{fill:#303030;}
	.st37{fill:#6AD65B;}
	.st38{fill:#58A54A;}
	.st39{fill:#935E2A;}
	.st40{fill:#6D4721;}
	.st41{fill:#9E682A;}
	.st42{fill:#7594C6;}
	.st43{fill:#536C91;}
	.st44{fill:#F1BB71;}
	.st45{fill:#DB9F58;}
	.st46{fill:#B25204;}
	.st47{fill:#FFEECD;}
	.st48{fill:#28231F;}
	.st49{fill:#984815;}
	.st50{fill:#B75E83;}
	.st51{fill:#874865;}
	.st52{fill:#E5B070;}
	.st53{fill:#5B83D3;}
	.st54{fill:#496DA5;}
	.st55{fill:#15161A;}
	.st56{fill:#E8E8E8;}
	.st57{fill:#F8F8F8;}
	.st58{fill:#CECECE;}
	.st59{fill:#7C7C7C;}
	.st60{fill:#914C6B;}
	.st61{fill:#FF991F;}
	.st62{fill:#CC7A1F;}
	.st63{fill:#FFF9EE;}
	.st64{fill:#FCAE59;}
	.st65{fill:#455E83;}
	.st66{fill:#31445B;}
	.st67{fill:#A0A0A0;}
	.st68{fill:#7A7A7A;}
	.st69{fill:#C1C1C1;}
	.st70{fill:#E0E0E0;}
	.st71{fill:#85CCD3;}
	.st72{fill:#6AA2A5;}
	.st73{fill:#B97342;}
	.st74{fill:#F4F6F5;}
	.st75{fill:#FF9CC7;}
	.st76{fill:#D180A6;}
	.st77{fill:#C6C6C6;}
	.st78{fill:#191919;}
	.st79{fill:#895633;}
	.st80{fill:#8DABAD;}
	.st81{fill:#607272;}
	.st82{fill:#797572;}
	.st83{fill:#93918F;}
	.st84{fill:#393333;}
	.st85{fill:#FBFDFA;}
	.st86{fill:#5FAFFF;}
	.st87{fill:#4380AA;}
	.st88{fill:#D87430;}
	.st89{fill:#FCF0DE;}
	.st90{fill:#BC672E;}
	.st91{fill:#F99885;}
	.st92{fill:#3D332C;}
	.st93{fill:#2DFFAC;}
	.st94{fill:#20A56B;}
	.st95{fill:#E8B360;}
	.st96{fill:#FCCF86;}
	.st97{fill:#CE9E51;}
	.st98{fill:#FFC866;}
	.st99{fill:#FCEEE0;}
	.st100{fill:#FCDDB1;}
	.st101{fill:#4BB7A7;}
	.st102{fill:#31776B;}
	.st103{fill:#8E8E8E;}
	.st104{fill:#666666;}
	.st105{fill:#FAFCE8;}
	.st106{fill:#444444;}
	.st107{fill:#232323;}
	.st108{fill:#D3D3D3;}
	.st109{fill:#595959;}
	.st110{fill:#3A3A3A;}
	.st111{fill:#515151;}
	.st112{fill:#353535;}
	.st113{fill:#6D6D6D;}
	.st114{fill:#919191;}
	.st115{fill:#F9F9F9;}
	.st116{fill:#DDDDDD;}
	.st117{fill:#ADADAD;}
	.st118{fill:#CCD875;}
	.st119{fill:#A5AA5F;}
	.st120{fill:#9E9183;}
	.st121{fill:#8C8073;}
	.st122{fill:#B8A996;}
	.st123{fill:#5FB2B2;}
	.st124{fill:#4E8986;}
	.st125{fill:#415168;}
	.st126{fill:#99BDE0;}
	.st127{fill:#C8D4DB;}
	.st128{fill:#5F7693;}
	.st129{fill:#5F8AB4;}
	.st130{fill:#43627C;}
	.st131{fill:#683916;}
	.st132{fill:#AD621E;}
	.st133{fill:#96541D;}
	.st134{fill:#AA6D3C;}
	.st135{fill:#442510;}
	.st136{fill:#E1DAC7;}
	.st137{fill:#B27C50;}
	.st138{fill:#D9B382;}
	.st139{fill:#B2916D;}
	.st140{fill:#7F664E;}
	.st141{fill:#231307;}
	.st142{fill:#474749;}
	.st143{fill:#282828;}
	.st144{fill:#70665D;}
	.st145{fill:#A3978B;}
	.st146{fill:#665E58;}
	.st147{fill:#BCB0A6;}
	.st148{fill:#33302D;}
</style>
<g id="walrus">
	<path class="st101" d="M99.3,50.2c0,11.9-4.2,22.8-11.2,31.4c-9.1,2.1-23.3,7.6-38.8,7.6c-15.5,0-27.5-9.6-38.2-7.6
		C4.2,73,0,62,0,50.2C0,22.7,22.2,0.5,49.7,0.5C77.1,0.5,99.3,22.7,99.3,50.2z"/>
	<path class="st102" d="M77.2,28.6L54.5,42.3l29,36.3c1.7-1.6,3.1,1.1,4.6,3c6.7-8.2,10.9-18.7,11.1-30.1L77.2,28.6z"/>
	<path class="st103" d="M49.7,16.1c-22.7,0-41,21.8-41,48.7c0,5.9,0.9,11.6,2.5,16.8c9.1,11.2,23,18.3,38.5,18.3
		c15.5,0,29.4-7.1,38.5-18.3c1.6-5.2,2.5-10.9,2.5-16.8C90.7,37.9,72.3,16.1,49.7,16.1z"/>
	<ellipse class="st68" cx="49.7" cy="48.7" rx="26.7" ry="29.9"/>
	<circle class="st104" cx="49.7" cy="41.8" r="23"/>
	<path class="st105" d="M35.4,51.6c-1.8,0-3.2,1.3-3.2,2.9c0,1.1,0,2.1,0,3.2c0,18.2,1.5,33,3.2,33c1.8,0,3.2-14.8,3.2-33
		c0-1.1,0-2.2,0-3.2C38.7,52.9,37.2,51.6,35.4,51.6L35.4,51.6z"/>
	<path class="st105" d="M64.2,51.6c-1.8,0-3.2,1.3-3.2,2.9c0,1.1,0,2.1,0,3.2c0,18.2,1.5,33,3.2,33c1.8,0,3.2-14.8,3.2-33
		c0-1.1,0-2.2,0-3.2C67.4,52.9,66,51.6,64.2,51.6L64.2,51.6z"/>
	<path class="st106" d="M40.7,35c0,2.1-1.7,3.8-3.8,3.8c-2.1,0-3.8-1.7-3.8-3.8c0-2.1,1.7-3.8,3.8-3.8C39,31.2,40.7,32.9,40.7,35z"
		/>
	<path class="st106" d="M66.2,35c0,2.1-1.7,3.8-3.8,3.8c-2.1,0-3.8-1.7-3.8-3.8c0-2.1,1.7-3.8,3.8-3.8C64.5,31.2,66.2,32.9,66.2,35z
		"/>
	<path class="st7" d="M39,35c0,1.1-0.9,2.1-2.1,2.1c-1.1,0-2.1-0.9-2.1-2.1c0-1.1,0.9-2.1,2.1-2.1C38.1,32.9,39,33.8,39,35z"/>
	<path class="st7" d="M64.5,35c0,1.1-0.9,2.1-2.1,2.1c-1.1,0-2.1-0.9-2.1-2.1c0-1.1,0.9-2.1,2.1-2.1C63.6,32.9,64.5,33.8,64.5,35z"
		/>
	<path class="st8" d="M38.7,35c0,0.6-0.5,1.1-1.1,1.1c-0.6,0-1.1-0.5-1.1-1.1c0-0.6,0.5-1.1,1.1-1.1C38.2,33.9,38.7,34.4,38.7,35z"
		/>
	<path class="st8" d="M64.2,35c0,0.6-0.5,1.1-1.1,1.1c-0.6,0-1.1-0.5-1.1-1.1c0-0.6,0.5-1.1,1.1-1.1C63.7,33.9,64.2,34.4,64.2,35z"
		/>
	<path class="st106" d="M65.8,44c-5.8-3.4-12.7-2.8-16.1,1.4c-3.4-4.1-10.3-4.8-16.1-1.4c-6.3,3.7-9.1,10.9-6,16
		c3,5.1,10.6,6.2,16.9,2.5c2.2-1.3,4-3,5.2-4.9c1.2,1.9,3,3.6,5.2,4.9c6.3,3.7,13.9,2.6,16.9-2.5C74.8,54.9,72.1,47.7,65.8,44z"/>
	<path class="st107" d="M48.1,40.7c1.2,1,1.4,2.8,1.1,3.2c-0.3,0.4-1.1-0.9-2.3-1.9c-1.3-1-2.4-1.4-2-1.8
		C45.2,39.9,46.9,39.8,48.1,40.7z"/>
	<path class="st107" d="M51.2,40.7c-1.2,1-1.4,2.8-1.1,3.2c0.3,0.4,1.1-0.9,2.3-1.9c1.3-1,2.4-1.4,2-1.8
		C54.1,39.9,52.5,39.8,51.2,40.7z"/>
	<path class="st103" d="M67.9,51.7c0,0.3-0.3,0.6-0.6,0.6c-0.3,0-0.6-0.3-0.6-0.6c0-0.3,0.3-0.6,0.6-0.6
		C67.6,51.1,67.9,51.4,67.9,51.7z"/>
	<path class="st103" d="M67.9,55.3c0,0.3-0.3,0.6-0.6,0.6c-0.3,0-0.6-0.3-0.6-0.6c0-0.3,0.3-0.6,0.6-0.6
		C67.6,54.7,67.9,54.9,67.9,55.3z"/>
	<path class="st103" d="M64.3,48.2c0,0.3-0.3,0.6-0.6,0.6c-0.3,0-0.6-0.3-0.6-0.6s0.3-0.6,0.6-0.6C64.1,47.6,64.3,47.9,64.3,48.2z"
		/>
	<path class="st103" d="M64.3,51.7c0,0.3-0.3,0.6-0.6,0.6c-0.3,0-0.6-0.3-0.6-0.6c0-0.3,0.3-0.6,0.6-0.6
		C64.1,51.1,64.3,51.4,64.3,51.7z"/>
	<path class="st103" d="M64.3,55.3c0,0.3-0.3,0.6-0.6,0.6c-0.3,0-0.6-0.3-0.6-0.6c0-0.3,0.3-0.6,0.6-0.6
		C64.1,54.7,64.3,54.9,64.3,55.3z"/>
	<path class="st103" d="M64.3,58.8c0,0.3-0.3,0.6-0.6,0.6c-0.3,0-0.6-0.3-0.6-0.6c0-0.3,0.3-0.6,0.6-0.6
		C64.1,58.2,64.3,58.4,64.3,58.8z"/>
	<path class="st103" d="M60.8,44.7c0,0.3-0.3,0.6-0.6,0.6c-0.3,0-0.6-0.3-0.6-0.6c0-0.3,0.3-0.6,0.6-0.6
		C60.5,44.1,60.8,44.4,60.8,44.7z"/>
	<path class="st103" d="M60.8,48.2c0,0.3-0.3,0.6-0.6,0.6c-0.3,0-0.6-0.3-0.6-0.6s0.3-0.6,0.6-0.6C60.5,47.6,60.8,47.9,60.8,48.2z"
		/>
	<path class="st103" d="M60.8,51.7c0,0.3-0.3,0.6-0.6,0.6c-0.3,0-0.6-0.3-0.6-0.6c0-0.3,0.3-0.6,0.6-0.6
		C60.5,51.1,60.8,51.4,60.8,51.7z"/>
	<path class="st103" d="M60.8,55.3c0,0.3-0.3,0.6-0.6,0.6c-0.3,0-0.6-0.3-0.6-0.6c0-0.3,0.3-0.6,0.6-0.6
		C60.5,54.7,60.8,54.9,60.8,55.3z"/>
	<path class="st103" d="M60.8,58.8c0,0.3-0.3,0.6-0.6,0.6c-0.3,0-0.6-0.3-0.6-0.6c0-0.3,0.3-0.6,0.6-0.6
		C60.5,58.2,60.8,58.4,60.8,58.8z"/>
	<path class="st103" d="M57.3,44.7c0,0.3-0.3,0.6-0.6,0.6c-0.3,0-0.6-0.3-0.6-0.6c0-0.3,0.3-0.6,0.6-0.6
		C57,44.1,57.3,44.4,57.3,44.7z"/>
	<circle class="st103" cx="56.7" cy="48.2" r="0.6"/>
	<circle class="st103" cx="56.7" cy="51.7" r="0.6"/>
	<path class="st103" d="M57.3,55.3c0,0.3-0.3,0.6-0.6,0.6c-0.3,0-0.6-0.3-0.6-0.6c0-0.3,0.3-0.6,0.6-0.6
		C57,54.7,57.3,54.9,57.3,55.3z"/>
	<path class="st103" d="M57.3,58.8c0,0.3-0.3,0.6-0.6,0.6c-0.3,0-0.6-0.3-0.6-0.6c0-0.3,0.3-0.6,0.6-0.6
		C57,58.2,57.3,58.4,57.3,58.8z"/>
	<circle class="st103" cx="53.2" cy="48.2" r="0.6"/>
	<circle class="st103" cx="53.2" cy="51.7" r="0.6"/>
	<path class="st103" d="M53.8,55.3c0,0.3-0.3,0.6-0.6,0.6c-0.3,0-0.6-0.3-0.6-0.6c0-0.3,0.3-0.6,0.6-0.6
		C53.5,54.7,53.8,54.9,53.8,55.3z"/>
	<path class="st103" d="M46.7,48.2c0,0.3-0.3,0.6-0.6,0.6c-0.3,0-0.6-0.3-0.6-0.6s0.3-0.6,0.6-0.6C46.5,47.6,46.7,47.9,46.7,48.2z"
		/>
	<path class="st103" d="M46.7,51.7c0,0.3-0.3,0.6-0.6,0.6c-0.3,0-0.6-0.3-0.6-0.6c0-0.3,0.3-0.6,0.6-0.6
		C46.5,51.1,46.7,51.4,46.7,51.7z"/>
	<path class="st103" d="M46.7,55.3c0,0.3-0.3,0.6-0.6,0.6c-0.3,0-0.6-0.3-0.6-0.6c0-0.3,0.3-0.6,0.6-0.6
		C46.5,54.7,46.7,54.9,46.7,55.3z"/>
	<path class="st103" d="M43.2,44.7c0,0.3-0.3,0.6-0.6,0.6c-0.3,0-0.6-0.3-0.6-0.6c0-0.3,0.3-0.6,0.6-0.6
		C43,44.1,43.2,44.4,43.2,44.7z"/>
	<circle class="st103" cx="42.6" cy="48.2" r="0.6"/>
	<circle class="st103" cx="42.6" cy="51.7" r="0.6"/>
	<path class="st103" d="M43.2,55.3c0,0.3-0.3,0.6-0.6,0.6c-0.3,0-0.6-0.3-0.6-0.6c0-0.3,0.3-0.6,0.6-0.6
		C43,54.7,43.2,54.9,43.2,55.3z"/>
	<path class="st103" d="M43.2,58.8c0,0.3-0.3,0.6-0.6,0.6c-0.3,0-0.6-0.3-0.6-0.6c0-0.3,0.3-0.6,0.6-0.6
		C43,58.2,43.2,58.4,43.2,58.8z"/>
	<path class="st103" d="M39.7,44.7c0,0.3-0.3,0.6-0.6,0.6s-0.6-0.3-0.6-0.6c0-0.3,0.3-0.6,0.6-0.6S39.7,44.4,39.7,44.7z"/>
	<circle class="st103" cx="39.1" cy="48.2" r="0.6"/>
	<circle class="st103" cx="39.1" cy="51.7" r="0.6"/>
	<path class="st103" d="M39.7,55.3c0,0.3-0.3,0.6-0.6,0.6s-0.6-0.3-0.6-0.6c0-0.3,0.3-0.6,0.6-0.6S39.7,54.9,39.7,55.3z"/>
	<path class="st103" d="M39.7,58.8c0,0.3-0.3,0.6-0.6,0.6s-0.6-0.3-0.6-0.6c0-0.3,0.3-0.6,0.6-0.6S39.7,58.4,39.7,58.8z"/>
	<path class="st103" d="M36.2,48.2c0,0.3-0.3,0.6-0.6,0.6c-0.3,0-0.6-0.3-0.6-0.6s0.3-0.6,0.6-0.6C35.9,47.6,36.2,47.9,36.2,48.2z"
		/>
	<path class="st103" d="M36.2,51.7c0,0.3-0.3,0.6-0.6,0.6c-0.3,0-0.6-0.3-0.6-0.6c0-0.3,0.3-0.6,0.6-0.6
		C35.9,51.1,36.2,51.4,36.2,51.7z"/>
	<path class="st103" d="M36.2,55.3c0,0.3-0.3,0.6-0.6,0.6c-0.3,0-0.6-0.3-0.6-0.6c0-0.3,0.3-0.6,0.6-0.6
		C35.9,54.7,36.2,54.9,36.2,55.3z"/>
	<path class="st103" d="M36.2,58.8c0,0.3-0.3,0.6-0.6,0.6c-0.3,0-0.6-0.3-0.6-0.6c0-0.3,0.3-0.6,0.6-0.6
		C35.9,58.2,36.2,58.4,36.2,58.8z"/>
	<path class="st103" d="M32.7,51.7c0,0.3-0.3,0.6-0.6,0.6c-0.3,0-0.6-0.3-0.6-0.6c0-0.3,0.3-0.6,0.6-0.6
		C32.4,51.1,32.7,51.4,32.7,51.7z"/>
	<path class="st103" d="M32.7,55.3c0,0.3-0.3,0.6-0.6,0.6c-0.3,0-0.6-0.3-0.6-0.6c0-0.3,0.3-0.6,0.6-0.6
		C32.4,54.7,32.7,54.9,32.7,55.3z"/>
</g>
</svg>
