<?xml version="1.0" encoding="utf-8"?>
<!-- Generator: Adobe Illustrator 22.0.1, SVG Export Plug-In . SVG Version: 6.00 Build 0)  -->
<svg version="1.1" id="Layer_1" xmlns="http://www.w3.org/2000/svg" xmlns:xlink="http://www.w3.org/1999/xlink" x="0px" y="0px"
	 viewBox="0 0 100 100" style="enable-background:new 0 0 100 100;" xml:space="preserve">
<style type="text/css">
	.st0{fill:#DB7758;}
	.st1{fill:#A55038;}
	.st2{fill:#BAB1AE;}
	.st3{fill:#E2DCDE;}
	.st4{fill:#CCC1BD;}
	.st5{fill:#A5A09F;}
	.st6{fill:#3A3144;}
	.st7{fill:#1C1C1C;}
	.st8{fill:#FFFFFF;}
	.st9{fill:#64DD80;}
	.st10{fill:#4FA35D;}
	.st11{fill:#A3805F;}
	.st12{fill:#BD966B;}
	.st13{fill:#997756;}
	.st14{fill:#563A28;}
	.st15{fill:#D3A87D;}
	.st16{fill:#82634A;}
	.st17{fill:#C25DD1;}
	.st18{fill:#924C9E;}
	.st19{fill:#3E2318;}
	.st20{fill:#E2BD81;}
	.st21{fill:#F9E4C0;}
	.st22{fill:#FAD28C;}
	.st23{fill:#D8B47C;}
	.st24{fill:#AF9068;}
	.st25{fill:#C5D859;}
	.st26{fill:#97A045;}
	.st27{fill:#A58362;}
	.st28{fill:#DDB185;}
	.st29{fill:#68564E;}
	.st30{fill:#59D2D8;}
	.st31{fill:#40A0A0;}
	.st32{fill:#F2F2F2;}
	.st33{fill:#757575;}
	.st34{fill:#E5E5E5;}
	.st35{fill:#BFBFBF;}
	.st36{fill:#303030;}
	.st37{fill:#6AD65B;}
	.st38{fill:#58A54A;}
	.st39{fill:#935E2A;}
	.st40{fill:#6D4721;}
	.st41{fill:#9E682A;}
	.st42{fill:#7594C6;}
	.st43{fill:#536C91;}
	.st44{fill:#F1BB71;}
	.st45{fill:#DB9F58;}
	.st46{fill:#B25204;}
	.st47{fill:#FFEECD;}
	.st48{fill:#28231F;}
	.st49{fill:#984815;}
	.st50{fill:#B75E83;}
	.st51{fill:#874865;}
	.st52{fill:#E5B070;}
	.st53{fill:#5B83D3;}
	.st54{fill:#496DA5;}
	.st55{fill:#15161A;}
	.st56{fill:#E8E8E8;}
	.st57{fill:#F8F8F8;}
	.st58{fill:#CECECE;}
	.st59{fill:#7C7C7C;}
	.st60{fill:#914C6B;}
	.st61{fill:#FF991F;}
	.st62{fill:#CC7A1F;}
	.st63{fill:#FFF9EE;}
	.st64{fill:#FCAE59;}
	.st65{fill:#455E83;}
	.st66{fill:#31445B;}
	.st67{fill:#A0A0A0;}
	.st68{fill:#7A7A7A;}
	.st69{fill:#C1C1C1;}
	.st70{fill:#E0E0E0;}
	.st71{fill:#85CCD3;}
	.st72{fill:#6AA2A5;}
	.st73{fill:#B97342;}
	.st74{fill:#F4F6F5;}
	.st75{fill:#FF9CC7;}
	.st76{fill:#D180A6;}
	.st77{fill:#C6C6C6;}
	.st78{fill:#191919;}
	.st79{fill:#895633;}
	.st80{fill:#8DABAD;}
	.st81{fill:#607272;}
	.st82{fill:#797572;}
	.st83{fill:#93918F;}
	.st84{fill:#393333;}
	.st85{fill:#FBFDFA;}
	.st86{fill:#5FAFFF;}
	.st87{fill:#4380AA;}
	.st88{fill:#D87430;}
	.st89{fill:#FCF0DE;}
	.st90{fill:#BC672E;}
	.st91{fill:#F99885;}
	.st92{fill:#3D332C;}
	.st93{fill:#2DFFAC;}
	.st94{fill:#20A56B;}
	.st95{fill:#E8B360;}
	.st96{fill:#FCCF86;}
	.st97{fill:#CE9E51;}
	.st98{fill:#FFC866;}
	.st99{fill:#FCEEE0;}
	.st100{fill:#FCDDB1;}
	.st101{fill:#4BB7A7;}
	.st102{fill:#31776B;}
	.st103{fill:#8E8E8E;}
	.st104{fill:#666666;}
	.st105{fill:#FAFCE8;}
	.st106{fill:#444444;}
	.st107{fill:#232323;}
	.st108{fill:#D3D3D3;}
	.st109{fill:#595959;}
	.st110{fill:#3A3A3A;}
	.st111{fill:#515151;}
	.st112{fill:#353535;}
	.st113{fill:#6D6D6D;}
	.st114{fill:#919191;}
	.st115{fill:#F9F9F9;}
	.st116{fill:#DDDDDD;}
	.st117{fill:#ADADAD;}
	.st118{fill:#CCD875;}
	.st119{fill:#A5AA5F;}
	.st120{fill:#9E9183;}
	.st121{fill:#8C8073;}
	.st122{fill:#B8A996;}
	.st123{fill:#5FB2B2;}
	.st124{fill:#4E8986;}
	.st125{fill:#415168;}
	.st126{fill:#99BDE0;}
	.st127{fill:#C8D4DB;}
	.st128{fill:#5F7693;}
	.st129{fill:#5F8AB4;}
	.st130{fill:#43627C;}
	.st131{fill:#683916;}
	.st132{fill:#AD621E;}
	.st133{fill:#96541D;}
	.st134{fill:#AA6D3C;}
	.st135{fill:#442510;}
	.st136{fill:#E1DAC7;}
	.st137{fill:#B27C50;}
	.st138{fill:#D9B382;}
	.st139{fill:#B2916D;}
	.st140{fill:#7F664E;}
	.st141{fill:#231307;}
	.st142{fill:#474749;}
	.st143{fill:#282828;}
	.st144{fill:#70665D;}
	.st145{fill:#A3978B;}
	.st146{fill:#665E58;}
	.st147{fill:#BCB0A6;}
	.st148{fill:#33302D;}
</style>
<g id="hedgehog">
	<path class="st17" d="M98.9,50.3c0,19.8-11.6,36.9-28.3,44.9c-6.5,3.1-13.7,2.3-21.3,2.3c-7.6,0-14.8,0.7-21.3-2.3
		c-16.8-8-28.4-25.1-28.4-44.9c0-27.4,22.2-49.7,49.7-49.7C76.7,0.6,98.9,22.8,98.9,50.3z"/>
	<path class="st18" d="M98.5,43.7L85,30.1l-1.7,1.4L69.5,17.7l-6.5,8.9L50.5,13.5l-9.6,25.6L21.3,57.5c0,0,42.7,40.8,49.1,37.7
		c16.8-7.9,28.5-25.1,28.5-44.9C98.9,48,98.8,45.8,98.5,43.7z"/>
	<path class="st19" d="M85,84.7l-3.1-8.8C81.6,75,82.1,74,83,73.7l9.9-3.4c1.2-0.4,1.6-2,0.7-2.9l-7.4-7.4c-0.7-0.7-0.7-1.8,0-2.5
		l7.4-7.4c0.9-0.9,0.6-2.4-0.7-2.9L83,44c-0.9-0.3-1.4-1.3-1.1-2.2l3.5-9.8c0.4-1.2-0.6-2.4-1.8-2.3l-10.4,1.2
		c-1,0.1-1.8-0.6-1.9-1.5l-1.1-10.4c-0.1-1.3-1.6-2-2.7-1.3l-8.8,5.6c-0.8,0.5-1.9,0.3-2.4-0.5l-5.5-8.9c-0.7-1.1-2.3-1.1-2.9,0
		l-5.5,8.9c-0.5,0.8-1.6,1.1-2.4,0.5L31,17.6c-1.1-0.7-2.5,0-2.7,1.3l-1.1,10.4c-0.1,1-1,1.6-1.9,1.5L15,29.6
		c-1.3-0.1-2.3,1.1-1.8,2.3l3.5,9.8c0.3,0.9-0.2,1.9-1.1,2.2l-9.9,3.4c-1.2,0.4-1.6,2-0.7,2.9l7.4,7.4c0.7,0.7,0.7,1.8,0,2.5L5,67.4
		c-0.9,0.9-0.6,2.4,0.7,2.9l9.9,3.4c0.9,0.3,1.4,1.3,1.1,2.2l-3.1,8.8c1.1,1.1,2.1,2.1,3.3,3.1l8.5-1c1-0.1,1.8,0.6,1.9,1.5l0.7,6.8
		c1.3,0.6,2.6,1.2,4,1.7c0.9,0.3,7.9-2.4,7.9-2.4c0.8-0.5,1.9-0.3,2.4,0.5h14c0.5-0.8,1.6-1.1,2.4-0.5c0,0,7,2.7,7.9,2.4
		c1.4-0.5,2.7-1.1,4-1.7l0.7-6.8c0.1-1,1-1.6,1.9-1.5l8.5,1C82.9,86.9,84,85.8,85,84.7z"/>
	<path class="st20" d="M49.3,53.5c-5.2,0-9.8,0.6-13.4,7.5c-4.5,8.5-6.8,24-3.9,35.8c5.4,2,11.2,3.1,17.3,3.1s11.9-1.1,17.3-3.1
		C69.4,85,67.1,69.5,62.7,61C59,54.2,54.5,53.5,49.3,53.5z"/>
	<path class="st21" d="M49.3,62.4c-7.1,0-12.9,1.8-12.9,16c0,8.7,2.2,16.4,5.5,21.1c2.4,0.4,4.9,0.5,7.4,0.5s5-0.2,7.4-0.5
		c3.3-4.6,5.5-12.3,5.5-21.1C62.1,64.2,56.4,62.4,49.3,62.4z"/>
	<path class="st22" d="M71.5,55c0,13.5-12.5,23.1-22.3,23.1C39.5,78.1,27,68.5,27,55c0-16.5,15.1-3.9,22.3-3.9
		C56.5,51.1,71.5,39.8,71.5,55z"/>
	<path class="st23" d="M57.6,73.5c0,4.8-3.7,4.5-8.4,4.5c-4.6,0-8.4,0.3-8.4-4.5s3.7-8.7,8.4-8.7C53.9,64.9,57.6,68.8,57.6,73.5z"/>
	<path class="st19" d="M53.6,74.8c0,1.8-1.9,3.2-4.3,3.2c-2.4,0-4.3-1.5-4.3-3.2c0-1.8,1.9-3.2,4.3-3.2C51.6,71.6,53.6,73,53.6,74.8
		z"/>
	<path class="st23" d="M61.5,62.8c0,2.1-1.7,3.8-3.8,3.8s-3.8-1.7-3.8-3.8c0-2.1,1.7-3.8,3.8-3.8S61.5,60.7,61.5,62.8z"/>
	<path class="st7" d="M59.8,62.8c0,1.1-0.9,2.1-2.1,2.1c-1.1,0-2.1-0.9-2.1-2.1c0-1.1,0.9-2.1,2.1-2.1
		C58.8,60.7,59.8,61.7,59.8,62.8z"/>
	<circle class="st8" cx="58.4" cy="62.1" r="1.1"/>
	<path class="st23" d="M44.6,62.8c0,2.1-1.7,3.8-3.8,3.8c-2.1,0-3.8-1.7-3.8-3.8c0-2.1,1.7-3.8,3.8-3.8C42.9,59,44.6,60.7,44.6,62.8
		z"/>
	<circle class="st7" cx="40.8" cy="62.8" r="2.1"/>
	<circle class="st8" cx="41.5" cy="62.1" r="1.1"/>
	<path class="st23" d="M64.1,51.4c-1.5-1.6-1.7-4-0.3-5.8c2.5-3.2,7.6-8.4,10.4-5.9c3.7,3.3,1.3,11.7-1.9,16.5
		c-1,1.5-3.3,1.5-4.3-0.1C66.9,54.4,65.4,52.7,64.1,51.4z"/>
	<path class="st24" d="M70.4,46c-1.7-1.5-4.7,1.6-6.2,3.5c-0.3,0.4-0.5,0.9-0.5,1.4c0.1,0.2,0.3,0.4,0.5,0.6c1.3,1.3,2.8,3,3.8,4.8
		c0.1,0.1,0.1,0.2,0.2,0.3c0.4,0,0.8-0.3,1.1-0.7C71.2,53,72.6,48,70.4,46z"/>
	<path class="st23" d="M34.4,51.4c1.5-1.6,1.7-4,0.3-5.8c-2.5-3.2-7.6-8.4-10.4-5.9c-3.7,3.3-1.3,11.7,1.9,16.5
		c1,1.5,3.3,1.5,4.3-0.1C31.6,54.4,33.1,52.7,34.4,51.4z"/>
	<path class="st24" d="M28.1,46c1.7-1.5,4.7,1.6,6.2,3.5c0.3,0.4,0.5,0.9,0.5,1.4c-0.1,0.2-0.3,0.4-0.5,0.6c-1.3,1.3-2.8,3-3.8,4.8
		c-0.1,0.1-0.1,0.2-0.2,0.3c-0.4,0-0.8-0.3-1.1-0.7C27.3,53,25.9,48,28.1,46z"/>
</g>
</svg>
