<?xml version="1.0" encoding="utf-8"?>
<!-- Generator: Adobe Illustrator 22.0.1, SVG Export Plug-In . SVG Version: 6.00 Build 0)  -->
<svg version="1.1" id="Layer_1" xmlns="http://www.w3.org/2000/svg" xmlns:xlink="http://www.w3.org/1999/xlink" x="0px" y="0px"
	 viewBox="0 0 100 100" style="enable-background:new 0 0 100 100;" xml:space="preserve">
<style type="text/css">
	.st0{fill:#DB7758;}
	.st1{fill:#A55038;}
	.st2{fill:#BAB1AE;}
	.st3{fill:#E2DCDE;}
	.st4{fill:#CCC1BD;}
	.st5{fill:#A5A09F;}
	.st6{fill:#3A3144;}
	.st7{fill:#1C1C1C;}
	.st8{fill:#FFFFFF;}
	.st9{fill:#64DD80;}
	.st10{fill:#4FA35D;}
	.st11{fill:#A3805F;}
	.st12{fill:#BD966B;}
	.st13{fill:#997756;}
	.st14{fill:#563A28;}
	.st15{fill:#D3A87D;}
	.st16{fill:#82634A;}
	.st17{fill:#C25DD1;}
	.st18{fill:#924C9E;}
	.st19{fill:#3E2318;}
	.st20{fill:#E2BD81;}
	.st21{fill:#F9E4C0;}
	.st22{fill:#FAD28C;}
	.st23{fill:#D8B47C;}
	.st24{fill:#AF9068;}
	.st25{fill:#C5D859;}
	.st26{fill:#97A045;}
	.st27{fill:#A58362;}
	.st28{fill:#DDB185;}
	.st29{fill:#68564E;}
	.st30{fill:#59D2D8;}
	.st31{fill:#40A0A0;}
	.st32{fill:#F2F2F2;}
	.st33{fill:#757575;}
	.st34{fill:#E5E5E5;}
	.st35{fill:#BFBFBF;}
	.st36{fill:#303030;}
	.st37{fill:#6AD65B;}
	.st38{fill:#58A54A;}
	.st39{fill:#935E2A;}
	.st40{fill:#6D4721;}
	.st41{fill:#9E682A;}
	.st42{fill:#7594C6;}
	.st43{fill:#536C91;}
	.st44{fill:#F1BB71;}
	.st45{fill:#DB9F58;}
	.st46{fill:#B25204;}
	.st47{fill:#FFEECD;}
	.st48{fill:#28231F;}
	.st49{fill:#984815;}
	.st50{fill:#B75E83;}
	.st51{fill:#874865;}
	.st52{fill:#E5B070;}
	.st53{fill:#5B83D3;}
	.st54{fill:#496DA5;}
	.st55{fill:#15161A;}
	.st56{fill:#E8E8E8;}
	.st57{fill:#F8F8F8;}
	.st58{fill:#CECECE;}
	.st59{fill:#7C7C7C;}
	.st60{fill:#914C6B;}
	.st61{fill:#FF991F;}
	.st62{fill:#CC7A1F;}
	.st63{fill:#FFF9EE;}
	.st64{fill:#FCAE59;}
	.st65{fill:#455E83;}
	.st66{fill:#31445B;}
	.st67{fill:#A0A0A0;}
	.st68{fill:#7A7A7A;}
	.st69{fill:#C1C1C1;}
	.st70{fill:#E0E0E0;}
	.st71{fill:#85CCD3;}
	.st72{fill:#6AA2A5;}
	.st73{fill:#B97342;}
	.st74{fill:#F4F6F5;}
	.st75{fill:#FF9CC7;}
	.st76{fill:#D180A6;}
	.st77{fill:#C6C6C6;}
	.st78{fill:#191919;}
	.st79{fill:#895633;}
	.st80{fill:#8DABAD;}
	.st81{fill:#607272;}
	.st82{fill:#797572;}
	.st83{fill:#93918F;}
	.st84{fill:#393333;}
	.st85{fill:#FBFDFA;}
	.st86{fill:#5FAFFF;}
	.st87{fill:#4380AA;}
	.st88{fill:#D87430;}
	.st89{fill:#FCF0DE;}
	.st90{fill:#BC672E;}
	.st91{fill:#F99885;}
	.st92{fill:#3D332C;}
	.st93{fill:#2DFFAC;}
	.st94{fill:#20A56B;}
	.st95{fill:#E8B360;}
	.st96{fill:#FCCF86;}
	.st97{fill:#CE9E51;}
	.st98{fill:#FFC866;}
	.st99{fill:#FCEEE0;}
	.st100{fill:#FCDDB1;}
	.st101{fill:#4BB7A7;}
	.st102{fill:#31776B;}
	.st103{fill:#8E8E8E;}
	.st104{fill:#666666;}
	.st105{fill:#FAFCE8;}
	.st106{fill:#444444;}
	.st107{fill:#232323;}
	.st108{fill:#D3D3D3;}
	.st109{fill:#595959;}
	.st110{fill:#3A3A3A;}
	.st111{fill:#515151;}
	.st112{fill:#353535;}
	.st113{fill:#6D6D6D;}
	.st114{fill:#919191;}
	.st115{fill:#F9F9F9;}
	.st116{fill:#DDDDDD;}
	.st117{fill:#ADADAD;}
	.st118{fill:#CCD875;}
	.st119{fill:#A5AA5F;}
	.st120{fill:#9E9183;}
	.st121{fill:#8C8073;}
	.st122{fill:#B8A996;}
	.st123{fill:#5FB2B2;}
	.st124{fill:#4E8986;}
	.st125{fill:#415168;}
	.st126{fill:#99BDE0;}
	.st127{fill:#C8D4DB;}
	.st128{fill:#5F7693;}
	.st129{fill:#5F8AB4;}
	.st130{fill:#43627C;}
	.st131{fill:#683916;}
	.st132{fill:#AD621E;}
	.st133{fill:#96541D;}
	.st134{fill:#AA6D3C;}
	.st135{fill:#442510;}
	.st136{fill:#E1DAC7;}
	.st137{fill:#B27C50;}
	.st138{fill:#D9B382;}
	.st139{fill:#B2916D;}
	.st140{fill:#7F664E;}
	.st141{fill:#231307;}
	.st142{fill:#474749;}
	.st143{fill:#282828;}
	.st144{fill:#70665D;}
	.st145{fill:#A3978B;}
	.st146{fill:#665E58;}
	.st147{fill:#BCB0A6;}
	.st148{fill:#33302D;}
</style>
<g id="dolphin">
	<circle class="st123" cx="49.7" cy="49.7" r="49.7"/>
	<path class="st124" d="M99.3,51.4L51.5,3.6l-1.8,13.6l-6.7,25L19.4,80.4l17.3,17.3c4.1,1.1,8.5,1.7,13,1.7
		C76.5,99.3,98.4,78,99.3,51.4z"/>
	<path class="st125" d="M34.5,57.4c-6.1,2.8-19.4,19.5-15,22.9c3.4,2.7,11.2-2.9,16.3-8.4c5.1-5.4,8.9-11.1,8.9-11.1
		S40.6,54.6,34.5,57.4z"/>
	<path class="st125" d="M64.9,57.4c6.1,2.8,19.4,19.5,15,22.9C76.5,83,68.7,77.4,63.5,72c-5.1-5.4-8.9-11.1-8.9-11.1
		S58.8,54.6,64.9,57.4z"/>
	
		<ellipse transform="matrix(0.784 -0.6207 0.6207 0.784 -16.6596 40.3543)" class="st126" cx="49.7" cy="44.1" rx="25.1" ry="25.1"/>
	<path class="st125" d="M26.2,43.2c7.9,0,9.9,3.3,13.6,6.1c2.6,2,5.9-1.2,9.9-1.2c3.9,0,7,3.4,9.5,1.6c3.8-2.8,5.9-6.4,14-6.4
		c0.6,0,1.1,0,1.5-0.1c-0.5-13.4-11.5-24.1-25-24.1c-13.5,0-24.5,10.7-25,24.1C25.1,43.2,25.6,43.2,26.2,43.2z"/>
	<path class="st127" d="M57.2,51.9c0,2.9-3.4,5.2-7.6,5.2c-4.2,0-7.6-2.4-7.6-5.2c0-2.9,3.4-5.2,7.6-5.2
		C53.8,46.6,57.2,49,57.2,51.9z"/>
	<path class="st128" d="M49.7,35.7c-10.5,0-19.7,3-24.7,7.4c0.4,0,0.8,0.1,1.2,0.1c7.9,0,9.9,3.3,13.6,6.1c2.6,2,5.9-1.2,9.9-1.2
		c3.9,0,7,3.4,9.5,1.6c3.8-2.8,5.9-6.4,14-6.4c0.4,0,0.9,0,1.2-0.1C69.4,38.7,60.2,35.7,49.7,35.7z"/>
	<path class="st125" d="M49.6,2.2c-0.9,0-1.6,0.6-1.8,1.4c-0.4,1.4-0.7,3.4-1,5.9c-1.1,10.2-0.3,22.7,2.8,22.7
		c3.1,0,3.9-12.6,2.8-22.7c-0.3-2.5-0.6-4.5-1-5.9C51.3,2.8,50.5,2.2,49.6,2.2C49.7,2.2,49.7,2.2,49.6,2.2
		C49.7,2.2,49.7,2.2,49.6,2.2z"/>
	<path class="st128" d="M36.1,38.4c0,2.1-1.7,3.8-3.8,3.8c-2.1,0-3.8-1.7-3.8-3.8c0-2.1,1.7-3.8,3.8-3.8
		C34.4,34.6,36.1,36.3,36.1,38.4z"/>
	<path class="st128" d="M70.8,38.4c0,2.1-1.7,3.8-3.8,3.8c-2.1,0-3.8-1.7-3.8-3.8c0-2.1,1.7-3.8,3.8-3.8
		C69.1,34.6,70.8,36.3,70.8,38.4z"/>
	<path class="st7" d="M34.4,38.4c0,1.1-0.9,2.1-2.1,2.1c-1.1,0-2.1-0.9-2.1-2.1c0-1.1,0.9-2.1,2.1-2.1
		C33.5,36.3,34.4,37.3,34.4,38.4z"/>
	<circle class="st7" cx="67" cy="38.4" r="2.1"/>
	<path class="st8" d="M34.1,37.7c0,0.6-0.5,1.1-1.1,1.1c-0.6,0-1.1-0.5-1.1-1.1s0.5-1.1,1.1-1.1C33.6,36.6,34.1,37.1,34.1,37.7z"/>
	<path class="st8" d="M68.8,37.7c0,0.6-0.5,1.1-1.1,1.1c-0.6,0-1.1-0.5-1.1-1.1s0.5-1.1,1.1-1.1C68.3,36.6,68.8,37.1,68.8,37.7z"/>
</g>
</svg>
