<?xml version="1.0" encoding="utf-8"?>
<!-- Generator: Adobe Illustrator 22.0.1, SVG Export Plug-In . SVG Version: 6.00 Build 0)  -->
<svg version="1.1" id="Layer_1" xmlns="http://www.w3.org/2000/svg" xmlns:xlink="http://www.w3.org/1999/xlink" x="0px" y="0px"
	 viewBox="0 0 100 100" style="enable-background:new 0 0 100 100;" xml:space="preserve">
<style type="text/css">
	.st0{fill:#DB7758;}
	.st1{fill:#A55038;}
	.st2{fill:#BAB1AE;}
	.st3{fill:#E2DCDE;}
	.st4{fill:#CCC1BD;}
	.st5{fill:#A5A09F;}
	.st6{fill:#3A3144;}
	.st7{fill:#1C1C1C;}
	.st8{fill:#FFFFFF;}
	.st9{fill:#64DD80;}
	.st10{fill:#4FA35D;}
	.st11{fill:#A3805F;}
	.st12{fill:#BD966B;}
	.st13{fill:#997756;}
	.st14{fill:#563A28;}
	.st15{fill:#D3A87D;}
	.st16{fill:#82634A;}
	.st17{fill:#C25DD1;}
	.st18{fill:#924C9E;}
	.st19{fill:#3E2318;}
	.st20{fill:#E2BD81;}
	.st21{fill:#F9E4C0;}
	.st22{fill:#FAD28C;}
	.st23{fill:#D8B47C;}
	.st24{fill:#AF9068;}
	.st25{fill:#C5D859;}
	.st26{fill:#97A045;}
	.st27{fill:#A58362;}
	.st28{fill:#DDB185;}
	.st29{fill:#68564E;}
	.st30{fill:#59D2D8;}
	.st31{fill:#40A0A0;}
	.st32{fill:#F2F2F2;}
	.st33{fill:#757575;}
	.st34{fill:#E5E5E5;}
	.st35{fill:#BFBFBF;}
	.st36{fill:#303030;}
	.st37{fill:#6AD65B;}
	.st38{fill:#58A54A;}
	.st39{fill:#935E2A;}
	.st40{fill:#6D4721;}
	.st41{fill:#9E682A;}
	.st42{fill:#7594C6;}
	.st43{fill:#536C91;}
	.st44{fill:#F1BB71;}
	.st45{fill:#DB9F58;}
	.st46{fill:#B25204;}
	.st47{fill:#FFEECD;}
	.st48{fill:#28231F;}
	.st49{fill:#984815;}
	.st50{fill:#B75E83;}
	.st51{fill:#874865;}
	.st52{fill:#E5B070;}
	.st53{fill:#5B83D3;}
	.st54{fill:#496DA5;}
	.st55{fill:#15161A;}
	.st56{fill:#E8E8E8;}
	.st57{fill:#F8F8F8;}
	.st58{fill:#CECECE;}
	.st59{fill:#7C7C7C;}
	.st60{fill:#914C6B;}
	.st61{fill:#FF991F;}
	.st62{fill:#CC7A1F;}
	.st63{fill:#FFF9EE;}
	.st64{fill:#FCAE59;}
	.st65{fill:#455E83;}
	.st66{fill:#31445B;}
	.st67{fill:#A0A0A0;}
	.st68{fill:#7A7A7A;}
	.st69{fill:#C1C1C1;}
	.st70{fill:#E0E0E0;}
	.st71{fill:#85CCD3;}
	.st72{fill:#6AA2A5;}
	.st73{fill:#B97342;}
	.st74{fill:#F4F6F5;}
	.st75{fill:#FF9CC7;}
	.st76{fill:#D180A6;}
	.st77{fill:#C6C6C6;}
	.st78{fill:#191919;}
	.st79{fill:#895633;}
	.st80{fill:#8DABAD;}
	.st81{fill:#607272;}
	.st82{fill:#797572;}
	.st83{fill:#93918F;}
	.st84{fill:#393333;}
	.st85{fill:#FBFDFA;}
	.st86{fill:#5FAFFF;}
	.st87{fill:#4380AA;}
	.st88{fill:#D87430;}
	.st89{fill:#FCF0DE;}
	.st90{fill:#BC672E;}
	.st91{fill:#F99885;}
	.st92{fill:#3D332C;}
	.st93{fill:#2DFFAC;}
	.st94{fill:#20A56B;}
	.st95{fill:#E8B360;}
	.st96{fill:#FCCF86;}
	.st97{fill:#CE9E51;}
	.st98{fill:#FFC866;}
	.st99{fill:#FCEEE0;}
	.st100{fill:#FCDDB1;}
	.st101{fill:#4BB7A7;}
	.st102{fill:#31776B;}
	.st103{fill:#8E8E8E;}
	.st104{fill:#666666;}
	.st105{fill:#FAFCE8;}
	.st106{fill:#444444;}
	.st107{fill:#232323;}
	.st108{fill:#D3D3D3;}
	.st109{fill:#595959;}
	.st110{fill:#3A3A3A;}
	.st111{fill:#515151;}
	.st112{fill:#353535;}
	.st113{fill:#6D6D6D;}
	.st114{fill:#919191;}
	.st115{fill:#F9F9F9;}
	.st116{fill:#DDDDDD;}
	.st117{fill:#ADADAD;}
	.st118{fill:#CCD875;}
	.st119{fill:#A5AA5F;}
	.st120{fill:#9E9183;}
	.st121{fill:#8C8073;}
	.st122{fill:#B8A996;}
	.st123{fill:#5FB2B2;}
	.st124{fill:#4E8986;}
	.st125{fill:#415168;}
	.st126{fill:#99BDE0;}
	.st127{fill:#C8D4DB;}
	.st128{fill:#5F7693;}
	.st129{fill:#5F8AB4;}
	.st130{fill:#43627C;}
	.st131{fill:#683916;}
	.st132{fill:#AD621E;}
	.st133{fill:#96541D;}
	.st134{fill:#AA6D3C;}
	.st135{fill:#442510;}
	.st136{fill:#E1DAC7;}
	.st137{fill:#B27C50;}
	.st138{fill:#D9B382;}
	.st139{fill:#B2916D;}
	.st140{fill:#7F664E;}
	.st141{fill:#231307;}
	.st142{fill:#474749;}
	.st143{fill:#282828;}
	.st144{fill:#70665D;}
	.st145{fill:#A3978B;}
	.st146{fill:#665E58;}
	.st147{fill:#BCB0A6;}
	.st148{fill:#33302D;}
</style>
<g id="kangaroo">
	<path class="st9" d="M99.9,50.3c0,20.7-12.6,38.4-30.6,45.9c-5.5-2.7-12.1-1.4-18.9-1.4c-6.8,0-13.2-0.1-19.2,1.4
		C13.2,88.7,0.6,71,0.6,50.3c0-27.4,22.2-49.7,49.7-49.7C77.7,0.6,99.9,22.9,99.9,50.3z"/>
	<path class="st10" d="M59.9,38.7L39.7,18.3l-4,42.1l6.1,11.9l13.8,25c4.1-0.6,9.9-2.2,13.8-1.1c18-7.5,30.6-25.2,30.6-45.9
		c0-3.4-0.3-6.7-1-9.9L72.3,13.7L59.9,38.7z"/>
	<path class="st11" d="M52.2,67.6h-3.9c-4.9,0-8.9,4-8.9,8.9v22.3c1.2,0.3,2.4,0.5,3.7,0.7c2.4-1.3,4.7-0.7,7.2-0.7
		c2.4,0,4.7-0.1,7.2,0.7c1.2-0.2,2.5-0.4,3.7-0.7V76.5C61.1,71.6,57.1,67.6,52.2,67.6z"/>
	<path class="st12" d="M70.9,41c-3.8,8.9-10.7,9-15.1,6.7S51,36.5,54.8,27.6c3.8-8.9,12.4-16.8,16.7-14.5
		C75.9,15.3,74.7,32.1,70.9,41z"/>
	<path class="st13" d="M67.2,42c-2.8,6.6-6.9,6.1-9.7,4.7c-2.8-1.4-2.4-6.2,0.4-12.8c2.8-6.6,8.7-12.7,11.5-11.3
		C72.1,24,70,35.4,67.2,42z"/>
	<path class="st12" d="M29.6,41c3.8,8.9,10.7,9,15.1,6.7c4.4-2.2,4.9-11.2,1.1-20.1S33.3,10.8,29,13C24.6,15.3,25.8,32.1,29.6,41z"
		/>
	<path class="st13" d="M33.4,42c2.8,6.6,6.9,6.1,9.7,4.7c2.8-1.4,2.4-6.2-0.4-12.8c-2.8-6.6-8.7-12.7-11.5-11.3
		C28.5,24,30.5,35.4,33.4,42z"/>
	<path class="st12" d="M71.2,63.7c0,13.5-9.4,16.3-21,16.3c-11.6,0-21-2.8-21-16.3S36.6,36,50.3,36S71.2,50.2,71.2,63.7z"/>
	<path class="st14" d="M56.7,77.3c0,2.5-2.9,4.5-6.5,4.5c-3.6,0-6.5-2-6.5-4.5c0-2.5,2.9-4.5,6.5-4.5C53.8,72.8,56.7,74.8,56.7,77.3
		z"/>
	<path class="st15" d="M50.4,77.7c0,1.9-1.9,3.4-4.3,3.4c-2.4,0-4.3-1.5-4.3-3.4c0-1.9,1.9-3.4,4.3-3.4
		C48.5,74.3,50.4,75.8,50.4,77.7z"/>
	<path class="st15" d="M58.7,77.7c0,1.9-1.9,3.4-4.3,3.4c-2.4,0-4.3-1.5-4.3-3.4c0-1.9,1.9-3.4,4.3-3.4
		C56.8,74.3,58.7,75.8,58.7,77.7z"/>
	<path class="st15" d="M50.7,73.9h-0.8c-2.7,0-4.9-2.2-4.9-4.9v-8.6c0-2.7,2.2-4.9,4.9-4.9h0.8c2.7,0,4.9,2.2,4.9,4.9V69
		C55.5,71.7,53.3,73.9,50.7,73.9z"/>
	<path class="st16" d="M56.7,72.1c0,2.5-2.9,4.5-6.5,4.5c-3.6,0-6.5-2-6.5-4.5c0-2.5,2.9-4.5,6.5-4.5C53.8,67.6,56.7,69.6,56.7,72.1
		z"/>
	<path class="st14" d="M50.3,79.9L50.3,79.9c-0.2,0-0.4-0.1-0.4-0.3v-5.7c0-0.2,0.1-0.3,0.3-0.3h0.1c0.2,0,0.3,0.1,0.3,0.3v5.7
		C50.6,79.7,50.5,79.9,50.3,79.9z"/>
	<path class="st13" d="M62.8,54.1c0,2.1-1.7,3.8-3.8,3.8c-2.1,0-3.8-1.7-3.8-3.8c0-2.1,1.7-3.8,3.8-3.8C61.1,50.3,62.8,52,62.8,54.1
		z"/>
	<circle class="st7" cx="59" cy="54.1" r="2.1"/>
	<circle class="st8" cx="59.8" cy="53.4" r="1.1"/>
	<path class="st13" d="M45.3,54.1c0,2.1-1.7,3.8-3.8,3.8c-2.1,0-3.8-1.7-3.8-3.8c0-2.1,1.7-3.8,3.8-3.8C43.6,50.3,45.3,52,45.3,54.1
		z"/>
	<circle class="st7" cx="41.5" cy="54.1" r="2.1"/>
	<path class="st8" d="M43.3,53.4c0,0.6-0.5,1.1-1.1,1.1c-0.6,0-1.1-0.5-1.1-1.1c0-0.6,0.5-1.1,1.1-1.1
		C42.8,52.3,43.3,52.8,43.3,53.4z"/>
	<path class="st14" d="M56.7,72.1c0,2.5-2.9,4.5-6.5,4.5c-3.6,0-6.5-2-6.5-4.5c0-2.5,2.9,1.2,6.5,1.2C53.8,73.3,56.7,69.6,56.7,72.1
		z"/>
	<path class="st11" d="M50.3,100c6.8,0,13.2-1.4,19.1-3.8c-5.3-5.2-11.9-8.2-19.1-8.2c-7.2,0-13.8,3.1-19.1,8.2
		C37,98.6,43.5,100,50.3,100z"/>
	<path class="st15" d="M50.3,100c2.4,0,4.8-0.2,7.2-0.5c-2.2-2-4.6-3.2-7.2-3.2c-2.6,0-5,1.1-7.2,3.2C45.4,99.8,47.8,100,50.3,100z"
		/>
</g>
</svg>
