<?xml version="1.0" encoding="utf-8"?>
<!-- Generator: Adobe Illustrator 22.0.1, SVG Export Plug-In . SVG Version: 6.00 Build 0)  -->
<svg version="1.1" id="Layer_1" xmlns="http://www.w3.org/2000/svg" xmlns:xlink="http://www.w3.org/1999/xlink" x="0px" y="0px"
	 viewBox="0 0 100 100" style="enable-background:new 0 0 100 100;" xml:space="preserve">
<style type="text/css">
	.st0{fill:#DB7758;}
	.st1{fill:#A55038;}
	.st2{fill:#BAB1AE;}
	.st3{fill:#E2DCDE;}
	.st4{fill:#CCC1BD;}
	.st5{fill:#A5A09F;}
	.st6{fill:#3A3144;}
	.st7{fill:#1C1C1C;}
	.st8{fill:#FFFFFF;}
	.st9{fill:#64DD80;}
	.st10{fill:#4FA35D;}
	.st11{fill:#A3805F;}
	.st12{fill:#BD966B;}
	.st13{fill:#997756;}
	.st14{fill:#563A28;}
	.st15{fill:#D3A87D;}
	.st16{fill:#82634A;}
	.st17{fill:#C25DD1;}
	.st18{fill:#924C9E;}
	.st19{fill:#3E2318;}
	.st20{fill:#E2BD81;}
	.st21{fill:#F9E4C0;}
	.st22{fill:#FAD28C;}
	.st23{fill:#D8B47C;}
	.st24{fill:#AF9068;}
	.st25{fill:#C5D859;}
	.st26{fill:#97A045;}
	.st27{fill:#A58362;}
	.st28{fill:#DDB185;}
	.st29{fill:#68564E;}
	.st30{fill:#59D2D8;}
	.st31{fill:#40A0A0;}
	.st32{fill:#F2F2F2;}
	.st33{fill:#757575;}
	.st34{fill:#E5E5E5;}
	.st35{fill:#BFBFBF;}
	.st36{fill:#303030;}
	.st37{fill:#6AD65B;}
	.st38{fill:#58A54A;}
	.st39{fill:#935E2A;}
	.st40{fill:#6D4721;}
	.st41{fill:#9E682A;}
	.st42{fill:#7594C6;}
	.st43{fill:#536C91;}
	.st44{fill:#F1BB71;}
	.st45{fill:#DB9F58;}
	.st46{fill:#B25204;}
	.st47{fill:#FFEECD;}
	.st48{fill:#28231F;}
	.st49{fill:#984815;}
	.st50{fill:#B75E83;}
	.st51{fill:#874865;}
	.st52{fill:#E5B070;}
	.st53{fill:#5B83D3;}
	.st54{fill:#496DA5;}
	.st55{fill:#15161A;}
	.st56{fill:#E8E8E8;}
	.st57{fill:#F8F8F8;}
	.st58{fill:#CECECE;}
	.st59{fill:#7C7C7C;}
	.st60{fill:#914C6B;}
	.st61{fill:#FF991F;}
	.st62{fill:#CC7A1F;}
	.st63{fill:#FFF9EE;}
	.st64{fill:#FCAE59;}
	.st65{fill:#455E83;}
	.st66{fill:#31445B;}
	.st67{fill:#A0A0A0;}
	.st68{fill:#7A7A7A;}
	.st69{fill:#C1C1C1;}
	.st70{fill:#E0E0E0;}
	.st71{fill:#85CCD3;}
	.st72{fill:#6AA2A5;}
	.st73{fill:#B97342;}
	.st74{fill:#F4F6F5;}
	.st75{fill:#FF9CC7;}
	.st76{fill:#D180A6;}
	.st77{fill:#C6C6C6;}
	.st78{fill:#191919;}
	.st79{fill:#895633;}
	.st80{fill:#8DABAD;}
	.st81{fill:#607272;}
	.st82{fill:#797572;}
	.st83{fill:#93918F;}
	.st84{fill:#393333;}
	.st85{fill:#FBFDFA;}
	.st86{fill:#5FAFFF;}
	.st87{fill:#4380AA;}
	.st88{fill:#D87430;}
	.st89{fill:#FCF0DE;}
	.st90{fill:#BC672E;}
	.st91{fill:#F99885;}
	.st92{fill:#3D332C;}
	.st93{fill:#2DFFAC;}
	.st94{fill:#20A56B;}
	.st95{fill:#E8B360;}
	.st96{fill:#FCCF86;}
	.st97{fill:#CE9E51;}
	.st98{fill:#FFC866;}
	.st99{fill:#FCEEE0;}
	.st100{fill:#FCDDB1;}
	.st101{fill:#4BB7A7;}
	.st102{fill:#31776B;}
	.st103{fill:#8E8E8E;}
	.st104{fill:#666666;}
	.st105{fill:#FAFCE8;}
	.st106{fill:#444444;}
	.st107{fill:#232323;}
	.st108{fill:#D3D3D3;}
	.st109{fill:#595959;}
	.st110{fill:#3A3A3A;}
	.st111{fill:#515151;}
	.st112{fill:#353535;}
	.st113{fill:#6D6D6D;}
	.st114{fill:#919191;}
	.st115{fill:#F9F9F9;}
	.st116{fill:#DDDDDD;}
	.st117{fill:#ADADAD;}
	.st118{fill:#CCD875;}
	.st119{fill:#A5AA5F;}
	.st120{fill:#9E9183;}
	.st121{fill:#8C8073;}
	.st122{fill:#B8A996;}
	.st123{fill:#5FB2B2;}
	.st124{fill:#4E8986;}
	.st125{fill:#415168;}
	.st126{fill:#99BDE0;}
	.st127{fill:#C8D4DB;}
	.st128{fill:#5F7693;}
	.st129{fill:#5F8AB4;}
	.st130{fill:#43627C;}
	.st131{fill:#683916;}
	.st132{fill:#AD621E;}
	.st133{fill:#96541D;}
	.st134{fill:#AA6D3C;}
	.st135{fill:#442510;}
	.st136{fill:#E1DAC7;}
	.st137{fill:#B27C50;}
	.st138{fill:#D9B382;}
	.st139{fill:#B2916D;}
	.st140{fill:#7F664E;}
	.st141{fill:#231307;}
	.st142{fill:#474749;}
	.st143{fill:#282828;}
	.st144{fill:#70665D;}
	.st145{fill:#A3978B;}
	.st146{fill:#665E58;}
	.st147{fill:#BCB0A6;}
	.st148{fill:#33302D;}
</style>
<g id="zhiraff">
	<path class="st30" d="M99.3,50.3c0,23.8-16.8,43.8-39.2,48.6c-2.7-2.3-6.9-3.2-10.5-3.2c-3.6,0-7.3,0.8-10.5,3.2
		C16.7,94-0.1,74.1-0.1,50.3c0-27.4,22.2-49.7,49.7-49.7C77,0.6,99.3,22.9,99.3,50.3z"/>
	<path class="st31" d="M46.2,95l5.4,5C78.1,98.8,99.3,77,99.3,50.3c0-2.5-0.2-4.9-0.5-7.3L77.4,21.6l-5.5,6l-15-15l-0.2,13.4l0,0.2
		L43.1,12.8l-2,10.3l2.3,18.8l11.6-6.5l-2.6,14.1L46.2,95z"/>
	<path class="st138" d="M49.6,100c3.6,0,7.1-0.4,10.5-1.1L55.6,47c-0.3-3.4-3-6-6-6h0c-3,0-5.7,2.6-6,6l-4.5,51.9
		C42.5,99.6,46,100,49.6,100z"/>
	<ellipse class="st139" cx="49.6" cy="82.5" rx="7.9" ry="7.8"/>
	<ellipse class="st140" cx="42.4" cy="18.8" rx="3.5" ry="6.2"/>
	<ellipse class="st140" cx="56.8" cy="18.8" rx="3.5" ry="6.2"/>
	<path class="st138" d="M58.5,66.2c9.9-19.5,10.1-23,4.6-30.6c-2.2-3-4.2-8.1-3.5-10.6c1.3-5,0.2-8-2.6-8c-2.3,0-3.8,2-3.5,6.2
		c0.3,3.6-2.5,4.1-3.9,4.1c-1.4,0-4.2-0.5-3.9-4.1c0.3-4.2-1.2-6.2-3.5-6.2c-2.7,0-3.9,2.9-2.6,8c0.7,2.5-1.4,7.7-3.5,10.6
		c-5.5,7.6-5.3,11.1,4.6,30.6c1.6,3.2-2,8.1-2,12.3s8.2,10.1,10.9,10.1l0,0h0c2.7,0,10.9-6,10.9-10.1S56.9,69.5,58.5,66.2z"/>
	<path class="st139" d="M46.2,49.4c-0.3-6-8.1-8.8-12.4-9.9C31,45,32.5,50.2,40.7,66.2c1.4,2.7-1,6.6-1.8,10.3
		c0.1-0.1,0.2-0.3,0.3-0.4C45.2,67.5,46.6,57.6,46.2,49.4z"/>
	<path class="st139" d="M58.5,66.2c8.2-16.1,9.7-21.3,6.9-26.8c-4.3,1.1-12,4-12.4,9.9c-0.5,8.3,0.9,18.2,6.9,26.8
		c0.1,0.2,0.2,0.3,0.3,0.4C59.5,72.9,57.1,69,58.5,66.2z"/>
	<path class="st140" d="M41,46.5c0,2.1-1.7,3.8-3.8,3.8s-3.8-1.7-3.8-3.8c0-2.1,1.7-3.8,3.8-3.8S41,44.4,41,46.5z"/>
	<circle class="st7" cx="37.3" cy="46.5" r="2.1"/>
	<circle class="st8" cx="38" cy="45.8" r="1.1"/>
	<circle class="st140" cx="62" cy="46.5" r="3.8"/>
	<circle class="st7" cx="62" cy="46.5" r="2.1"/>
	<path class="st8" d="M63.7,45.8c0,0.6-0.5,1.1-1.1,1.1c-0.6,0-1.1-0.5-1.1-1.1c0-0.6,0.5-1.1,1.1-1.1
		C63.3,44.7,63.7,45.2,63.7,45.8z"/>
	<path class="st141" d="M46.3,74c1.2,1,1.5,2.7,1.5,2.7s-1.8,0.2-3-0.8c-1.2-1-1.5-2.7-1.5-2.7S45.1,73.1,46.3,74z"/>
	<path class="st141" d="M52.9,74c-1.2,1-1.5,2.7-1.5,2.7s1.8,0.2,3-0.8c1.2-1,1.5-2.7,1.5-2.7S54.1,73.1,52.9,74z"/>
	<path class="st138" d="M62.2,30.4c0.2-0.8,1.9-9.1,14.2-9.2c0.7,0,1.3,0.5,1.4,1.1c0.4,2.6,1,9.1-3.2,11.6c-5.4,3.2-14.2,3.8-13-1
		C62,31.6,62,31.2,62.2,30.4z"/>
	<path class="st140" d="M63.2,31.4c0.1-0.6,1.3-6.3,9.8-6.3c0.5,0,0.9,0.3,0.9,0.8c0.3,1.8,0.7,6.3-2.3,8c-3.7,2.2-9.8,2.7-8.9-0.7
		C63.1,32.2,63.1,31.9,63.2,31.4z"/>
	<path class="st138" d="M37,30.4c-0.2-0.8-1.9-9.1-14.2-9.2c-0.7,0-1.3,0.5-1.4,1.1c-0.4,2.6-1,9.1,3.2,11.6c5.4,3.2,14.2,3.8,13-1
		C37.2,31.6,37.2,31.2,37,30.4z"/>
	<path class="st140" d="M36,31.4c-0.1-0.6-1.3-6.3-9.8-6.3c-0.5,0-0.9,0.3-0.9,0.8c-0.3,1.8-0.7,6.3,2.3,8c3.7,2.2,9.8,2.7,8.9-0.7
		C36.2,32.2,36.2,31.9,36,31.4z"/>
	<path class="st140" d="M40.3,94c-0.3,0.4-0.6,0.9-0.9,1.3l-0.3,3.5c2.6,0.6,5.2,0.9,7.9,1c-0.4-1.7-1.9-4.2-3.4-6
		C42.8,92.8,41.1,92.9,40.3,94z"/>
	<path class="st140" d="M59.5,91.6c-0.4,0-0.9,0.1-1.5,0.4l-3.3,1.8c-0.5,0.3-0.9,0.8-1,1.4c-0.4,1.9-0.9,3.5,0.3,4.6
		c2.1-0.2,4.2-0.5,6.2-0.9L59.5,91.6z"/>
</g>
</svg>
