<?xml version="1.0" encoding="utf-8"?>
<!-- Generator: Adobe Illustrator 22.0.1, SVG Export Plug-In . SVG Version: 6.00 Build 0)  -->
<svg version="1.1" id="Layer_1" xmlns="http://www.w3.org/2000/svg" xmlns:xlink="http://www.w3.org/1999/xlink" x="0px" y="0px"
	 viewBox="0 0 100 100" style="enable-background:new 0 0 100 100;" xml:space="preserve">
<style type="text/css">
	.st0{fill:#DB7758;}
	.st1{fill:#A55038;}
	.st2{fill:#BAB1AE;}
	.st3{fill:#E2DCDE;}
	.st4{fill:#CCC1BD;}
	.st5{fill:#A5A09F;}
	.st6{fill:#3A3144;}
	.st7{fill:#1C1C1C;}
	.st8{fill:#FFFFFF;}
	.st9{fill:#64DD80;}
	.st10{fill:#4FA35D;}
	.st11{fill:#A3805F;}
	.st12{fill:#BD966B;}
	.st13{fill:#997756;}
	.st14{fill:#563A28;}
	.st15{fill:#D3A87D;}
	.st16{fill:#82634A;}
	.st17{fill:#C25DD1;}
	.st18{fill:#924C9E;}
	.st19{fill:#3E2318;}
	.st20{fill:#E2BD81;}
	.st21{fill:#F9E4C0;}
	.st22{fill:#FAD28C;}
	.st23{fill:#D8B47C;}
	.st24{fill:#AF9068;}
	.st25{fill:#C5D859;}
	.st26{fill:#97A045;}
	.st27{fill:#A58362;}
	.st28{fill:#DDB185;}
	.st29{fill:#68564E;}
	.st30{fill:#59D2D8;}
	.st31{fill:#40A0A0;}
	.st32{fill:#F2F2F2;}
	.st33{fill:#757575;}
	.st34{fill:#E5E5E5;}
	.st35{fill:#BFBFBF;}
	.st36{fill:#303030;}
	.st37{fill:#6AD65B;}
	.st38{fill:#58A54A;}
	.st39{fill:#935E2A;}
	.st40{fill:#6D4721;}
	.st41{fill:#9E682A;}
	.st42{fill:#7594C6;}
	.st43{fill:#536C91;}
	.st44{fill:#F1BB71;}
	.st45{fill:#DB9F58;}
	.st46{fill:#B25204;}
	.st47{fill:#FFEECD;}
	.st48{fill:#28231F;}
	.st49{fill:#984815;}
	.st50{fill:#B75E83;}
	.st51{fill:#874865;}
	.st52{fill:#E5B070;}
	.st53{fill:#5B83D3;}
	.st54{fill:#496DA5;}
	.st55{fill:#15161A;}
	.st56{fill:#E8E8E8;}
	.st57{fill:#F8F8F8;}
	.st58{fill:#CECECE;}
	.st59{fill:#7C7C7C;}
	.st60{fill:#914C6B;}
	.st61{fill:#FF991F;}
	.st62{fill:#CC7A1F;}
	.st63{fill:#FFF9EE;}
	.st64{fill:#FCAE59;}
	.st65{fill:#455E83;}
	.st66{fill:#31445B;}
	.st67{fill:#A0A0A0;}
	.st68{fill:#7A7A7A;}
	.st69{fill:#C1C1C1;}
	.st70{fill:#E0E0E0;}
	.st71{fill:#85CCD3;}
	.st72{fill:#6AA2A5;}
	.st73{fill:#B97342;}
	.st74{fill:#F4F6F5;}
	.st75{fill:#FF9CC7;}
	.st76{fill:#D180A6;}
	.st77{fill:#C6C6C6;}
	.st78{fill:#191919;}
	.st79{fill:#895633;}
	.st80{fill:#8DABAD;}
	.st81{fill:#607272;}
	.st82{fill:#797572;}
	.st83{fill:#93918F;}
	.st84{fill:#393333;}
	.st85{fill:#FBFDFA;}
	.st86{fill:#5FAFFF;}
	.st87{fill:#4380AA;}
	.st88{fill:#D87430;}
	.st89{fill:#FCF0DE;}
	.st90{fill:#BC672E;}
	.st91{fill:#F99885;}
	.st92{fill:#3D332C;}
	.st93{fill:#2DFFAC;}
	.st94{fill:#20A56B;}
	.st95{fill:#E8B360;}
	.st96{fill:#FCCF86;}
	.st97{fill:#CE9E51;}
	.st98{fill:#FFC866;}
	.st99{fill:#FCEEE0;}
	.st100{fill:#FCDDB1;}
	.st101{fill:#4BB7A7;}
	.st102{fill:#31776B;}
	.st103{fill:#8E8E8E;}
	.st104{fill:#666666;}
	.st105{fill:#FAFCE8;}
	.st106{fill:#444444;}
	.st107{fill:#232323;}
	.st108{fill:#D3D3D3;}
	.st109{fill:#595959;}
	.st110{fill:#3A3A3A;}
	.st111{fill:#515151;}
	.st112{fill:#353535;}
	.st113{fill:#6D6D6D;}
	.st114{fill:#919191;}
	.st115{fill:#F9F9F9;}
	.st116{fill:#DDDDDD;}
	.st117{fill:#ADADAD;}
	.st118{fill:#CCD875;}
	.st119{fill:#A5AA5F;}
	.st120{fill:#9E9183;}
	.st121{fill:#8C8073;}
	.st122{fill:#B8A996;}
	.st123{fill:#5FB2B2;}
	.st124{fill:#4E8986;}
	.st125{fill:#415168;}
	.st126{fill:#99BDE0;}
	.st127{fill:#C8D4DB;}
	.st128{fill:#5F7693;}
	.st129{fill:#5F8AB4;}
	.st130{fill:#43627C;}
	.st131{fill:#683916;}
	.st132{fill:#AD621E;}
	.st133{fill:#96541D;}
	.st134{fill:#AA6D3C;}
	.st135{fill:#442510;}
	.st136{fill:#E1DAC7;}
	.st137{fill:#B27C50;}
	.st138{fill:#D9B382;}
	.st139{fill:#B2916D;}
	.st140{fill:#7F664E;}
	.st141{fill:#231307;}
	.st142{fill:#474749;}
	.st143{fill:#282828;}
	.st144{fill:#70665D;}
	.st145{fill:#A3978B;}
	.st146{fill:#665E58;}
	.st147{fill:#BCB0A6;}
	.st148{fill:#33302D;}
</style>
<g id="elephant">
	<path class="st118" d="M100,49.7c0,14.1-5.8,26.8-15.2,35.8C75,85.2,64.6,92,51.2,92c-13.4,0-24.7-9.2-35.2-6.5
		c-9.4-9-15.3-21.7-15.3-35.8C0.7,22.2,23,0,50.4,0C77.8,0,100,22.2,100,49.7z"/>
	<path class="st119" d="M57.9,98.8C81.8,95.1,100,74.5,100,49.7c0-2.5-0.2-4.9-0.5-7.2l-6.7-6.7L35.3,46.6L57.9,98.8z"/>
	<path class="st120" d="M50.4,99.3c13.4,0,25.5-5.3,34.4-13.9c-4.2-18.2-18-31.6-34.4-31.6C34,53.8,20.1,67.2,16,85.5
		C24.9,94,37,99.3,50.4,99.3z"/>
	<path class="st121" d="M50.4,99.3c6,0,11.7-1,16.9-3c-2.4-17.5-9.1-30-16.9-30c-7.8,0-14.5,12.5-16.9,30
		C38.7,98.3,44.4,99.3,50.4,99.3z"/>
	<path class="st122" d="M35.3,30c0,0-8.6-5.6-20.5,0.7C8.3,34,5.7,38.1,4.6,41.1c-0.8,2.2,0,4.7,1.9,6.1l16,11.5
		c3,2.1,7.1,0.7,8.2-2.7l4.6-14.7V30z"/>
	<path class="st121" d="M16.5,32.9c9.6-2.8,16.1,0.4,18.8,2.2V30c0,0-8.6-5.6-20.5,0.7c-6.3,3.3-8.9,7.1-10.1,10.1
		C6.5,38.1,9.8,34.9,16.5,32.9z"/>
	<path class="st121" d="M28.2,59c1.2-0.6,2.1-1.7,2.6-3.1l1.2-3.7L28.2,59z"/>
	<path class="st122" d="M65.4,30c0,0,8.6-5.6,20.5,0.7c6.5,3.4,9.1,7.4,10.2,10.4c0.8,2.2,0,4.7-1.9,6.1l-16,11.5
		c-3,2.1-7.1,0.7-8.2-2.7l-4.6-14.7V30z"/>
	<path class="st121" d="M84.2,32.9c-9.6-2.8-16.1,0.4-18.8,2.2V30c0,0,8.6-5.6,20.5,0.7c6.3,3.3,8.9,7.1,10.1,10.1
		C94.3,38.1,90.9,34.9,84.2,32.9z"/>
	<path class="st121" d="M72.6,59c-1.2-0.6-2.1-1.7-2.6-3.1l-1.2-3.7L72.6,59z"/>
	<path class="st122" d="M50.4,64.4L50.4,64.4c-5.1,0-10.5-2.4-12.5-6.3L33.8,50C28,38.9,33.3,21.8,50.4,21.8h0
		C67.5,21.8,72.7,38.9,67,50l-4.2,8.1C60.8,62.1,55.5,64.4,50.4,64.4z"/>
	<path class="st122" d="M57.5,49c-0.4,7-1.2,18.6-1.3,20.8c-0.3,6.2,6.6,6.6,6.7,4.3c0.2-4.6,5.8-5,7.5-1.4c1,2-0.1,5-1.2,6.7
		c-2.4,3.8-7.1,5.1-11.4,4.9C41.5,83.6,44.5,60.2,43.8,49C43.2,39.6,58.1,39.5,57.5,49z"/>
	<path class="st3" d="M41.5,41.9c0,1.7-1.4,3.1-3.1,3.1c-1.7,0-3.1-1.4-3.1-3.1c0-1.7,1.4-3.1,3.1-3.1
		C40.2,38.8,41.5,40.2,41.5,41.9z"/>
	<path class="st3" d="M65.4,41.9c0,1.7-1.4,3.1-3.1,3.1c-1.7,0-3.1-1.4-3.1-3.1c0-1.7,1.4-3.1,3.1-3.1C64,38.8,65.4,40.2,65.4,41.9z
		"/>
	<circle class="st7" cx="38.5" cy="41.9" r="1.7"/>
	<path class="st7" d="M64,41.9c0,0.9-0.8,1.7-1.7,1.7c-0.9,0-1.7-0.8-1.7-1.7c0-0.9,0.8-1.7,1.7-1.7C63.2,40.2,64,41,64,41.9z"/>
	<path class="st8" d="M39.9,41.3c0,0.5-0.4,0.9-0.9,0.9c-0.5,0-0.9-0.4-0.9-0.9c0-0.5,0.4-0.9,0.9-0.9
		C39.5,40.5,39.9,40.9,39.9,41.3z"/>
	<path class="st8" d="M63.8,41.3c0,0.5-0.4,0.9-0.9,0.9c-0.5,0-0.9-0.4-0.9-0.9c0-0.5,0.4-0.9,0.9-0.9
		C63.4,40.5,63.8,40.9,63.8,41.3z"/>
	<path class="st105" d="M42.2,59.4c-1.1,0-1.9,0.4-1.9,0.9c0,0.3,0,0.7,0,1c0,5.7,0.9,10.4,1.9,10.4c1.1,0,1.9-4.7,1.9-10.4
		c0-0.3,0-0.7,0-1C44.1,59.8,43.3,59.4,42.2,59.4L42.2,59.4z"/>
	<path class="st105" d="M58.5,59.4c-1.1,0-1.9,0.4-1.9,0.9c0,0.3,0,0.7,0,1c0,5.7,0.9,10.4,1.9,10.4s1.9-4.7,1.9-10.4
		c0-0.3,0-0.7,0-1C60.5,59.8,59.6,59.4,58.5,59.4L58.5,59.4z"/>
	<path class="st121" d="M31.7,43c0.3,2.4,1,4.8,2.1,7l4.2,8.1c0.5,0.9,1.2,1.8,2,2.6C40.4,53.9,37.7,46.8,31.7,43z"/>
	<path class="st121" d="M62.8,58.1L67,50c1.1-2.2,1.8-4.6,2.1-7c-6.1,3.8-8.8,10.9-8.3,17.7C61.7,60,62.4,59.1,62.8,58.1z"/>
	<path class="st121" d="M55.2,51.3c0,0.6-2,1.1-4.5,1.1c-2.4,0-4.4-0.5-4.5-1.1c0-0.6,2-1.1,4.5-1.1S55.3,50.7,55.2,51.3z"/>
	<path class="st121" d="M54.8,56.7c0,0.5-1.9,0.9-4.1,0.9s-4-0.4-4.1-0.9c0-0.5,1.8-0.9,4.1-0.9S54.9,56.2,54.8,56.7z"/>
	<path class="st121" d="M54.5,61.2c0,0.4-1.7,0.8-3.7,0.8s-3.7-0.3-3.7-0.8c0-0.4,1.6-0.8,3.7-0.8C52.9,60.4,54.5,60.8,54.5,61.2z"
		/>
	<path class="st121" d="M54.2,65.1c0,0.4-1.6,0.7-3.4,0.7c-1.9,0-3.4-0.3-3.4-0.7c0-0.4,1.5-0.7,3.4-0.7
		C52.7,64.4,54.2,64.7,54.2,65.1z"/>
	<path class="st121" d="M54,68.3c0,0.3-1.5,0.6-3.2,0.6s-3.2-0.3-3.2-0.6c0-0.3,1.4-0.6,3.2-0.6S54,68,54,68.3z"/>
	<path class="st121" d="M53.8,71.2c0,0.3-1.4,0.5-3,0.5c-1.6,0-3-0.2-3-0.5c0-0.3,1.3-0.5,3-0.5C52.4,70.7,53.8,70.9,53.8,71.2z"/>
</g>
</svg>
