<?xml version="1.0" encoding="utf-8"?>
<!-- Generator: Adobe Illustrator 22.0.1, SVG Export Plug-In . SVG Version: 6.00 Build 0)  -->
<svg version="1.1" id="Layer_1" xmlns="http://www.w3.org/2000/svg" xmlns:xlink="http://www.w3.org/1999/xlink" x="0px" y="0px"
	 viewBox="0 0 100 100" style="enable-background:new 0 0 100 100;" xml:space="preserve">
<style type="text/css">
	.st0{fill:#DB7758;}
	.st1{fill:#A55038;}
	.st2{fill:#BAB1AE;}
	.st3{fill:#E2DCDE;}
	.st4{fill:#CCC1BD;}
	.st5{fill:#A5A09F;}
	.st6{fill:#3A3144;}
	.st7{fill:#1C1C1C;}
	.st8{fill:#FFFFFF;}
	.st9{fill:#64DD80;}
	.st10{fill:#4FA35D;}
	.st11{fill:#A3805F;}
	.st12{fill:#BD966B;}
	.st13{fill:#997756;}
	.st14{fill:#563A28;}
	.st15{fill:#D3A87D;}
	.st16{fill:#82634A;}
	.st17{fill:#C25DD1;}
	.st18{fill:#924C9E;}
	.st19{fill:#3E2318;}
	.st20{fill:#E2BD81;}
	.st21{fill:#F9E4C0;}
	.st22{fill:#FAD28C;}
	.st23{fill:#D8B47C;}
	.st24{fill:#AF9068;}
	.st25{fill:#C5D859;}
	.st26{fill:#97A045;}
	.st27{fill:#A58362;}
	.st28{fill:#DDB185;}
	.st29{fill:#68564E;}
	.st30{fill:#59D2D8;}
	.st31{fill:#40A0A0;}
	.st32{fill:#F2F2F2;}
	.st33{fill:#757575;}
	.st34{fill:#E5E5E5;}
	.st35{fill:#BFBFBF;}
	.st36{fill:#303030;}
	.st37{fill:#6AD65B;}
	.st38{fill:#58A54A;}
	.st39{fill:#935E2A;}
	.st40{fill:#6D4721;}
	.st41{fill:#9E682A;}
	.st42{fill:#7594C6;}
	.st43{fill:#536C91;}
	.st44{fill:#F1BB71;}
	.st45{fill:#DB9F58;}
	.st46{fill:#B25204;}
	.st47{fill:#FFEECD;}
	.st48{fill:#28231F;}
	.st49{fill:#984815;}
	.st50{fill:#B75E83;}
	.st51{fill:#874865;}
	.st52{fill:#E5B070;}
	.st53{fill:#5B83D3;}
	.st54{fill:#496DA5;}
	.st55{fill:#15161A;}
	.st56{fill:#E8E8E8;}
	.st57{fill:#F8F8F8;}
	.st58{fill:#CECECE;}
	.st59{fill:#7C7C7C;}
	.st60{fill:#914C6B;}
	.st61{fill:#FF991F;}
	.st62{fill:#CC7A1F;}
	.st63{fill:#FFF9EE;}
	.st64{fill:#FCAE59;}
	.st65{fill:#455E83;}
	.st66{fill:#31445B;}
	.st67{fill:#A0A0A0;}
	.st68{fill:#7A7A7A;}
	.st69{fill:#C1C1C1;}
	.st70{fill:#E0E0E0;}
	.st71{fill:#85CCD3;}
	.st72{fill:#6AA2A5;}
	.st73{fill:#B97342;}
	.st74{fill:#F4F6F5;}
	.st75{fill:#FF9CC7;}
	.st76{fill:#D180A6;}
	.st77{fill:#C6C6C6;}
	.st78{fill:#191919;}
	.st79{fill:#895633;}
	.st80{fill:#8DABAD;}
	.st81{fill:#607272;}
	.st82{fill:#797572;}
	.st83{fill:#93918F;}
	.st84{fill:#393333;}
	.st85{fill:#FBFDFA;}
	.st86{fill:#5FAFFF;}
	.st87{fill:#4380AA;}
	.st88{fill:#D87430;}
	.st89{fill:#FCF0DE;}
	.st90{fill:#BC672E;}
	.st91{fill:#F99885;}
	.st92{fill:#3D332C;}
	.st93{fill:#2DFFAC;}
	.st94{fill:#20A56B;}
	.st95{fill:#E8B360;}
	.st96{fill:#FCCF86;}
	.st97{fill:#CE9E51;}
	.st98{fill:#FFC866;}
	.st99{fill:#FCEEE0;}
	.st100{fill:#FCDDB1;}
	.st101{fill:#4BB7A7;}
	.st102{fill:#31776B;}
	.st103{fill:#8E8E8E;}
	.st104{fill:#666666;}
	.st105{fill:#FAFCE8;}
	.st106{fill:#444444;}
	.st107{fill:#232323;}
	.st108{fill:#D3D3D3;}
	.st109{fill:#595959;}
	.st110{fill:#3A3A3A;}
	.st111{fill:#515151;}
	.st112{fill:#353535;}
	.st113{fill:#6D6D6D;}
	.st114{fill:#919191;}
	.st115{fill:#F9F9F9;}
	.st116{fill:#DDDDDD;}
	.st117{fill:#ADADAD;}
	.st118{fill:#CCD875;}
	.st119{fill:#A5AA5F;}
	.st120{fill:#9E9183;}
	.st121{fill:#8C8073;}
	.st122{fill:#B8A996;}
	.st123{fill:#5FB2B2;}
	.st124{fill:#4E8986;}
	.st125{fill:#415168;}
	.st126{fill:#99BDE0;}
	.st127{fill:#C8D4DB;}
	.st128{fill:#5F7693;}
	.st129{fill:#5F8AB4;}
	.st130{fill:#43627C;}
	.st131{fill:#683916;}
	.st132{fill:#AD621E;}
	.st133{fill:#96541D;}
	.st134{fill:#AA6D3C;}
	.st135{fill:#442510;}
	.st136{fill:#E1DAC7;}
	.st137{fill:#B27C50;}
	.st138{fill:#D9B382;}
	.st139{fill:#B2916D;}
	.st140{fill:#7F664E;}
	.st141{fill:#231307;}
	.st142{fill:#474749;}
	.st143{fill:#282828;}
	.st144{fill:#70665D;}
	.st145{fill:#A3978B;}
	.st146{fill:#665E58;}
	.st147{fill:#BCB0A6;}
	.st148{fill:#33302D;}
</style>
<g id="volf">
	<path class="st65" d="M99.7,50.4c0,18.3-9.9,34.3-24.7,42.9c-6.5-5.8-15.5-3.2-24.7-3.2c-9.1,0-18.6-2.6-25.4,3.2
		C10.2,84.8,0.3,68.8,0.3,50.4C0.3,23,22.6,0.8,50,0.8C77.4,0.8,99.7,23,99.7,50.4z"/>
	<path class="st66" d="M73.1,36.6L50.4,66.9l13.5,19.6c6.5-0.9,6.9,2.1,11.1,6.8c14.7-8.6,24.7-24.6,24.7-42.9
		c0-3.5-0.4-6.9-1.1-10.2L74.3,16L73.1,36.6z"/>
	<path class="st67" d="M42.8,31c0,0-9.4-14.2-15.8-15.3c-6.3-1.1,0,30.8,0,30.8L42.8,31z"/>
	<path class="st68" d="M40.4,33.9c0,0-6-9.1-10.1-9.8c-4-0.7,0,19.6,0,19.6L40.4,33.9z"/>
	<path class="st67" d="M57.2,31c0,0,9.4-14.2,15.8-15.3c6.3-1.1,0,30.8,0,30.8L57.2,31z"/>
	<path class="st68" d="M59.6,33.9c0,0,6-9.1,10.1-9.8c4-0.7,0,19.6,0,19.6L59.6,33.9z"/>
	<path class="st67" d="M50,64.3c-13.9,0-25.2,12.5-25.2,28c0,0.3,0,0.7,0,1c3.4,2,7,3.6,10.8,4.7c4.6,1.4,9.4-3.1,14.4-3.1
		c5,0,9.9,4.5,14.5,3.1c3.8-1.1,7.4-2.7,10.7-4.7c0-0.3,0-0.7,0-1C75.2,76.8,63.9,64.3,50,64.3z"/>
	<path class="st69" d="M50,100.1c5,0,9.8-0.7,14.4-2.1C64,83.3,57.7,77.2,50,77.2c-7.7,0-14,6.1-14.4,20.8
		C40.1,99.4,45,100.1,50,100.1z"/>
	<path class="st67" d="M75.5,44.5c0,14.1-11.4,28.3-25.5,28.3S24.5,58.6,24.5,44.5c0-7,11.8-14.4,25.5-14.4
		C63.7,30.1,75.5,38.1,75.5,44.5z"/>
	<path class="st69" d="M50,51c-9.9,0-18.2,4.4-20.1,10.2C34.5,68,41.8,72.9,50,72.9S65.5,68,70.1,61.2C68.2,55.4,60,51,50,51z"/>
	<path class="st70" d="M55.1,63.8c0,2.7-2.3,4.9-5.1,4.9S45,66.5,45,63.8c0-2.7,2.3-4.9,5.1-4.9S55.1,61.1,55.1,63.8z"/>
	<path class="st48" d="M56,61.4c0,1.8-2.7,3.6-6,3.6c-3.3,0-6-1.9-6-3.6s2.7-2.7,6-2.7C53.3,58.7,56,59.7,56,61.4z"/>
	<ellipse class="st70" cx="46.2" cy="59.6" rx="3.8" ry="3.8"/>
	<path class="st70" d="M57.6,59.6c0,2.1-1.7,3.8-3.8,3.8c-2.1,0-3.8-1.7-3.8-3.8c0-2.1,1.7-3.8,3.8-3.8
		C55.9,55.7,57.6,57.5,57.6,59.6z"/>
	<path class="st68" d="M44.5,45.8c0,2.3-1.9,4.2-4.2,4.2c-2.3,0-4.2-1.9-4.2-4.2c0-2.3,1.9-4.2,4.2-4.2
		C42.6,41.6,44.5,43.4,44.5,45.8z"/>
	<path class="st68" d="M63.9,45.8c0,2.3-1.9,4.2-4.2,4.2s-4.2-1.9-4.2-4.2c0-2.3,1.9-4.2,4.2-4.2S63.9,43.4,63.9,45.8z"/>
	<path class="st7" d="M42.6,45.8c0,1.3-1,2.3-2.3,2.3c-1.3,0-2.3-1-2.3-2.3c0-1.3,1-2.3,2.3-2.3C41.6,43.5,42.6,44.5,42.6,45.8z"/>
	<path class="st7" d="M62,45.8c0,1.3-1,2.3-2.3,2.3c-1.3,0-2.3-1-2.3-2.3c0-1.3,1-2.3,2.3-2.3C61,43.5,62,44.5,62,45.8z"/>
	<circle class="st8" cx="41.1" cy="45" r="1.2"/>
	<circle class="st8" cx="60.5" cy="45" r="1.2"/>
	<path class="st48" d="M53.8,56.9c0,1.7-1.7,3.2-3.8,3.2c-2.1,0-3.8-1.4-3.8-3.2c0-1.7,1.7-3.2,3.8-3.2
		C52.1,53.7,53.8,55.2,53.8,56.9z"/>
</g>
</svg>
