<?xml version="1.0" encoding="utf-8"?>
<!-- Generator: Adobe Illustrator 22.0.1, SVG Export Plug-In . SVG Version: 6.00 Build 0)  -->
<svg version="1.1" id="Layer_1" xmlns="http://www.w3.org/2000/svg" xmlns:xlink="http://www.w3.org/1999/xlink" x="0px" y="0px"
	 viewBox="0 0 100 100" style="enable-background:new 0 0 100 100;" xml:space="preserve">
<style type="text/css">
	.st0{fill:#DB7758;}
	.st1{fill:#A55038;}
	.st2{fill:#BAB1AE;}
	.st3{fill:#E2DCDE;}
	.st4{fill:#CCC1BD;}
	.st5{fill:#A5A09F;}
	.st6{fill:#3A3144;}
	.st7{fill:#1C1C1C;}
	.st8{fill:#FFFFFF;}
	.st9{fill:#64DD80;}
	.st10{fill:#4FA35D;}
	.st11{fill:#A3805F;}
	.st12{fill:#BD966B;}
	.st13{fill:#997756;}
	.st14{fill:#563A28;}
	.st15{fill:#D3A87D;}
	.st16{fill:#82634A;}
	.st17{fill:#C25DD1;}
	.st18{fill:#924C9E;}
	.st19{fill:#3E2318;}
	.st20{fill:#E2BD81;}
	.st21{fill:#F9E4C0;}
	.st22{fill:#FAD28C;}
	.st23{fill:#D8B47C;}
	.st24{fill:#AF9068;}
	.st25{fill:#C5D859;}
	.st26{fill:#97A045;}
	.st27{fill:#A58362;}
	.st28{fill:#DDB185;}
	.st29{fill:#68564E;}
	.st30{fill:#59D2D8;}
	.st31{fill:#40A0A0;}
	.st32{fill:#F2F2F2;}
	.st33{fill:#757575;}
	.st34{fill:#E5E5E5;}
	.st35{fill:#BFBFBF;}
	.st36{fill:#303030;}
	.st37{fill:#6AD65B;}
	.st38{fill:#58A54A;}
	.st39{fill:#935E2A;}
	.st40{fill:#6D4721;}
	.st41{fill:#9E682A;}
	.st42{fill:#7594C6;}
	.st43{fill:#536C91;}
	.st44{fill:#F1BB71;}
	.st45{fill:#DB9F58;}
	.st46{fill:#B25204;}
	.st47{fill:#FFEECD;}
	.st48{fill:#28231F;}
	.st49{fill:#984815;}
	.st50{fill:#B75E83;}
	.st51{fill:#874865;}
	.st52{fill:#E5B070;}
	.st53{fill:#5B83D3;}
	.st54{fill:#496DA5;}
	.st55{fill:#15161A;}
	.st56{fill:#E8E8E8;}
	.st57{fill:#F8F8F8;}
	.st58{fill:#CECECE;}
	.st59{fill:#7C7C7C;}
	.st60{fill:#914C6B;}
	.st61{fill:#FF991F;}
	.st62{fill:#CC7A1F;}
	.st63{fill:#FFF9EE;}
	.st64{fill:#FCAE59;}
	.st65{fill:#455E83;}
	.st66{fill:#31445B;}
	.st67{fill:#A0A0A0;}
	.st68{fill:#7A7A7A;}
	.st69{fill:#C1C1C1;}
	.st70{fill:#E0E0E0;}
	.st71{fill:#85CCD3;}
	.st72{fill:#6AA2A5;}
	.st73{fill:#B97342;}
	.st74{fill:#F4F6F5;}
	.st75{fill:#FF9CC7;}
	.st76{fill:#D180A6;}
	.st77{fill:#C6C6C6;}
	.st78{fill:#191919;}
	.st79{fill:#895633;}
	.st80{fill:#8DABAD;}
	.st81{fill:#607272;}
	.st82{fill:#797572;}
	.st83{fill:#93918F;}
	.st84{fill:#393333;}
	.st85{fill:#FBFDFA;}
	.st86{fill:#5FAFFF;}
	.st87{fill:#4380AA;}
	.st88{fill:#D87430;}
	.st89{fill:#FCF0DE;}
	.st90{fill:#BC672E;}
	.st91{fill:#F99885;}
	.st92{fill:#3D332C;}
	.st93{fill:#2DFFAC;}
	.st94{fill:#20A56B;}
	.st95{fill:#E8B360;}
	.st96{fill:#FCCF86;}
	.st97{fill:#CE9E51;}
	.st98{fill:#FFC866;}
	.st99{fill:#FCEEE0;}
	.st100{fill:#FCDDB1;}
	.st101{fill:#4BB7A7;}
	.st102{fill:#31776B;}
	.st103{fill:#8E8E8E;}
	.st104{fill:#666666;}
	.st105{fill:#FAFCE8;}
	.st106{fill:#444444;}
	.st107{fill:#232323;}
	.st108{fill:#D3D3D3;}
	.st109{fill:#595959;}
	.st110{fill:#3A3A3A;}
	.st111{fill:#515151;}
	.st112{fill:#353535;}
	.st113{fill:#6D6D6D;}
	.st114{fill:#919191;}
	.st115{fill:#F9F9F9;}
	.st116{fill:#DDDDDD;}
	.st117{fill:#ADADAD;}
	.st118{fill:#CCD875;}
	.st119{fill:#A5AA5F;}
	.st120{fill:#9E9183;}
	.st121{fill:#8C8073;}
	.st122{fill:#B8A996;}
	.st123{fill:#5FB2B2;}
	.st124{fill:#4E8986;}
	.st125{fill:#415168;}
	.st126{fill:#99BDE0;}
	.st127{fill:#C8D4DB;}
	.st128{fill:#5F7693;}
	.st129{fill:#5F8AB4;}
	.st130{fill:#43627C;}
	.st131{fill:#683916;}
	.st132{fill:#AD621E;}
	.st133{fill:#96541D;}
	.st134{fill:#AA6D3C;}
	.st135{fill:#442510;}
	.st136{fill:#E1DAC7;}
	.st137{fill:#B27C50;}
	.st138{fill:#D9B382;}
	.st139{fill:#B2916D;}
	.st140{fill:#7F664E;}
	.st141{fill:#231307;}
	.st142{fill:#474749;}
	.st143{fill:#282828;}
	.st144{fill:#70665D;}
	.st145{fill:#A3978B;}
	.st146{fill:#665E58;}
	.st147{fill:#BCB0A6;}
	.st148{fill:#33302D;}
</style>
<g id="fox">
	<path class="st50" d="M99.3,49.7c0,18.3-9.8,34.2-24.5,42.8c-8-1.7-15-0.4-24.2-0.4c-9.2,0-20.1-4-26.1,0.3C9.8,83.8,0,67.9,0,49.7
		C0,22.2,22.2,0,49.7,0C77.1,0,99.3,22.2,99.3,49.7z"/>
	<path class="st60" d="M99.3,49.7c0-3.4-0.3-6.7-1-9.9L77.1,18.6L58.7,35.8l-7.5,28.5l15.6,25.5c3.8-1.1,4.8,0.5,8,2.8
		C89.5,83.9,99.3,67.9,99.3,49.7z"/>
	<path class="st61" d="M76,37.2c1.6-7.2,3.7-19.7,0-18.9c-4.8,1.1-11.7,8.2-14.1,10.8c-0.5,0.6-1.3,0.8-2,0.6
		c-3.2-0.9-6.7-1.4-10.3-1.4c-3.6,0-7.1,0.5-10.3,1.3c-0.7,0.2-1.5,0-2-0.6c-2.3-2.5-9.2-9.6-14.1-10.7c-3.7-0.8-1.5,11.7,0,18.9
		c0,0.1,0,0.2,0.1,0.2c0.3,1,0.2,2.2-0.2,3.2c-0.4,1-0.7,2-0.7,3c0,15,12.2,26.1,27.2,26.1s27.2-11,27.2-26.1c0-1-0.2-1.9-0.7-2.9
		c-0.5-1-0.5-2.2-0.2-3.3C76,37.4,76,37.3,76,37.2z"/>
	<path class="st62" d="M65,34.1c-1.1-0.3-1.4-1.6-0.8-2.5c1.8-2.3,5-5.8,8.4-6.5c2.1-0.5,0.9,6.6,0,10.7c-0.2,1.1-1.6,1.6-2.5,0.9
		C68.9,35.9,67.3,34.8,65,34.1z"/>
	<path class="st62" d="M34.4,34.1c1.1-0.3,1.4-1.6,0.8-2.5c-1.8-2.3-5-5.8-8.4-6.5c-2.1-0.5-0.9,6.6,0,10.7c0.2,1.1,1.6,1.6,2.5,0.9
		C30.4,35.9,32,34.8,34.4,34.1z"/>
	<path class="st61" d="M49.7,60.1c-13.9,0-25.2,15.9-25.2,31.4c0,0.3,0,0.7,0,1c3.4,2,7,3.6,10.8,4.7c3-4.7,9.8-2.4,14.8-2.4
		c5,0,9.9-1.7,14,2.4c3.8-1.2,7.4-2.7,10.8-4.7c0-0.3,0-0.7,0-1C74.9,76,63.6,60.1,49.7,60.1z"/>
	<path class="st63" d="M49.7,99.3c5,0,9.8-0.7,14.4-2.1c-0.4-14.7-6.7-22.1-14.4-22.1c-7.7,0-14,7.4-14.4,22.1
		C39.8,98.6,44.6,99.3,49.7,99.3z"/>
	<path class="st63" d="M49.7,52.8c-9.5,0-17.1,4.9-17.1,11c0,0.1,0,0.2,0,0.3c4.7,3.6,10.6,5.6,17.1,5.6c6.5,0,12.4-2.1,17.1-5.6
		c0-0.1,0-0.2,0-0.3C66.8,57.7,59.1,52.8,49.7,52.8z"/>
	<circle class="st64" cx="39.3" cy="45" r="4.5"/>
	<circle class="st64" cx="60" cy="45" r="4.5"/>
	<path class="st7" d="M41.8,45c0,1.4-1.1,2.5-2.5,2.5s-2.5-1.1-2.5-2.5s1.1-2.5,2.5-2.5S41.8,43.6,41.8,45z"/>
	<path class="st7" d="M62.4,45c0,1.4-1.1,2.5-2.5,2.5c-1.4,0-2.5-1.1-2.5-2.5s1.1-2.5,2.5-2.5C61.3,42.5,62.4,43.6,62.4,45z"/>
	<path class="st8" d="M41.5,44.1c0,0.7-0.6,1.3-1.3,1.3c-0.7,0-1.3-0.6-1.3-1.3c0-0.7,0.6-1.3,1.3-1.3
		C40.9,42.9,41.5,43.4,41.5,44.1z"/>
	<path class="st8" d="M62.1,44.1c0,0.7-0.6,1.3-1.3,1.3c-0.7,0-1.3-0.6-1.3-1.3c0-0.7,0.6-1.3,1.3-1.3
		C61.5,42.9,62.1,43.4,62.1,44.1z"/>
	<path class="st36" d="M54.5,63.5c-0.1-0.1-0.2-0.2-0.3-0.1c0,0-2.1,1-4.3,1V62c1.7-0.1,3-1.5,3-3.2c0-1.8-1.4-3.2-3.2-3.2
		c-1.8,0-3.2,1.4-3.2,3.2c0,1.7,1.3,3.1,3,3.2v2.4c-2.1-0.1-4.3-1-4.3-1c-0.1-0.1-0.3,0-0.3,0.1c-0.1,0.1,0,0.3,0.1,0.3
		c0.1,0,2.5,1.1,4.7,1.1c2.4,0,4.6-1,4.7-1.1C54.5,63.7,54.6,63.6,54.5,63.5z"/>
</g>
</svg>
