<?xml version="1.0" encoding="utf-8"?>
<!-- Generator: Adobe Illustrator 22.0.1, SVG Export Plug-In . SVG Version: 6.00 Build 0)  -->
<svg version="1.1" id="Layer_1" xmlns="http://www.w3.org/2000/svg" xmlns:xlink="http://www.w3.org/1999/xlink" x="0px" y="0px"
	 viewBox="0 0 100 100" style="enable-background:new 0 0 100 100;" xml:space="preserve">
<style type="text/css">
	.st0{fill:#DB7758;}
	.st1{fill:#A55038;}
	.st2{fill:#BAB1AE;}
	.st3{fill:#E2DCDE;}
	.st4{fill:#CCC1BD;}
	.st5{fill:#A5A09F;}
	.st6{fill:#3A3144;}
	.st7{fill:#1C1C1C;}
	.st8{fill:#FFFFFF;}
	.st9{fill:#64DD80;}
	.st10{fill:#4FA35D;}
	.st11{fill:#A3805F;}
	.st12{fill:#BD966B;}
	.st13{fill:#997756;}
	.st14{fill:#563A28;}
	.st15{fill:#D3A87D;}
	.st16{fill:#82634A;}
	.st17{fill:#C25DD1;}
	.st18{fill:#924C9E;}
	.st19{fill:#3E2318;}
	.st20{fill:#E2BD81;}
	.st21{fill:#F9E4C0;}
	.st22{fill:#FAD28C;}
	.st23{fill:#D8B47C;}
	.st24{fill:#AF9068;}
	.st25{fill:#C5D859;}
	.st26{fill:#97A045;}
	.st27{fill:#A58362;}
	.st28{fill:#DDB185;}
	.st29{fill:#68564E;}
	.st30{fill:#59D2D8;}
	.st31{fill:#40A0A0;}
	.st32{fill:#F2F2F2;}
	.st33{fill:#757575;}
	.st34{fill:#E5E5E5;}
	.st35{fill:#BFBFBF;}
	.st36{fill:#303030;}
	.st37{fill:#6AD65B;}
	.st38{fill:#58A54A;}
	.st39{fill:#935E2A;}
	.st40{fill:#6D4721;}
	.st41{fill:#9E682A;}
	.st42{fill:#7594C6;}
	.st43{fill:#536C91;}
	.st44{fill:#F1BB71;}
	.st45{fill:#DB9F58;}
	.st46{fill:#B25204;}
	.st47{fill:#FFEECD;}
	.st48{fill:#28231F;}
	.st49{fill:#984815;}
	.st50{fill:#B75E83;}
	.st51{fill:#874865;}
	.st52{fill:#E5B070;}
	.st53{fill:#5B83D3;}
	.st54{fill:#496DA5;}
	.st55{fill:#15161A;}
	.st56{fill:#E8E8E8;}
	.st57{fill:#F8F8F8;}
	.st58{fill:#CECECE;}
	.st59{fill:#7C7C7C;}
	.st60{fill:#914C6B;}
	.st61{fill:#FF991F;}
	.st62{fill:#CC7A1F;}
	.st63{fill:#FFF9EE;}
	.st64{fill:#FCAE59;}
	.st65{fill:#455E83;}
	.st66{fill:#31445B;}
	.st67{fill:#A0A0A0;}
	.st68{fill:#7A7A7A;}
	.st69{fill:#C1C1C1;}
	.st70{fill:#E0E0E0;}
	.st71{fill:#85CCD3;}
	.st72{fill:#6AA2A5;}
	.st73{fill:#B97342;}
	.st74{fill:#F4F6F5;}
	.st75{fill:#FF9CC7;}
	.st76{fill:#D180A6;}
	.st77{fill:#C6C6C6;}
	.st78{fill:#191919;}
	.st79{fill:#895633;}
	.st80{fill:#8DABAD;}
	.st81{fill:#607272;}
	.st82{fill:#797572;}
	.st83{fill:#93918F;}
	.st84{fill:#393333;}
	.st85{fill:#FBFDFA;}
	.st86{fill:#5FAFFF;}
	.st87{fill:#4380AA;}
	.st88{fill:#D87430;}
	.st89{fill:#FCF0DE;}
	.st90{fill:#BC672E;}
	.st91{fill:#F99885;}
	.st92{fill:#3D332C;}
	.st93{fill:#2DFFAC;}
	.st94{fill:#20A56B;}
	.st95{fill:#E8B360;}
	.st96{fill:#FCCF86;}
	.st97{fill:#CE9E51;}
	.st98{fill:#FFC866;}
	.st99{fill:#FCEEE0;}
	.st100{fill:#FCDDB1;}
	.st101{fill:#4BB7A7;}
	.st102{fill:#31776B;}
	.st103{fill:#8E8E8E;}
	.st104{fill:#666666;}
	.st105{fill:#FAFCE8;}
	.st106{fill:#444444;}
	.st107{fill:#232323;}
	.st108{fill:#D3D3D3;}
	.st109{fill:#595959;}
	.st110{fill:#3A3A3A;}
	.st111{fill:#515151;}
	.st112{fill:#353535;}
	.st113{fill:#6D6D6D;}
	.st114{fill:#919191;}
	.st115{fill:#F9F9F9;}
	.st116{fill:#DDDDDD;}
	.st117{fill:#ADADAD;}
	.st118{fill:#CCD875;}
	.st119{fill:#A5AA5F;}
	.st120{fill:#9E9183;}
	.st121{fill:#8C8073;}
	.st122{fill:#B8A996;}
	.st123{fill:#5FB2B2;}
	.st124{fill:#4E8986;}
	.st125{fill:#415168;}
	.st126{fill:#99BDE0;}
	.st127{fill:#C8D4DB;}
	.st128{fill:#5F7693;}
	.st129{fill:#5F8AB4;}
	.st130{fill:#43627C;}
	.st131{fill:#683916;}
	.st132{fill:#AD621E;}
	.st133{fill:#96541D;}
	.st134{fill:#AA6D3C;}
	.st135{fill:#442510;}
	.st136{fill:#E1DAC7;}
	.st137{fill:#B27C50;}
	.st138{fill:#D9B382;}
	.st139{fill:#B2916D;}
	.st140{fill:#7F664E;}
	.st141{fill:#231307;}
	.st142{fill:#474749;}
	.st143{fill:#282828;}
	.st144{fill:#70665D;}
	.st145{fill:#A3978B;}
	.st146{fill:#665E58;}
	.st147{fill:#BCB0A6;}
	.st148{fill:#33302D;}
</style>
<g id="rhino">
	<path class="st0" d="M99.3,49.7c0,16-7.6,30.2-19.3,39.3c-8.8-1.8-18.9,1-30.3,1c-11.3,0-20.9-4.2-30.2-0.9
		C7.6,80-0.1,65.7-0.1,49.7C-0.1,22.2,22.2,0,49.6,0C77,0,99.3,22.2,99.3,49.7z"/>
	<path class="st1" d="M99.3,49.7c0-2.7-0.2-5.3-0.6-7.9L72.9,16l-8,10.5l-14,20.9l14.3,49.5C85,90.3,99.3,71.6,99.3,49.7z"/>
	<path class="st111" d="M74.6,53.3H24.9c-3.2,0-5.9,2.5-6.6,6.1c-0.8,4-1.2,8.1-1.2,12.5c0,6.1,0.8,11.9,2.4,17.3
		c8.4,6.4,18.8,10.2,30.2,10.2c11.5,0,22.1-3.9,30.5-10.4c1.5-5.3,2.3-11,2.3-17c0-4.3-0.4-8.5-1.2-12.5
		C80.5,55.8,77.7,53.3,74.6,53.3z"/>
	<path class="st112" d="M55.2,53.3H44.3c-0.7,0-1.3,2.5-1.5,6.1c-0.2,4-0.3,8.1-0.3,12.5c0,10.1,0.5,19.5,1.4,27.2
		c1.9,0.2,3.8,0.3,5.7,0.3c2,0,4-0.1,5.9-0.4c0.9-7.6,1.4-17,1.4-27.1c0-4.3-0.1-8.5-0.3-12.5C56.5,55.8,55.9,53.3,55.2,53.3z"/>
	<path class="st113" d="M87.6,58.1c0-25.5-17-46.2-37.9-46.2c-20.9,0-37.9,20.7-37.9,46.2c0,4.3,0.5,8.5,1.4,12.5
		c0.8,3.6,4,6.1,7.7,6.1h57.6c3.7,0,6.8-2.5,7.7-6.1C87.1,66.6,87.6,62.4,87.6,58.1z"/>
	<path class="st59" d="M49.6,87.8c-4.2,0-12-5.1-13.5-10.3l-5.9-20.4C26,42.6,33.8,25,49.6,25C65.4,25,73.2,42.6,69,57.1l-5.9,20.4
		C61.7,82.7,53.8,87.8,49.6,87.8z"/>
	<path class="st114" d="M62.9,34.6c-0.4-0.9-4.3-10.4,7.9-18.8c0.7-0.5,1.6-0.4,2.1,0.2c2.2,2.3,7.2,8.3,4.7,13.8
		c-3.1,6.9-11.5,13.5-13.5,7.8C63.4,35.8,63.2,35.5,62.9,34.6z"/>
	<path class="st109" d="M63.6,35.5c-0.2-0.6-2.9-7.1,5.4-13c0.5-0.3,1.1-0.3,1.5,0.1c1.5,1.6,4.9,5.7,3.2,9.5
		c-2.2,4.7-7.9,9.3-9.3,5.4C64,36.4,63.8,36.2,63.6,35.5z"/>
	<path class="st114" d="M36.9,34.6c0.4-0.9,4.3-10.4-7.9-18.8c-0.7-0.5-1.6-0.4-2.1,0.2c-2.2,2.3-7.2,8.3-4.7,13.8
		c3.1,6.9,11.5,13.5,13.5,7.8C36.3,35.8,36.5,35.5,36.9,34.6z"/>
	<path class="st109" d="M36.2,35.5c0.2-0.6,2.9-7.1-5.4-13c-0.5-0.3-1.1-0.3-1.5,0.1c-1.5,1.6-4.9,5.7-3.2,9.5
		c2.2,4.7,7.9,9.3,9.3,5.4C35.8,36.4,36,36.2,36.2,35.5z"/>
	<path class="st114" d="M49.6,88.9c-4.2,0-11.9-4.9-13.4-9.8l-5.8-19.5C26.3,45.7,28.3,29,49.6,29S73,45.7,68.8,59.6L63,79
		C61.5,84,53.8,88.9,49.6,88.9z"/>
	<path class="st107" d="M46,79.1c1.1,0.9,1.3,2.6,1,2.9c-0.3,0.4-1-0.8-2.1-1.7c-1.2-0.9-2.2-1.3-1.9-1.7
		C43.3,78.3,44.9,78.2,46,79.1z"/>
	<path class="st107" d="M53.9,79.1c-1.1,0.9-1.3,2.6-1,2.9c0.3,0.4,1-0.8,2.1-1.7c1.2-0.9,2.2-1.3,1.9-1.7
		C56.5,78.3,55,78.2,53.9,79.1z"/>
	<path class="st115" d="M56.1,57C54.6,44.8,50.7,42,49.7,42c-1,0-4.9,2.8-6.4,15.1c-0.9,7.6,3.4,7.6,6.4,7.6
		C52.7,64.6,57,64.7,56.1,57z"/>
	<path class="st116" d="M54.9,62.5c-1.2-18.5-4.3-22.8-5.1-22.8c-0.8,0-4,4.3-5.1,22.8C43.9,74,47.4,74,49.7,74
		C52.1,74,55.6,74,54.9,62.5z"/>
	<path class="st117" d="M40.9,61.6c0,1.9-1.6,3.5-3.5,3.5c-1.9,0-3.5-1.6-3.5-3.5c0-1.9,1.6-3.5,3.5-3.5
		C39.3,58.1,40.9,59.7,40.9,61.6z"/>
	<path class="st117" d="M65.3,61.6c0,1.9-1.6,3.5-3.5,3.5c-1.9,0-3.5-1.6-3.5-3.5c0-1.9,1.6-3.5,3.5-3.5
		C63.7,58.1,65.3,59.7,65.3,61.6z"/>
	<path class="st7" d="M39.3,61.6c0,1.1-0.9,1.9-1.9,1.9c-1.1,0-1.9-0.9-1.9-1.9c0-1.1,0.9-1.9,1.9-1.9
		C38.5,59.7,39.3,60.5,39.3,61.6z"/>
	<circle class="st7" cx="61.8" cy="61.6" r="1.9"/>
	<path class="st8" d="M39.1,60.9c0,0.5-0.4,1-1,1s-1-0.4-1-1c0-0.5,0.4-1,1-1S39.1,60.4,39.1,60.9z"/>
	<path class="st8" d="M63.5,60.9c0,0.5-0.4,1-1,1c-0.5,0-1-0.4-1-1c0-0.5,0.4-1,1-1C63,59.9,63.5,60.4,63.5,60.9z"/>
</g>
</svg>
