<?xml version="1.0" encoding="utf-8"?>
<!-- Generator: Adobe Illustrator 22.0.1, SVG Export Plug-In . SVG Version: 6.00 Build 0)  -->
<svg version="1.1" id="Layer_1" xmlns="http://www.w3.org/2000/svg" xmlns:xlink="http://www.w3.org/1999/xlink" x="0px" y="0px"
	 viewBox="0 0 100 100" style="enable-background:new 0 0 100 100;" xml:space="preserve">
<style type="text/css">
	.st0{fill:#DB7758;}
	.st1{fill:#A55038;}
	.st2{fill:#BAB1AE;}
	.st3{fill:#E2DCDE;}
	.st4{fill:#CCC1BD;}
	.st5{fill:#A5A09F;}
	.st6{fill:#3A3144;}
	.st7{fill:#1C1C1C;}
	.st8{fill:#FFFFFF;}
	.st9{fill:#64DD80;}
	.st10{fill:#4FA35D;}
	.st11{fill:#A3805F;}
	.st12{fill:#BD966B;}
	.st13{fill:#997756;}
	.st14{fill:#563A28;}
	.st15{fill:#D3A87D;}
	.st16{fill:#82634A;}
	.st17{fill:#C25DD1;}
	.st18{fill:#924C9E;}
	.st19{fill:#3E2318;}
	.st20{fill:#E2BD81;}
	.st21{fill:#F9E4C0;}
	.st22{fill:#FAD28C;}
	.st23{fill:#D8B47C;}
	.st24{fill:#AF9068;}
	.st25{fill:#C5D859;}
	.st26{fill:#97A045;}
	.st27{fill:#A58362;}
	.st28{fill:#DDB185;}
	.st29{fill:#68564E;}
	.st30{fill:#59D2D8;}
	.st31{fill:#40A0A0;}
	.st32{fill:#F2F2F2;}
	.st33{fill:#757575;}
	.st34{fill:#E5E5E5;}
	.st35{fill:#BFBFBF;}
	.st36{fill:#303030;}
	.st37{fill:#6AD65B;}
	.st38{fill:#58A54A;}
	.st39{fill:#935E2A;}
	.st40{fill:#6D4721;}
	.st41{fill:#9E682A;}
	.st42{fill:#7594C6;}
	.st43{fill:#536C91;}
	.st44{fill:#F1BB71;}
	.st45{fill:#DB9F58;}
	.st46{fill:#B25204;}
	.st47{fill:#FFEECD;}
	.st48{fill:#28231F;}
	.st49{fill:#984815;}
	.st50{fill:#B75E83;}
	.st51{fill:#874865;}
	.st52{fill:#E5B070;}
	.st53{fill:#5B83D3;}
	.st54{fill:#496DA5;}
	.st55{fill:#15161A;}
	.st56{fill:#E8E8E8;}
	.st57{fill:#F8F8F8;}
	.st58{fill:#CECECE;}
	.st59{fill:#7C7C7C;}
	.st60{fill:#914C6B;}
	.st61{fill:#FF991F;}
	.st62{fill:#CC7A1F;}
	.st63{fill:#FFF9EE;}
	.st64{fill:#FCAE59;}
	.st65{fill:#455E83;}
	.st66{fill:#31445B;}
	.st67{fill:#A0A0A0;}
	.st68{fill:#7A7A7A;}
	.st69{fill:#C1C1C1;}
	.st70{fill:#E0E0E0;}
	.st71{fill:#85CCD3;}
	.st72{fill:#6AA2A5;}
	.st73{fill:#B97342;}
	.st74{fill:#F4F6F5;}
	.st75{fill:#FF9CC7;}
	.st76{fill:#D180A6;}
	.st77{fill:#C6C6C6;}
	.st78{fill:#191919;}
	.st79{fill:#895633;}
	.st80{fill:#8DABAD;}
	.st81{fill:#607272;}
	.st82{fill:#797572;}
	.st83{fill:#93918F;}
	.st84{fill:#393333;}
	.st85{fill:#FBFDFA;}
	.st86{fill:#5FAFFF;}
	.st87{fill:#4380AA;}
	.st88{fill:#D87430;}
	.st89{fill:#FCF0DE;}
	.st90{fill:#BC672E;}
	.st91{fill:#F99885;}
	.st92{fill:#3D332C;}
	.st93{fill:#2DFFAC;}
	.st94{fill:#20A56B;}
	.st95{fill:#E8B360;}
	.st96{fill:#FCCF86;}
	.st97{fill:#CE9E51;}
	.st98{fill:#FFC866;}
	.st99{fill:#FCEEE0;}
	.st100{fill:#FCDDB1;}
	.st101{fill:#4BB7A7;}
	.st102{fill:#31776B;}
	.st103{fill:#8E8E8E;}
	.st104{fill:#666666;}
	.st105{fill:#FAFCE8;}
	.st106{fill:#444444;}
	.st107{fill:#232323;}
	.st108{fill:#D3D3D3;}
	.st109{fill:#595959;}
	.st110{fill:#3A3A3A;}
	.st111{fill:#515151;}
	.st112{fill:#353535;}
	.st113{fill:#6D6D6D;}
	.st114{fill:#919191;}
	.st115{fill:#F9F9F9;}
	.st116{fill:#DDDDDD;}
	.st117{fill:#ADADAD;}
	.st118{fill:#CCD875;}
	.st119{fill:#A5AA5F;}
	.st120{fill:#9E9183;}
	.st121{fill:#8C8073;}
	.st122{fill:#B8A996;}
	.st123{fill:#5FB2B2;}
	.st124{fill:#4E8986;}
	.st125{fill:#415168;}
	.st126{fill:#99BDE0;}
	.st127{fill:#C8D4DB;}
	.st128{fill:#5F7693;}
	.st129{fill:#5F8AB4;}
	.st130{fill:#43627C;}
	.st131{fill:#683916;}
	.st132{fill:#AD621E;}
	.st133{fill:#96541D;}
	.st134{fill:#AA6D3C;}
	.st135{fill:#442510;}
	.st136{fill:#E1DAC7;}
	.st137{fill:#B27C50;}
	.st138{fill:#D9B382;}
	.st139{fill:#B2916D;}
	.st140{fill:#7F664E;}
	.st141{fill:#231307;}
	.st142{fill:#474749;}
	.st143{fill:#282828;}
	.st144{fill:#70665D;}
	.st145{fill:#A3978B;}
	.st146{fill:#665E58;}
	.st147{fill:#BCB0A6;}
	.st148{fill:#33302D;}
</style>
<g id="ox">
	<path class="st142" d="M99.3,49.7c0,15.5-7.1,29.4-18.2,38.5c-10.9-3.8-18.8,1.1-30.7,1.1c-11.7,0-21.3-5.1-31.8-0.8
		C7.3,79.3,0,65.3,0,49.7C0,22.2,22.2,0,49.7,0C77.1,0,99.3,22.2,99.3,49.7z"/>
	<path class="st143" d="M99.3,49.7c0-3.8-0.4-7.5-1.2-11l-6.9-6.9l-5.8,14.6L64,47.9L46.2,35.8l-10.6,4.9L21.2,25.8l-2.6,0.4
		l-7.1,5.6l5.3,13.3l8.7,3.7l-7.2,13l30,31l17.2-8.3c10.4-0.8,11.6-0.6,15.5,3.6C92.2,79,99.3,65.2,99.3,49.7z"/>
	<path class="st144" d="M18.6,88.4c8.5,6.8,19.3,10.9,31.1,10.9c11.9,0,22.9-4.2,31.4-11.2c-4.2-16-16.6-27.6-31.2-27.6
		C35.2,60.5,22.7,72.2,18.6,88.4z"/>
	<path class="st145" d="M34.7,97c4.7,1.5,9.7,2.3,14.9,2.3c5.4,0,10.5-0.8,15.3-2.4C62.5,82.3,56.7,72,49.9,72
		C43.1,72,37.2,82.3,34.7,97z"/>
	<path class="st121" d="M54,71h-8.4c-3,0-6.1,0.9-7.2-1.8l-7.3-18.6c-3.7-9.5-1.3-20.7,7-20.7h23.3c8.3,0,10.7,11.2,7,20.7
		l-7.3,18.6C60.2,71.8,57,71,54,71z"/>
	<path class="st146" d="M50.4,65h-1c-3.4,0-6.1-2.8-6.1-6.1v-4.3c0-3.4,2.8-6.1,6.1-6.1h1c3.4,0,6.1,2.8,6.1,6.1v4.3
		C56.5,62.2,53.8,65,50.4,65z"/>
	<path class="st147" d="M53.9,75.6h-8c-1.5,0-2.6-1.2-2.6-2.6v-0.5c0-1.5,1.2-2.6,2.6-2.6h8c1.5,0,2.6,1.2,2.6,2.6v0.5
		C56.5,74.4,55.3,75.6,53.9,75.6z"/>
	<circle class="st146" cx="37.2" cy="48.5" r="3"/>
	<circle class="st7" cx="37.2" cy="48.5" r="1.6"/>
	<path class="st8" d="M38.6,47.9c0,0.5-0.4,0.8-0.8,0.8s-0.8-0.4-0.8-0.8c0-0.5,0.4-0.8,0.8-0.8S38.6,47.5,38.6,47.9z"/>
	<circle class="st146" cx="62.5" cy="48.5" r="3"/>
	<circle class="st7" cx="62.5" cy="48.5" r="1.6"/>
	<path class="st8" d="M64,47.9c0,0.5-0.4,0.8-0.8,0.8c-0.5,0-0.8-0.4-0.8-0.8c0-0.5,0.4-0.8,0.8-0.8C63.6,47.1,64,47.5,64,47.9z"/>
	<path class="st145" d="M50.1,71.8h-0.4c-2.3,0-4.5,0.4-6.7,1.2c-3.2,1.1-5.5-1.9-5.5-5.3l0,0c0-4.1,3.4-7.5,7.5-7.5h9.7
		c4.1,0,7.5,3.4,7.5,7.5l0,0c0,3.5-2.4,6.4-5.5,5.3C54.6,72.2,52.3,71.8,50.1,71.8z"/>
	<path class="st148" d="M56.1,62.1c-0.7-0.4,0.4,2-0.6,2.7c-0.9,0.6-2.5,1.2-1.7,2.7c0.8,1.5,3.3-1.1,3.5-2.4
		C57.4,63.7,56.8,62.4,56.1,62.1z"/>
	<path class="st148" d="M43.7,62.1c0.7-0.4-0.4,2,0.6,2.7c0.9,0.6,2.5,1.2,1.7,2.7c-0.8,1.5-3.3-1.1-3.5-2.4
		C42.4,63.7,43,62.4,43.7,62.1z"/>
	<path class="st121" d="M74.2,45.2c0.8,0.3,8.8,3.7,7.3,16.1c-0.1,0.7-0.6,1.2-1.3,1.2c-2.7-0.1-9.2-0.7-11.2-5.5
		c-2.5-6-2.1-15,2.6-12.8C73.1,44.8,73.4,44.8,74.2,45.2z"/>
	<path class="st146" d="M73.1,46.1c0.5,0.2,6.1,2.5,5.1,11.1c-0.1,0.5-0.4,0.8-0.9,0.8c-1.8,0-6.3-0.5-7.7-3.8
		c-1.8-4.2-1.5-10.4,1.8-8.8C72.3,45.8,72.6,45.8,73.1,46.1z"/>
	<path class="st121" d="M25.5,45.2c-0.8,0.3-8.8,3.7-7.3,16.1c0.1,0.7,0.6,1.2,1.3,1.2c2.7-0.1,9.2-0.7,11.2-5.5
		c2.5-6,2.1-15-2.6-12.8C26.7,44.8,26.3,44.8,25.5,45.2z"/>
	<path class="st146" d="M26.6,46.1c-0.5,0.2-6.1,2.5-5.1,11.1c0.1,0.5,0.4,0.8,0.9,0.8c1.8,0,6.3-0.5,7.7-3.8
		c1.8-4.2,1.5-10.4-1.8-8.8C27.4,45.8,27.2,45.8,26.6,46.1z"/>
	<path class="st147" d="M81.6,25.5c-2-0.4-1.7,0.8-0.3,1.7c1.4,0.8,7.3,3.4,5.6,9.6s-7.6,5.9-11.5,2c-4-3.9-8.2-11.4-12.9-14.2
		c-4.7-2.8-9-1.1-10.7,1c-0.6,0.7-0.9,1.6-1.1,2.6c-0.1-1-0.5-1.9-1.1-2.6c-1.7-2.1-6-3.8-10.7-1S30,34.8,26,38.7
		c-4,3.9-9.8,4.3-11.5-2s4.2-8.8,5.6-9.6c1.4-0.8,1.7-2.1-0.3-1.7c-2.4,0.5-15,5.8-10.3,15.4c0,0,4.2,8.5,12.3,7.5
		s13.1-8.4,17.9-9.6c4.8-1.2,7.7-2.5,9.6-5.1c0.8-1.1,1.3-2.4,1.5-3.6c0.2,1.2,0.7,2.5,1.5,3.6c1.9,2.7,4.9,3.9,9.6,5.1
		c4.8,1.2,9.8,8.7,17.9,9.6S92,40.9,92,40.9C96.6,31.4,84.1,26.1,81.6,25.5z"/>
</g>
</svg>
