<?xml version="1.0" encoding="utf-8"?>
<!-- Generator: Adobe Illustrator 22.0.1, SVG Export Plug-In . SVG Version: 6.00 Build 0)  -->
<svg version="1.1" id="Layer_1" xmlns="http://www.w3.org/2000/svg" xmlns:xlink="http://www.w3.org/1999/xlink" x="0px" y="0px"
	 viewBox="0 0 100 100" style="enable-background:new 0 0 100 100;" xml:space="preserve">
<style type="text/css">
	.st0{fill:#DB7758;}
	.st1{fill:#A55038;}
	.st2{fill:#BAB1AE;}
	.st3{fill:#E2DCDE;}
	.st4{fill:#CCC1BD;}
	.st5{fill:#A5A09F;}
	.st6{fill:#3A3144;}
	.st7{fill:#1C1C1C;}
	.st8{fill:#FFFFFF;}
	.st9{fill:#64DD80;}
	.st10{fill:#4FA35D;}
	.st11{fill:#A3805F;}
	.st12{fill:#BD966B;}
	.st13{fill:#997756;}
	.st14{fill:#563A28;}
	.st15{fill:#D3A87D;}
	.st16{fill:#82634A;}
	.st17{fill:#C25DD1;}
	.st18{fill:#924C9E;}
	.st19{fill:#3E2318;}
	.st20{fill:#E2BD81;}
	.st21{fill:#F9E4C0;}
	.st22{fill:#FAD28C;}
	.st23{fill:#D8B47C;}
	.st24{fill:#AF9068;}
	.st25{fill:#C5D859;}
	.st26{fill:#97A045;}
	.st27{fill:#A58362;}
	.st28{fill:#DDB185;}
	.st29{fill:#68564E;}
	.st30{fill:#59D2D8;}
	.st31{fill:#40A0A0;}
	.st32{fill:#F2F2F2;}
	.st33{fill:#757575;}
	.st34{fill:#E5E5E5;}
	.st35{fill:#BFBFBF;}
	.st36{fill:#303030;}
	.st37{fill:#6AD65B;}
	.st38{fill:#58A54A;}
	.st39{fill:#935E2A;}
	.st40{fill:#6D4721;}
	.st41{fill:#9E682A;}
	.st42{fill:#7594C6;}
	.st43{fill:#536C91;}
	.st44{fill:#F1BB71;}
	.st45{fill:#DB9F58;}
	.st46{fill:#B25204;}
	.st47{fill:#FFEECD;}
	.st48{fill:#28231F;}
	.st49{fill:#984815;}
	.st50{fill:#B75E83;}
	.st51{fill:#874865;}
	.st52{fill:#E5B070;}
	.st53{fill:#5B83D3;}
	.st54{fill:#496DA5;}
	.st55{fill:#15161A;}
	.st56{fill:#E8E8E8;}
	.st57{fill:#F8F8F8;}
	.st58{fill:#CECECE;}
	.st59{fill:#7C7C7C;}
	.st60{fill:#914C6B;}
	.st61{fill:#FF991F;}
	.st62{fill:#CC7A1F;}
	.st63{fill:#FFF9EE;}
	.st64{fill:#FCAE59;}
	.st65{fill:#455E83;}
	.st66{fill:#31445B;}
	.st67{fill:#A0A0A0;}
	.st68{fill:#7A7A7A;}
	.st69{fill:#C1C1C1;}
	.st70{fill:#E0E0E0;}
	.st71{fill:#85CCD3;}
	.st72{fill:#6AA2A5;}
	.st73{fill:#B97342;}
	.st74{fill:#F4F6F5;}
	.st75{fill:#FF9CC7;}
	.st76{fill:#D180A6;}
	.st77{fill:#C6C6C6;}
	.st78{fill:#191919;}
	.st79{fill:#895633;}
	.st80{fill:#8DABAD;}
	.st81{fill:#607272;}
	.st82{fill:#797572;}
	.st83{fill:#93918F;}
	.st84{fill:#393333;}
	.st85{fill:#FBFDFA;}
	.st86{fill:#5FAFFF;}
	.st87{fill:#4380AA;}
	.st88{fill:#D87430;}
	.st89{fill:#FCF0DE;}
	.st90{fill:#BC672E;}
	.st91{fill:#F99885;}
	.st92{fill:#3D332C;}
	.st93{fill:#2DFFAC;}
	.st94{fill:#20A56B;}
	.st95{fill:#E8B360;}
	.st96{fill:#FCCF86;}
	.st97{fill:#CE9E51;}
	.st98{fill:#FFC866;}
	.st99{fill:#FCEEE0;}
	.st100{fill:#FCDDB1;}
	.st101{fill:#4BB7A7;}
	.st102{fill:#31776B;}
	.st103{fill:#8E8E8E;}
	.st104{fill:#666666;}
	.st105{fill:#FAFCE8;}
	.st106{fill:#444444;}
	.st107{fill:#232323;}
	.st108{fill:#D3D3D3;}
	.st109{fill:#595959;}
	.st110{fill:#3A3A3A;}
	.st111{fill:#515151;}
	.st112{fill:#353535;}
	.st113{fill:#6D6D6D;}
	.st114{fill:#919191;}
	.st115{fill:#F9F9F9;}
	.st116{fill:#DDDDDD;}
	.st117{fill:#ADADAD;}
	.st118{fill:#CCD875;}
	.st119{fill:#A5AA5F;}
	.st120{fill:#9E9183;}
	.st121{fill:#8C8073;}
	.st122{fill:#B8A996;}
	.st123{fill:#5FB2B2;}
	.st124{fill:#4E8986;}
	.st125{fill:#415168;}
	.st126{fill:#99BDE0;}
	.st127{fill:#C8D4DB;}
	.st128{fill:#5F7693;}
	.st129{fill:#5F8AB4;}
	.st130{fill:#43627C;}
	.st131{fill:#683916;}
	.st132{fill:#AD621E;}
	.st133{fill:#96541D;}
	.st134{fill:#AA6D3C;}
	.st135{fill:#442510;}
	.st136{fill:#E1DAC7;}
	.st137{fill:#B27C50;}
	.st138{fill:#D9B382;}
	.st139{fill:#B2916D;}
	.st140{fill:#7F664E;}
	.st141{fill:#231307;}
	.st142{fill:#474749;}
	.st143{fill:#282828;}
	.st144{fill:#70665D;}
	.st145{fill:#A3978B;}
	.st146{fill:#665E58;}
	.st147{fill:#BCB0A6;}
	.st148{fill:#33302D;}
</style>
<g id="lion">
	<path class="st42" d="M99.3,50.3c0,18.2-9.8,34.2-24.5,42.8c-7.4,4.4-16,2.7-25.2,2.7c-9.2,0-17.8,1.7-25.2-2.7
		C9.8,84.5,0,68.6,0,50.3C0,22.9,22.2,0.7,49.7,0.7C77.1,0.7,99.3,22.9,99.3,50.3z"/>
	<path class="st43" d="M99.3,49.9L79.9,26.7L48.9,93.1c1.8,0.2,2.4,2,4.2,2c9.2,0,14.4,2.5,21.7-1.9c14.7-8.6,24.5-24.6,24.5-42.8
		C99.3,50.2,99.3,50,99.3,49.9z"/>
	<path class="st44" d="M49.7,64.2c-13.9,0-25.2,12.5-25.2,28c0,0.3,0,0.7,0,1c7.4,4.3,16,6.8,25.2,6.8s17.8-2.5,25.2-6.8
		c0-0.3,0-0.7,0-1C74.9,76.7,63.6,64.2,49.7,64.2z"/>
	<path class="st45" d="M49.7,100c5,0,9.8-0.7,14.4-2.1c-0.4-14.7-6.7-26.4-14.4-26.4c-7.7,0-14,11.7-14.4,26.4
		C39.8,99.3,44.6,100,49.7,100z"/>
	
		<ellipse transform="matrix(0.2253 -0.9743 0.9743 0.2253 -10.571 87.3835)" class="st46" cx="49.7" cy="50.3" rx="36.7" ry="36.7"/>
	<path class="st44" d="M72.6,44.4c0,12.6-10.2,25.4-22.9,25.4C37,69.8,26.8,57,26.8,44.4c0-6.2,9.7-15.2,21.6-9.8
		c0.8,0.4,1.7,0.3,2.5,0C62,29.1,72.6,38.6,72.6,44.4z"/>
	<ellipse class="st47" cx="49.7" cy="61.7" rx="6" ry="5.9"/>
	<path class="st48" d="M56.1,59.6c0,1.6-2.9,3.3-6.5,3.3c-3.6,0-6.5-1.7-6.5-3.3c0-1.6,2.9-2.4,6.5-2.4C53.2,57.1,56.1,58,56.1,59.6
		z"/>
	<ellipse class="st47" cx="46.2" cy="57.9" rx="3.4" ry="3.5"/>
	<path class="st47" d="M56.5,57.9c0,1.9-1.5,3.5-3.4,3.5c-1.9,0-3.4-1.5-3.4-3.5s1.5-3.5,3.4-3.5C55,54.4,56.5,56,56.5,57.9z"/>
	<path class="st47" d="M44.8,45.5c0,2.1-1.7,3.8-3.8,3.8c-2.1,0-3.8-1.7-3.8-3.8c0-2.1,1.7-3.8,3.8-3.8
		C43.1,41.7,44.8,43.4,44.8,45.5z"/>
	<path class="st47" d="M62.1,45.5c0,2.1-1.7,3.8-3.8,3.8c-2.1,0-3.8-1.7-3.8-3.8c0-2.1,1.7-3.8,3.8-3.8
		C60.4,41.7,62.1,43.4,62.1,45.5z"/>
	<path class="st7" d="M43,45.5c0,1.1-0.9,2.1-2.1,2.1c-1.1,0-2.1-0.9-2.1-2.1c0-1.1,0.9-2.1,2.1-2.1C42.1,43.4,43,44.4,43,45.5z"/>
	<circle class="st7" cx="58.3" cy="45.5" r="2.1"/>
	<path class="st8" d="M42.8,44.8c0,0.6-0.5,1.1-1.1,1.1c-0.6,0-1.1-0.5-1.1-1.1c0-0.6,0.5-1.1,1.1-1.1
		C42.3,43.7,42.8,44.2,42.8,44.8z"/>
	<path class="st8" d="M60.1,44.8c0,0.6-0.5,1.1-1.1,1.1c-0.6,0-1.1-0.5-1.1-1.1c0-0.6,0.5-1.1,1.1-1.1
		C59.7,43.7,60.1,44.2,60.1,44.8z"/>
	<path class="st48" d="M53.6,53.4c-1.1-0.5-2.6,0.4-4,0.4c-1.3,0-2.9-0.9-4-0.4c-1.1,0.5-1.6,1.1-0.8,1.5c3,1.5,3.3,4,4.8,4.3
		c1.5-0.3,1.7-2.8,4.8-4.3C55.3,54.5,54.7,53.9,53.6,53.4z"/>
	<path class="st49" d="M52.7,53.8c-0.9,0.2-2,0.6-3,0.6c-1,0-2.1-0.4-3-0.6c-0.3-0.1-0.5,0.4-0.2,0.5c3.5,1.8,1.5,4.2,3.2,4.2
		c1.7,0-0.3-2.3,3.2-4.2C53.1,54.2,53,53.7,52.7,53.8z"/>
	<path class="st44" d="M81.5,30.6c-0.3-3.5-3.2-6.3-6.8-6.4c-2-0.1-3.9,0.7-5.2,2c-1.9,1.9-1.8,4.9,0.1,6.8l3.3,3.1
		c2,1.9,5.1,1.7,6.9-0.3C81,34.4,81.7,32.5,81.5,30.6z"/>
	<path class="st40" d="M78.4,31.1c0.1,2.2-1.7,4-3.8,4c-2.2,0.1-4-1.7-4-3.8c-0.1-2.2,1.7-4,3.8-4C76.6,27.2,78.4,28.9,78.4,31.1z"
		/>
	<path class="st44" d="M24.2,24.1c-3.5,0.3-6.3,3.2-6.4,6.8c-0.1,2,0.7,3.9,2,5.2c1.9,1.9,4.9,1.8,6.8-0.1l3.1-3.3
		c1.9-2,1.7-5.1-0.3-6.9C28.1,24.6,26.2,24,24.2,24.1z"/>
	<path class="st40" d="M24.7,27.2c2.2-0.1,4,1.7,4,3.8c0.1,2.2-1.7,4-3.8,4c-2.2,0.1-4-1.7-4-3.8C20.9,29.1,22.6,27.3,24.7,27.2z"/>
</g>
</svg>
