<?xml version="1.0" encoding="utf-8"?>
<!-- Generator: Adobe Illustrator 22.0.1, SVG Export Plug-In . SVG Version: 6.00 Build 0)  -->
<svg version="1.1" id="Layer_1" xmlns="http://www.w3.org/2000/svg" xmlns:xlink="http://www.w3.org/1999/xlink" x="0px" y="0px"
	 viewBox="0 0 100 100" style="enable-background:new 0 0 100 100;" xml:space="preserve">
<style type="text/css">
	.st0{fill:#DB7758;}
	.st1{fill:#A55038;}
	.st2{fill:#BAB1AE;}
	.st3{fill:#E2DCDE;}
	.st4{fill:#CCC1BD;}
	.st5{fill:#A5A09F;}
	.st6{fill:#3A3144;}
	.st7{fill:#1C1C1C;}
	.st8{fill:#FFFFFF;}
	.st9{fill:#64DD80;}
	.st10{fill:#4FA35D;}
	.st11{fill:#A3805F;}
	.st12{fill:#BD966B;}
	.st13{fill:#997756;}
	.st14{fill:#563A28;}
	.st15{fill:#D3A87D;}
	.st16{fill:#82634A;}
	.st17{fill:#C25DD1;}
	.st18{fill:#924C9E;}
	.st19{fill:#3E2318;}
	.st20{fill:#E2BD81;}
	.st21{fill:#F9E4C0;}
	.st22{fill:#FAD28C;}
	.st23{fill:#D8B47C;}
	.st24{fill:#AF9068;}
	.st25{fill:#C5D859;}
	.st26{fill:#97A045;}
	.st27{fill:#A58362;}
	.st28{fill:#DDB185;}
	.st29{fill:#68564E;}
	.st30{fill:#59D2D8;}
	.st31{fill:#40A0A0;}
	.st32{fill:#F2F2F2;}
	.st33{fill:#757575;}
	.st34{fill:#E5E5E5;}
	.st35{fill:#BFBFBF;}
	.st36{fill:#303030;}
	.st37{fill:#6AD65B;}
	.st38{fill:#58A54A;}
	.st39{fill:#935E2A;}
	.st40{fill:#6D4721;}
	.st41{fill:#9E682A;}
	.st42{fill:#7594C6;}
	.st43{fill:#536C91;}
	.st44{fill:#F1BB71;}
	.st45{fill:#DB9F58;}
	.st46{fill:#B25204;}
	.st47{fill:#FFEECD;}
	.st48{fill:#28231F;}
	.st49{fill:#984815;}
	.st50{fill:#B75E83;}
	.st51{fill:#874865;}
	.st52{fill:#E5B070;}
	.st53{fill:#5B83D3;}
	.st54{fill:#496DA5;}
	.st55{fill:#15161A;}
	.st56{fill:#E8E8E8;}
	.st57{fill:#F8F8F8;}
	.st58{fill:#CECECE;}
	.st59{fill:#7C7C7C;}
	.st60{fill:#914C6B;}
	.st61{fill:#FF991F;}
	.st62{fill:#CC7A1F;}
	.st63{fill:#FFF9EE;}
	.st64{fill:#FCAE59;}
	.st65{fill:#455E83;}
	.st66{fill:#31445B;}
	.st67{fill:#A0A0A0;}
	.st68{fill:#7A7A7A;}
	.st69{fill:#C1C1C1;}
	.st70{fill:#E0E0E0;}
	.st71{fill:#85CCD3;}
	.st72{fill:#6AA2A5;}
	.st73{fill:#B97342;}
	.st74{fill:#F4F6F5;}
	.st75{fill:#FF9CC7;}
	.st76{fill:#D180A6;}
	.st77{fill:#C6C6C6;}
	.st78{fill:#191919;}
	.st79{fill:#895633;}
	.st80{fill:#8DABAD;}
	.st81{fill:#607272;}
	.st82{fill:#797572;}
	.st83{fill:#93918F;}
	.st84{fill:#393333;}
	.st85{fill:#FBFDFA;}
	.st86{fill:#5FAFFF;}
	.st87{fill:#4380AA;}
	.st88{fill:#D87430;}
	.st89{fill:#FCF0DE;}
	.st90{fill:#BC672E;}
	.st91{fill:#F99885;}
	.st92{fill:#3D332C;}
	.st93{fill:#2DFFAC;}
	.st94{fill:#20A56B;}
	.st95{fill:#E8B360;}
	.st96{fill:#FCCF86;}
	.st97{fill:#CE9E51;}
	.st98{fill:#FFC866;}
	.st99{fill:#FCEEE0;}
	.st100{fill:#FCDDB1;}
	.st101{fill:#4BB7A7;}
	.st102{fill:#31776B;}
	.st103{fill:#8E8E8E;}
	.st104{fill:#666666;}
	.st105{fill:#FAFCE8;}
	.st106{fill:#444444;}
	.st107{fill:#232323;}
	.st108{fill:#D3D3D3;}
	.st109{fill:#595959;}
	.st110{fill:#3A3A3A;}
	.st111{fill:#515151;}
	.st112{fill:#353535;}
	.st113{fill:#6D6D6D;}
	.st114{fill:#919191;}
	.st115{fill:#F9F9F9;}
	.st116{fill:#DDDDDD;}
	.st117{fill:#ADADAD;}
	.st118{fill:#CCD875;}
	.st119{fill:#A5AA5F;}
	.st120{fill:#9E9183;}
	.st121{fill:#8C8073;}
	.st122{fill:#B8A996;}
	.st123{fill:#5FB2B2;}
	.st124{fill:#4E8986;}
	.st125{fill:#415168;}
	.st126{fill:#99BDE0;}
	.st127{fill:#C8D4DB;}
	.st128{fill:#5F7693;}
	.st129{fill:#5F8AB4;}
	.st130{fill:#43627C;}
	.st131{fill:#683916;}
	.st132{fill:#AD621E;}
	.st133{fill:#96541D;}
	.st134{fill:#AA6D3C;}
	.st135{fill:#442510;}
	.st136{fill:#E1DAC7;}
	.st137{fill:#B27C50;}
	.st138{fill:#D9B382;}
	.st139{fill:#B2916D;}
	.st140{fill:#7F664E;}
	.st141{fill:#231307;}
	.st142{fill:#474749;}
	.st143{fill:#282828;}
	.st144{fill:#70665D;}
	.st145{fill:#A3978B;}
	.st146{fill:#665E58;}
	.st147{fill:#BCB0A6;}
	.st148{fill:#33302D;}
</style>
<g id="tiger">
	<path class="st86" d="M99.9,50.2c0,18.2-9.8,34.2-24.5,42.8c-6.1-4.6-15.6,0.4-24.8,0.4c-9.2,0-19.4-6.8-25.6-0.4
		C10.4,84.4,0.6,68.4,0.6,50.2c0-27.4,22.2-49.7,49.7-49.7C77.7,0.5,99.9,22.8,99.9,50.2z"/>
	<path class="st87" d="M99.9,50.2c0-2.4-0.2-4.7-0.5-7.1L81.6,25.3L45.1,79.9c0,0,23.1,9.3,30.3,13.2C90.1,84.4,99.9,68.5,99.9,50.2
		z"/>
	<path class="st88" d="M50.3,64c-13.9,0-25.2,12.5-25.2,28c0,0.3,0,0.7,0,1c3.4,2,7,3.6,10.8,4.7c3-3.9,9-3.3,14-3.3
		c5,0,10.4,0.7,14.9,3.3c3.8-1.2,7.4-2.7,10.8-4.7c0-0.3,0-0.7,0-1C75.4,76.6,64.2,64,50.3,64z"/>
	<path class="st89" d="M50.3,99.9c5,0,9.8-0.7,14.4-2.1C64.2,83,58,77,50.3,77c-7.7,0-14,6-14.4,20.7C40.4,99.1,45.2,99.9,50.3,99.9
		z"/>
	<path class="st88" d="M79.9,56c0-16.4-13.3-33-29.7-33c-16.4,0-29.7,16.6-29.7,33c0,8.1,13.8,12.3,29.7,12.3
		C66.1,68.4,79.9,63.5,79.9,56z"/>
	<ellipse class="st89" cx="50.3" cy="65.5" rx="8.4" ry="7.5"/>
	<path class="st89" d="M50.2,68.4c15.9,0,29.7-4.9,29.7-12.3c0-2.8-0.4-5.6-1.1-8.3c-5.9-1-12.8,0.2-19.2,3.6
		c-3.7,2-6.8,4.5-9.3,7.2c-2.5-2.8-5.6-5.3-9.3-7.2c-6.5-3.4-13.4-4.6-19.2-3.6c-0.7,2.7-1.1,5.5-1.1,8.3
		C20.6,64.1,34.3,68.4,50.2,68.4z"/>
	<path class="st48" d="M58.6,59.5c0,2-3.8,4.2-8.4,4.2c-4.6,0-8.4-2.2-8.4-4.2c0-2,3.8-3.2,8.4-3.2C54.9,56.4,58.6,57.5,58.6,59.5z"
		/>
	<path class="st89" d="M50.3,57.4c0,2.5-2,4.5-4.5,4.5s-4.5-2-4.5-4.5c0-2.5,2-4.5,4.5-4.5S50.3,54.9,50.3,57.4z"/>
	<path class="st89" d="M59.2,57.4c0,2.5-2,4.5-4.5,4.5c-2.5,0-4.5-2-4.5-4.5c0-2.5,2-4.5,4.5-4.5C57.2,52.9,59.2,54.9,59.2,57.4z"/>
	<path class="st47" d="M43.9,41.3c0,2.7-2.2,4.9-4.9,4.9c-2.7,0-4.9-2.2-4.9-4.9s2.2-4.9,4.9-4.9C41.7,36.4,43.9,38.6,43.9,41.3z"/>
	<circle class="st47" cx="61.5" cy="41.3" r="4.9"/>
	<path class="st7" d="M41.7,41.3c0,1.5-1.2,2.7-2.7,2.7c-1.5,0-2.7-1.2-2.7-2.7s1.2-2.7,2.7-2.7C40.5,38.6,41.7,39.8,41.7,41.3z"/>
	<circle class="st7" cx="61.5" cy="41.3" r="2.7"/>
	<path class="st8" d="M41.3,40.4c0,0.8-0.6,1.4-1.4,1.4c-0.8,0-1.4-0.6-1.4-1.4c0-0.8,0.6-1.4,1.4-1.4C40.7,39,41.3,39.6,41.3,40.4z
		"/>
	<path class="st90" d="M50.7,55.6h-0.9c-2.9,0-5.2-2.3-5.2-5.2v-3.2c0-2.9,2.3-5.2,5.2-5.2h0.9c2.9,0,5.2,2.3,5.2,5.2v3.2
		C55.9,53.2,53.5,55.6,50.7,55.6z"/>
	<circle class="st8" cx="62.5" cy="40.4" r="1.4"/>
	<path class="st48" d="M55.4,51.5c-1.4-0.6-3.4,0.6-5.1,0.6c-1.7,0-3.8-1.2-5.1-0.6c-1.4,0.6-2.1,1.4-1,2c3.9,1.9,4.3,5.2,6.2,5.5
		c1.9-0.4,2.2-3.6,6.2-5.5C57.6,52.9,56.8,52.1,55.4,51.5z"/>
	<path class="st91" d="M54.2,52.1c-1.1,0.2-2.6,0.7-3.9,0.7c-1.3,0-2.8-0.5-3.9-0.7c-0.4-0.1-0.6,0.5-0.2,0.7c4.5,2.4,2,5.4,4.1,5.4
		c2.2,0-0.4-3,4.2-5.4C54.8,52.6,54.6,52,54.2,52.1z"/>
	<path class="st88" d="M83.2,30.7c0.1-4.6-3.3-8.6-7.8-9.2c-2.6-0.4-5.1,0.4-7,1.9c-2.7,2.2-3,6.1-0.8,8.7l3.8,4.5
		c2.3,2.7,6.3,2.9,8.9,0.5C82.1,35.6,83.2,33.3,83.2,30.7z"/>
	<path class="st40" d="M79.2,30.9c-0.2,2.8-2.7,4.9-5.5,4.7c-2.8-0.2-4.9-2.7-4.7-5.5c0.2-2.8,2.7-4.9,5.5-4.7
		C77.3,25.7,79.4,28.1,79.2,30.9z"/>
	<path class="st88" d="M17.3,30.7c-0.1-4.6,3.3-8.6,7.8-9.2c2.6-0.4,5.1,0.4,7,1.9c2.7,2.2,3,6.1,0.8,8.7l-3.8,4.5
		c-2.3,2.7-6.3,2.9-8.9,0.5C18.5,35.6,17.3,33.3,17.3,30.7z"/>
	<path class="st40" d="M21.3,30.9c0.2,2.8,2.7,4.9,5.5,4.7c2.8-0.2,4.9-2.7,4.7-5.5s-2.7-4.9-5.5-4.7C23.2,25.6,21.1,28,21.3,30.9z"
		/>
	<path class="st92" d="M59.6,26.8c-0.1,0.5-6.8-0.2-9.4-0.2c-2.2,0-9.2,0.6-9.3,0.2c-0.2-0.7,6.8-2.5,9.3-2.5
		C52.6,24.3,59.7,26.5,59.6,26.8z"/>
	<path class="st92" d="M57,30.6c-0.1,0.3-4.9,0-6.8,0c-1.8,0-6.7,0.1-6.8-0.1c-0.1-0.4,4.8-1.6,6.8-1.6C52.2,29,57,30.6,57,30.6z"/>
	<path class="st92" d="M53.4,34.3c0,0.2-1.4,0.2-3.1,0.2c-1.7,0-3.1,0-3.1-0.2c0-0.2,1.4-0.6,3.1-0.6C51.9,33.7,53.4,34.1,53.4,34.3
		z"/>
	<path class="st92" d="M38,77.4c0.3-1-2.7-2.7-6.7-3.9c-0.9,1.1-1.6,2.2-2.3,3.5c0.3,0.1,0.6,0.2,0.8,0.2
		C34.1,78.4,37.8,78.5,38,77.4z"/>
	<path class="st92" d="M34.7,84.1c0.3-1.1-2.9-2.9-7.2-4c-0.5,1.2-1,2.5-1.3,3.8c0.1,0,0.2,0,0.3,0.1C30.7,85,34.4,85.1,34.7,84.1z"
		/>
	<path class="st92" d="M31.3,90.7c0.3-0.9-2.3-2.5-5.8-3.6c-0.2,1.3-0.3,2.6-0.4,3.9C28.4,91.6,31,91.5,31.3,90.7z"/>
	<path class="st92" d="M62.2,77.4c0.3,1.1,4,1,8.2-0.2c0.4-0.1,0.7-0.2,1.1-0.3c-0.7-1.2-1.5-2.4-2.4-3.5
		C65,74.7,61.9,76.4,62.2,77.4z"/>
	<path class="st92" d="M65.6,84.1c0.3,1.1,4,1,8.2-0.2c0.2,0,0.4-0.1,0.5-0.1C74,82.4,73.5,81.2,73,80c-0.1,0-0.2,0-0.2,0.1
		C68.5,81.2,65.3,83,65.6,84.1z"/>
	<path class="st92" d="M69,90.7c0.2,0.9,3,1,6.5,0.2c0-1.3-0.2-2.7-0.4-3.9C71.3,88.1,68.7,89.7,69,90.7z"/>
	<path class="st92" d="M25.9,42c0.5,0.2-0.3,6.8-0.4,9.4c-0.1,2.2,0.4,9.2,0,9.3c-0.7,0.2-2.4-6.8-2.3-9.3
		C23.3,48.9,25.6,41.9,25.9,42z"/>
	<path class="st92" d="M29.7,44.6c0.3,0.1-0.1,4.8-0.1,6.8c0,1.8,0,6.7-0.2,6.8c-0.4,0.1-1.5-4.9-1.5-6.8
		C27.9,49.4,29.6,44.6,29.7,44.6z"/>
	<path class="st92" d="M74.6,42c-0.5,0.2,0.3,6.8,0.4,9.4c0.1,2.2-0.4,9.2,0,9.3c0.7,0.2,2.4-6.8,2.3-9.3
		C77.2,48.9,74.9,41.9,74.6,42z"/>
	<path class="st92" d="M70.8,44.6c-0.3,0.1,0.1,4.8,0.1,6.8c0,1.8,0,6.7,0.2,6.8c0.4,0.1,1.5-4.9,1.5-6.8
		C72.6,49.4,70.9,44.6,70.8,44.6z"/>
</g>
</svg>
