<?xml version="1.0" encoding="utf-8"?>
<!-- Generator: Adobe Illustrator 22.0.1, SVG Export Plug-In . SVG Version: 6.00 Build 0)  -->
<svg version="1.1" id="Layer_1" xmlns="http://www.w3.org/2000/svg" xmlns:xlink="http://www.w3.org/1999/xlink" x="0px" y="0px"
	 viewBox="0 0 100 100" style="enable-background:new 0 0 100 100;" xml:space="preserve">
<style type="text/css">
	.st0{fill:#DB7758;}
	.st1{fill:#A55038;}
	.st2{fill:#BAB1AE;}
	.st3{fill:#E2DCDE;}
	.st4{fill:#CCC1BD;}
	.st5{fill:#A5A09F;}
	.st6{fill:#3A3144;}
	.st7{fill:#1C1C1C;}
	.st8{fill:#FFFFFF;}
	.st9{fill:#64DD80;}
	.st10{fill:#4FA35D;}
	.st11{fill:#A3805F;}
	.st12{fill:#BD966B;}
	.st13{fill:#997756;}
	.st14{fill:#563A28;}
	.st15{fill:#D3A87D;}
	.st16{fill:#82634A;}
	.st17{fill:#C25DD1;}
	.st18{fill:#924C9E;}
	.st19{fill:#3E2318;}
	.st20{fill:#E2BD81;}
	.st21{fill:#F9E4C0;}
	.st22{fill:#FAD28C;}
	.st23{fill:#D8B47C;}
	.st24{fill:#AF9068;}
	.st25{fill:#C5D859;}
	.st26{fill:#97A045;}
	.st27{fill:#A58362;}
	.st28{fill:#DDB185;}
	.st29{fill:#68564E;}
	.st30{fill:#59D2D8;}
	.st31{fill:#40A0A0;}
	.st32{fill:#F2F2F2;}
	.st33{fill:#757575;}
	.st34{fill:#E5E5E5;}
	.st35{fill:#BFBFBF;}
	.st36{fill:#303030;}
	.st37{fill:#6AD65B;}
	.st38{fill:#58A54A;}
	.st39{fill:#935E2A;}
	.st40{fill:#6D4721;}
	.st41{fill:#9E682A;}
	.st42{fill:#7594C6;}
	.st43{fill:#536C91;}
	.st44{fill:#F1BB71;}
	.st45{fill:#DB9F58;}
	.st46{fill:#B25204;}
	.st47{fill:#FFEECD;}
	.st48{fill:#28231F;}
	.st49{fill:#984815;}
	.st50{fill:#B75E83;}
	.st51{fill:#874865;}
	.st52{fill:#E5B070;}
	.st53{fill:#5B83D3;}
	.st54{fill:#496DA5;}
	.st55{fill:#15161A;}
	.st56{fill:#E8E8E8;}
	.st57{fill:#F8F8F8;}
	.st58{fill:#CECECE;}
	.st59{fill:#7C7C7C;}
	.st60{fill:#914C6B;}
	.st61{fill:#FF991F;}
	.st62{fill:#CC7A1F;}
	.st63{fill:#FFF9EE;}
	.st64{fill:#FCAE59;}
	.st65{fill:#455E83;}
	.st66{fill:#31445B;}
	.st67{fill:#A0A0A0;}
	.st68{fill:#7A7A7A;}
	.st69{fill:#C1C1C1;}
	.st70{fill:#E0E0E0;}
	.st71{fill:#85CCD3;}
	.st72{fill:#6AA2A5;}
	.st73{fill:#B97342;}
	.st74{fill:#F4F6F5;}
	.st75{fill:#FF9CC7;}
	.st76{fill:#D180A6;}
	.st77{fill:#C6C6C6;}
	.st78{fill:#191919;}
	.st79{fill:#895633;}
	.st80{fill:#8DABAD;}
	.st81{fill:#607272;}
	.st82{fill:#797572;}
	.st83{fill:#93918F;}
	.st84{fill:#393333;}
	.st85{fill:#FBFDFA;}
	.st86{fill:#5FAFFF;}
	.st87{fill:#4380AA;}
	.st88{fill:#D87430;}
	.st89{fill:#FCF0DE;}
	.st90{fill:#BC672E;}
	.st91{fill:#F99885;}
	.st92{fill:#3D332C;}
	.st93{fill:#2DFFAC;}
	.st94{fill:#20A56B;}
	.st95{fill:#E8B360;}
	.st96{fill:#FCCF86;}
	.st97{fill:#CE9E51;}
	.st98{fill:#FFC866;}
	.st99{fill:#FCEEE0;}
	.st100{fill:#FCDDB1;}
	.st101{fill:#4BB7A7;}
	.st102{fill:#31776B;}
	.st103{fill:#8E8E8E;}
	.st104{fill:#666666;}
	.st105{fill:#FAFCE8;}
	.st106{fill:#444444;}
	.st107{fill:#232323;}
	.st108{fill:#D3D3D3;}
	.st109{fill:#595959;}
	.st110{fill:#3A3A3A;}
	.st111{fill:#515151;}
	.st112{fill:#353535;}
	.st113{fill:#6D6D6D;}
	.st114{fill:#919191;}
	.st115{fill:#F9F9F9;}
	.st116{fill:#DDDDDD;}
	.st117{fill:#ADADAD;}
	.st118{fill:#CCD875;}
	.st119{fill:#A5AA5F;}
	.st120{fill:#9E9183;}
	.st121{fill:#8C8073;}
	.st122{fill:#B8A996;}
	.st123{fill:#5FB2B2;}
	.st124{fill:#4E8986;}
	.st125{fill:#415168;}
	.st126{fill:#99BDE0;}
	.st127{fill:#C8D4DB;}
	.st128{fill:#5F7693;}
	.st129{fill:#5F8AB4;}
	.st130{fill:#43627C;}
	.st131{fill:#683916;}
	.st132{fill:#AD621E;}
	.st133{fill:#96541D;}
	.st134{fill:#AA6D3C;}
	.st135{fill:#442510;}
	.st136{fill:#E1DAC7;}
	.st137{fill:#B27C50;}
	.st138{fill:#D9B382;}
	.st139{fill:#B2916D;}
	.st140{fill:#7F664E;}
	.st141{fill:#231307;}
	.st142{fill:#474749;}
	.st143{fill:#282828;}
	.st144{fill:#70665D;}
	.st145{fill:#A3978B;}
	.st146{fill:#665E58;}
	.st147{fill:#BCB0A6;}
	.st148{fill:#33302D;}
</style>
<g id="lioness">
	<path class="st50" d="M100,50.3c0,18.3-9.9,34.2-24.6,42.9c-7.4,4.3-15.9,1.6-25.1,1.6c-9.2,0-17.8,2.7-25.2-1.6
		C10.5,84.5,0.7,68.6,0.7,50.3c0-27.4,22.2-49.7,49.7-49.7C77.8,0.7,100,22.9,100,50.3z"/>
	<path class="st51" d="M79.8,30.5l0.7,5.4l-3.3-3.3L45.2,80l3.7,11.2c2.7,0.4,6.6,1.1,9.4,1.1c9.2,0,11.9-0.1,17.2,0.8
		c0,0,0.1,0,0.1-0.1c0.7-0.4,1.3-0.8,1.9-1.2c0.1-0.1,0.2-0.1,0.3-0.2c0.6-0.4,1.3-0.9,1.9-1.3c0.1-0.1,0.2-0.2,0.3-0.3
		c0.6-0.5,1.3-1,1.9-1.5c0,0,0,0,0,0c0.6-0.5,1.2-1,1.8-1.6c0.1-0.1,0.2-0.2,0.3-0.2c0.6-0.5,1.1-1.1,1.7-1.6
		c0.1-0.1,0.2-0.2,0.2-0.3c1.1-1.2,2.2-2.4,3.2-3.7c0.1-0.1,0.1-0.2,0.2-0.2c0.5-0.6,1-1.3,1.4-1.9c0-0.1,0.1-0.1,0.1-0.2
		c1-1.4,1.8-2.8,2.7-4.2c0-0.1,0.1-0.1,0.1-0.2c0.4-0.7,0.8-1.5,1.2-2.2c0,0,0-0.1,0.1-0.1c0.8-1.5,1.4-3.1,2-4.7
		c0-0.1,0-0.1,0.1-0.2c0.3-0.8,0.6-1.6,0.8-2.5c0,0,0,0,0-0.1c0.5-1.7,0.9-3.4,1.3-5.2c0.5-2.9,0.8-5.8,0.8-8.8L79.8,30.5z"/>
	<path class="st52" d="M50.3,64.2c-13.9,0-25.2,12.5-25.2,28c0,0.3,0,0.7,0,1c7.4,4.3,16,6.8,25.2,6.8s17.8-2.5,25.2-6.8
		c0-0.3,0-0.7,0-1C75.5,76.7,64.3,64.2,50.3,64.2z"/>
	<path class="st45" d="M50.3,100c5,0,9.8-0.7,14.4-2.1C64.3,83.2,58,77.1,50.3,77.1c-7.7,0-14,6-14.4,20.7
		C40.5,99.3,45.3,100,50.3,100z"/>
	<path class="st44" d="M75.7,43.8c0,14-11.3,28.1-25.3,28.1c-14,0-25.3-14.2-25.3-28.1c0-6.9,11.7-14.3,25.3-14.3
		S75.7,37.4,75.7,43.8z"/>
	<ellipse class="st47" cx="50.4" cy="62.9" rx="6.6" ry="6.5"/>
	<path class="st48" d="M57.5,60.6c0,1.7-3.2,3.6-7.2,3.6s-7.2-1.9-7.2-3.6c0-1.7,3.2-2.7,7.2-2.7S57.5,58.8,57.5,60.6z"/>
	<path class="st47" d="M50.3,58.7c0,2.1-1.7,3.8-3.8,3.8c-2.1,0-3.8-1.7-3.8-3.8c0-2.1,1.7-3.8,3.8-3.8
		C48.6,54.9,50.3,56.6,50.3,58.7z"/>
	<path class="st47" d="M57.9,58.7c0,2.1-1.7,3.8-3.8,3.8s-3.8-1.7-3.8-3.8c0-2.1,1.7-3.8,3.8-3.8S57.9,56.6,57.9,58.7z"/>
	<path class="st47" d="M44.9,45c0,2.3-1.9,4.2-4.2,4.2c-2.3,0-4.2-1.9-4.2-4.2c0-2.3,1.9-4.2,4.2-4.2C43,40.8,44.9,42.7,44.9,45z"/>
	<path class="st47" d="M64.1,45c0,2.3-1.9,4.2-4.2,4.2c-2.3,0-4.2-1.9-4.2-4.2c0-2.3,1.9-4.2,4.2-4.2C62.3,40.8,64.1,42.7,64.1,45z"
		/>
	<circle class="st7" cx="40.7" cy="45" r="2.3"/>
	<circle class="st7" cx="60" cy="45" r="2.3"/>
	<path class="st8" d="M42.7,44.2c0,0.6-0.5,1.2-1.2,1.2c-0.6,0-1.2-0.5-1.2-1.2c0-0.6,0.5-1.2,1.2-1.2C42.2,43,42.7,43.6,42.7,44.2z
		"/>
	<path class="st8" d="M61.9,44.2c0,0.6-0.5,1.2-1.2,1.2c-0.6,0-1.2-0.5-1.2-1.2c0-0.6,0.5-1.2,1.2-1.2C61.4,43,61.9,43.6,61.9,44.2z
		"/>
	<path class="st48" d="M54.8,53.7c-1.2-0.5-2.9,0.5-4.4,0.5c-1.5,0-3.2-1-4.4-0.5c-1.2,0.5-1.8,1.2-0.9,1.7c3.4,1.7,3.6,4.4,5.3,4.7
		c1.7-0.3,1.9-3.1,5.3-4.7C56.6,54.9,56,54.3,54.8,53.7z"/>
	<path class="st49" d="M53.7,54.2c-1,0.2-2.2,0.6-3.3,0.6c-1.1,0-2.4-0.4-3.3-0.6c-0.3-0.1-0.5,0.4-0.2,0.6c3.9,2,1.7,4.6,3.5,4.6
		c1.9,0-0.3-2.6,3.5-4.6C54.2,54.6,54,54.1,53.7,54.2z"/>
	<path class="st44" d="M82.2,35.5c-0.3-3.9-3.6-7-7.5-7.1c-2.3-0.1-4.3,0.8-5.8,2.3c-2.1,2.1-2,5.5,0.1,7.5l3.7,3.5
		c2.2,2.1,5.6,1.9,7.6-0.3C81.7,39.8,82.4,37.7,82.2,35.5z"/>
	<path class="st40" d="M78.8,36.1c0.1,2.4-1.8,4.4-4.2,4.4c-2.4,0.1-4.4-1.8-4.4-4.2c-0.1-2.4,1.8-4.4,4.2-4.4
		C76.8,31.8,78.7,33.7,78.8,36.1z"/>
	<path class="st44" d="M25.6,28.4c-3.9,0.3-7,3.6-7.1,7.5c-0.1,2.3,0.8,4.3,2.3,5.8c2.1,2.1,5.5,2,7.5-0.1l3.5-3.7
		c2.1-2.2,1.9-5.6-0.3-7.6C29.8,28.9,27.8,28.2,25.6,28.4z"/>
	<path class="st40" d="M26.1,31.8c2.4-0.1,4.4,1.8,4.4,4.2c0.1,2.4-1.8,4.4-4.2,4.4s-4.4-1.8-4.4-4.2C21.8,33.9,23.7,31.9,26.1,31.8
		z"/>
</g>
</svg>
