<?xml version="1.0" encoding="utf-8"?>
<!-- Generator: Adobe Illustrator 22.0.1, SVG Export Plug-In . SVG Version: 6.00 Build 0)  -->
<svg version="1.1" id="Layer_1" xmlns="http://www.w3.org/2000/svg" xmlns:xlink="http://www.w3.org/1999/xlink" x="0px" y="0px"
	 viewBox="0 0 100 100" style="enable-background:new 0 0 100 100;" xml:space="preserve">
<style type="text/css">
	.st0{fill:#DB7758;}
	.st1{fill:#A55038;}
	.st2{fill:#BAB1AE;}
	.st3{fill:#E2DCDE;}
	.st4{fill:#CCC1BD;}
	.st5{fill:#A5A09F;}
	.st6{fill:#3A3144;}
	.st7{fill:#1C1C1C;}
	.st8{fill:#FFFFFF;}
	.st9{fill:#64DD80;}
	.st10{fill:#4FA35D;}
	.st11{fill:#A3805F;}
	.st12{fill:#BD966B;}
	.st13{fill:#997756;}
	.st14{fill:#563A28;}
	.st15{fill:#D3A87D;}
	.st16{fill:#82634A;}
	.st17{fill:#C25DD1;}
	.st18{fill:#924C9E;}
	.st19{fill:#3E2318;}
	.st20{fill:#E2BD81;}
	.st21{fill:#F9E4C0;}
	.st22{fill:#FAD28C;}
	.st23{fill:#D8B47C;}
	.st24{fill:#AF9068;}
	.st25{fill:#C5D859;}
	.st26{fill:#97A045;}
	.st27{fill:#A58362;}
	.st28{fill:#DDB185;}
	.st29{fill:#68564E;}
	.st30{fill:#59D2D8;}
	.st31{fill:#40A0A0;}
	.st32{fill:#F2F2F2;}
	.st33{fill:#757575;}
	.st34{fill:#E5E5E5;}
	.st35{fill:#BFBFBF;}
	.st36{fill:#303030;}
	.st37{fill:#6AD65B;}
	.st38{fill:#58A54A;}
	.st39{fill:#935E2A;}
	.st40{fill:#6D4721;}
	.st41{fill:#9E682A;}
	.st42{fill:#7594C6;}
	.st43{fill:#536C91;}
	.st44{fill:#F1BB71;}
	.st45{fill:#DB9F58;}
	.st46{fill:#B25204;}
	.st47{fill:#FFEECD;}
	.st48{fill:#28231F;}
	.st49{fill:#984815;}
	.st50{fill:#B75E83;}
	.st51{fill:#874865;}
	.st52{fill:#E5B070;}
	.st53{fill:#5B83D3;}
	.st54{fill:#496DA5;}
	.st55{fill:#15161A;}
	.st56{fill:#E8E8E8;}
	.st57{fill:#F8F8F8;}
	.st58{fill:#CECECE;}
	.st59{fill:#7C7C7C;}
	.st60{fill:#914C6B;}
	.st61{fill:#FF991F;}
	.st62{fill:#CC7A1F;}
	.st63{fill:#FFF9EE;}
	.st64{fill:#FCAE59;}
	.st65{fill:#455E83;}
	.st66{fill:#31445B;}
	.st67{fill:#A0A0A0;}
	.st68{fill:#7A7A7A;}
	.st69{fill:#C1C1C1;}
	.st70{fill:#E0E0E0;}
	.st71{fill:#85CCD3;}
	.st72{fill:#6AA2A5;}
	.st73{fill:#B97342;}
	.st74{fill:#F4F6F5;}
	.st75{fill:#FF9CC7;}
	.st76{fill:#D180A6;}
	.st77{fill:#C6C6C6;}
	.st78{fill:#191919;}
	.st79{fill:#895633;}
	.st80{fill:#8DABAD;}
	.st81{fill:#607272;}
	.st82{fill:#797572;}
	.st83{fill:#93918F;}
	.st84{fill:#393333;}
	.st85{fill:#FBFDFA;}
	.st86{fill:#5FAFFF;}
	.st87{fill:#4380AA;}
	.st88{fill:#D87430;}
	.st89{fill:#FCF0DE;}
	.st90{fill:#BC672E;}
	.st91{fill:#F99885;}
	.st92{fill:#3D332C;}
	.st93{fill:#2DFFAC;}
	.st94{fill:#20A56B;}
	.st95{fill:#E8B360;}
	.st96{fill:#FCCF86;}
	.st97{fill:#CE9E51;}
	.st98{fill:#FFC866;}
	.st99{fill:#FCEEE0;}
	.st100{fill:#FCDDB1;}
	.st101{fill:#4BB7A7;}
	.st102{fill:#31776B;}
	.st103{fill:#8E8E8E;}
	.st104{fill:#666666;}
	.st105{fill:#FAFCE8;}
	.st106{fill:#444444;}
	.st107{fill:#232323;}
	.st108{fill:#D3D3D3;}
	.st109{fill:#595959;}
	.st110{fill:#3A3A3A;}
	.st111{fill:#515151;}
	.st112{fill:#353535;}
	.st113{fill:#6D6D6D;}
	.st114{fill:#919191;}
	.st115{fill:#F9F9F9;}
	.st116{fill:#DDDDDD;}
	.st117{fill:#ADADAD;}
	.st118{fill:#CCD875;}
	.st119{fill:#A5AA5F;}
	.st120{fill:#9E9183;}
	.st121{fill:#8C8073;}
	.st122{fill:#B8A996;}
	.st123{fill:#5FB2B2;}
	.st124{fill:#4E8986;}
	.st125{fill:#415168;}
	.st126{fill:#99BDE0;}
	.st127{fill:#C8D4DB;}
	.st128{fill:#5F7693;}
	.st129{fill:#5F8AB4;}
	.st130{fill:#43627C;}
	.st131{fill:#683916;}
	.st132{fill:#AD621E;}
	.st133{fill:#96541D;}
	.st134{fill:#AA6D3C;}
	.st135{fill:#442510;}
	.st136{fill:#E1DAC7;}
	.st137{fill:#B27C50;}
	.st138{fill:#D9B382;}
	.st139{fill:#B2916D;}
	.st140{fill:#7F664E;}
	.st141{fill:#231307;}
	.st142{fill:#474749;}
	.st143{fill:#282828;}
	.st144{fill:#70665D;}
	.st145{fill:#A3978B;}
	.st146{fill:#665E58;}
	.st147{fill:#BCB0A6;}
	.st148{fill:#33302D;}
</style>
<g id="zebra_1_">
	<path class="st17" d="M100.1,50.7c0,16.8-8.4,31.7-21.1,40.7C69.7,87.1,61.1,92,50.5,92c-10.6,0-20.2-5.1-28.5-0.7
		C9.1,82.3,0.8,67.5,0.8,50.7C0.8,23.2,23,1,50.5,1S100.1,23.2,100.1,50.7z"/>
	<path class="st18" d="M100.1,50.7c0-2-0.1-4-0.4-5.9L66.3,11.3L59.5,26l-1.7,6.5L40,14.2l-3.1,4.1l11.4,23.2l8-2.8l-3.7,14.5
		l13.6,34.9c8.4-0.9,12.8,3.3,12.8,3.2C91.8,82.3,100.1,67.5,100.1,50.7z"/>
	<path class="st108" d="M50.5,100.3c10.6,0,20.5-3.3,28.5-9c-0.3-1.6-0.6-3.1-1-4.5c-0.7-0.5-1.5-1.2-1.2-3.6
		C76,81.2,75,79.4,74,77.8c-0.8,0-1.6-0.7-1.6-2.4c-5.3-7.2-13.2-11.7-21.9-11.7c-8.8,0-16.6,4.5-21.9,11.7
		c-0.2,1.4-1.1,2.5-1.6,2.4c-1,1.7-2,3.5-2.7,5.4c-0.1,2.1-0.7,3-1.2,3.6c-0.4,1.5-0.8,3-1,4.5C30,97,39.8,100.3,50.5,100.3z"/>
	<path class="st34" d="M58,26.7c-0.3-0.8-3.6-8.6,6.6-15.6c0.6-0.4,1.3-0.3,1.8,0.2c1.8,1.9,6,6.9,3.9,11.4
		c-2.6,5.7-9.5,11.2-11.3,6.5C58.5,27.8,58.3,27.5,58,26.7z"/>
	<path class="st109" d="M58.6,27.5c-0.2-0.5-2.5-5.9,4.5-10.8c0.4-0.3,0.9-0.2,1.2,0.1c1.3,1.3,4.1,4.8,2.7,7.9
		c-1.8,3.9-6.6,7.7-7.7,4.5C58.9,28.2,58.8,28,58.6,27.5z"/>
	<path class="st34" d="M42.9,26.7c0.3-0.8,3.6-8.6-6.6-15.6c-0.6-0.4-1.3-0.3-1.8,0.2c-1.8,1.9-6,6.9-3.9,11.4
		c2.6,5.7,9.5,11.2,11.3,6.5C42.4,27.8,42.6,27.5,42.9,26.7z"/>
	<path class="st109" d="M42.3,27.5c0.2-0.5,2.5-5.9-4.5-10.8c-0.4-0.3-0.9-0.2-1.2,0.1c-1.3,1.3-4.1,4.8-2.7,7.9
		c1.8,3.9,6.6,7.7,7.7,4.5C42,28.2,42.1,28,42.3,27.5z"/>
	<path class="st34" d="M65,53.9c0,2.8-0.2,5.4-0.5,8c-0.6,0.1-0.6,1.5-0.3,1.9c-1.9,12.2-7.4,21-13.8,21c-6.4,0-11.8-8.7-13.8-20.9
		c0.4-0.6,0.4-1.9-0.3-2c-0.3-2.5-0.5-5.2-0.5-8c0-1.2,0-2.4,0.1-3.5c0.5-0.3,0.5-0.8,0.1-1.5c0.1-1.3,0.2-2.6,0.3-3.8
		c0.4-0.3,0.9-1.2,0.3-2.4c0.2-1.8,0.5-3.5,0.9-5.1c0.9,0.4,1.4-1.4,1.3-4.5c0.5-1.4,1.1-2.7,1.8-3.8c0.9-0.1,2.2-0.9,3.1-3.7
		c1.9-1.5,4.1-2.4,6.8-2.4c2.7,0,4.9,0.8,6.8,2.4c0.9,2.1,2.1,3.5,3.1,3.7c0.7,1.1,1.3,2.4,1.8,3.8c-0.1,2.7,0.4,3.9,1.3,4.5
		c0.4,1.6,0.7,3.4,0.9,5.2c-0.5,1.4-0.3,2.2,0.3,2.4c0.1,1.2,0.2,2.5,0.3,3.8c-0.8,0.8-0.3,1.2,0.1,1.5C65,51.5,65,52.7,65,53.9z"/>
	<path class="st7" d="M43.6,44.5c0,1.1-0.9,2-2,2c-1.1,0-2-0.9-2-2c0-1.1,0.9-2,2-2C42.8,42.5,43.6,43.4,43.6,44.5z"/>
	<circle class="st8" cx="42.4" cy="43.8" r="1"/>
	<path class="st7" d="M61,44.5c0,1.1-0.9,2-2,2c-1.1,0-2-0.9-2-2c0-1.1,0.9-2,2-2C60.2,42.5,61,43.4,61,44.5z"/>
	<circle class="st8" cx="59.7" cy="43.8" r="1"/>
	<path class="st109" d="M50.5,96.5c10.7,0,19.8-7.8,23.5-18.7c-0.5-0.8-1-1.6-1.6-2.4C68,84.2,59.8,90.2,50.5,90.2
		s-17.5-6-21.9-14.8c-0.6,0.8-1.1,1.6-1.6,2.4C30.6,88.7,39.8,96.5,50.5,96.5z"/>
	<path class="st109" d="M50.5,22c1.8,18.3,1.9,37.4,0,55.8C48.6,59.5,48.6,40.3,50.5,22z"/>
	<path class="st109" d="M47.4,66.2c0.1,0.5,0.8,0.4,0.8-0.1c0.7-7.7-5-15-12.2-17.3c0,0.5,0,1-0.1,1.6
		C41.6,54.5,45.4,59.4,47.4,66.2z"/>
	<path class="st109" d="M45.6,66.6c0.3,0.3,0.8,0,0.7-0.4c-1.5-4.1-6.8-7.1-9.9-4.3c0.1,0.7,0.2,1.3,0.3,2
		C40.2,62.7,42.5,64.2,45.6,66.6z"/>
	<path class="st109" d="M40,40.4c0.3,0.2,0.8-0.1,0.6-0.5c-0.9-2.2-1.3-4.6-1.8-6.9c-0.5,1.4-0.9,2.9-1.3,4.5
		C38.1,38.6,38.9,39.7,40,40.4z"/>
	<path class="st109" d="M41.8,33.9c0.2,0.3,0.8,0.2,0.8-0.2c0-2.7,0.6-5.5,1.1-8.2c-1.2,1-2.2,2.2-3.1,3.7
		C40.6,30.9,40.9,32.5,41.8,33.9z"/>
	<path class="st109" d="M38.6,45c-0.7-0.7-1.4-1.5-2-2.4c-0.1,0.8-0.2,1.6-0.3,2.4c0.6,0.3,1.2,0.5,1.9,0.7
		C38.6,45.8,38.9,45.3,38.6,45z"/>
	<path class="st109" d="M51.9,24.6c1.3,4,2.5,8.1,2.8,12.1v0C54,41.8,51.8,46.8,51,51.9c-0.2,1.3-0.4,2.7-0.5,4.1
		c-0.1-1.4-0.3-2.7-0.5-4.1c-0.8-5.2-3-10.1-3.7-15.3v0c0.3-4.1,1.5-8.1,2.8-12.1c0.2-0.5-0.6-0.8-0.8-0.3c-2,4.2-3.9,8.9-3.7,13.2
		c0.3,6.3,3.6,12.9,4.5,19.3c0.4,2.6,0.7,5.2,0.9,7.8c0,0.3,0.3,0.4,0.5,0.4c0.2,0,0.5-0.1,0.5-0.4c0.2-2.6,0.5-5.2,0.9-7.8
		c0.9-6.4,4.2-13,4.5-19.3c0.2-4.3-1.6-9-3.7-13.2C52.4,23.8,51.7,24.1,51.9,24.6z"/>
	<path class="st109" d="M52.6,66.2c0,0.5,0.7,0.5,0.8,0.1c2-6.8,5.8-11.8,11.5-15.8c0-0.5,0-1-0.1-1.6C57.6,51.2,52,58.5,52.6,66.2z
		"/>
	<path class="st109" d="M54.6,66.2c-0.1,0.4,0.3,0.6,0.7,0.4c3.1-2.3,5.4-3.9,8.9-2.7c0.1-0.6,0.2-1.3,0.3-2
		C61.4,59.1,56.1,62.1,54.6,66.2z"/>
	<path class="st109" d="M60.9,40.4c1.1-0.7,1.9-1.7,2.5-3c-0.4-1.6-0.8-3.1-1.3-4.5c-0.5,2.3-1,4.7-1.8,6.9
		C60.2,40.3,60.6,40.6,60.9,40.4z"/>
	<path class="st109" d="M59.1,33.9c0.9-1.3,1.3-3,1.2-4.7c-0.9-1.5-1.9-2.7-3.1-3.7c0.5,2.7,1,5.4,1.1,8.2
		C58.3,34.1,58.8,34.2,59.1,33.9z"/>
	<path class="st109" d="M62.7,45.7c0.7-0.1,1.3-0.4,1.9-0.7c-0.1-0.8-0.2-1.6-0.3-2.4c-0.6,0.8-1.3,1.6-2,2.4
		C62,45.3,62.3,45.8,62.7,45.7z"/>
	<path class="st110" d="M50.5,65.4c-5.2,0-9.7,3.6-11.1,8.6c2.7,6.6,4,10.8,11.1,10.8c7,0,8.4-4.2,11.1-10.8
		C60.1,69,55.7,65.4,50.5,65.4z"/>
	<path class="st110" d="M50.5,26.4L50.5,26.4c-1.2,0-2.3-0.5-2.5-1.2l-1.5-7.2c-0.4-2.1,1.3-4.1,3.9-4.1l0,0c2.6,0,4.4,2.1,3.9,4.1
		l-1.5,7.2C52.8,25.9,51.7,26.4,50.5,26.4z"/>
	<path class="st109" d="M64.9,98.2c3.6-1.1,7.1-2.6,10.3-4.4c1.1-2.2,2.1-4.5,2.8-7c-0.4-1.2-0.8-2.4-1.2-3.6
		C74.2,89.5,70,94.7,64.9,98.2z"/>
	<path class="st109" d="M24.2,83.1c-0.5,1.2-0.9,2.4-1.2,3.6c0.7,2.5,1.7,4.8,2.8,7c3.2,1.9,6.7,3.3,10.3,4.4
		C30.9,94.7,26.7,89.5,24.2,83.1z"/>
	<path class="st107" d="M46.5,74.2c1.1,0.9,1.3,2.6,1,2.9c-0.3,0.4-1-0.8-2.1-1.7c-1.2-0.9-2.2-1.3-1.9-1.7
		C43.8,73.4,45.4,73.3,46.5,74.2z"/>
	<path class="st107" d="M54.4,74.2c-1.1,0.9-1.3,2.6-1,2.9c0.3,0.4,1-0.8,2.1-1.7c1.2-0.9,2.2-1.3,1.9-1.7
		C57.1,73.4,55.5,73.3,54.4,74.2z"/>
</g>
</svg>
