<?xml version="1.0" encoding="utf-8"?>
<!-- Generator: Adobe Illustrator 22.0.1, SVG Export Plug-In . SVG Version: 6.00 Build 0)  -->
<svg version="1.1" id="Layer_1" xmlns="http://www.w3.org/2000/svg" xmlns:xlink="http://www.w3.org/1999/xlink" x="0px" y="0px"
	 viewBox="0 0 100 100" style="enable-background:new 0 0 100 100;" xml:space="preserve">
<style type="text/css">
	.st0{fill:#DB7758;}
	.st1{fill:#A55038;}
	.st2{fill:#BAB1AE;}
	.st3{fill:#E2DCDE;}
	.st4{fill:#CCC1BD;}
	.st5{fill:#A5A09F;}
	.st6{fill:#3A3144;}
	.st7{fill:#1C1C1C;}
	.st8{fill:#FFFFFF;}
	.st9{fill:#64DD80;}
	.st10{fill:#4FA35D;}
	.st11{fill:#A3805F;}
	.st12{fill:#BD966B;}
	.st13{fill:#997756;}
	.st14{fill:#563A28;}
	.st15{fill:#D3A87D;}
	.st16{fill:#82634A;}
	.st17{fill:#C25DD1;}
	.st18{fill:#924C9E;}
	.st19{fill:#3E2318;}
	.st20{fill:#E2BD81;}
	.st21{fill:#F9E4C0;}
	.st22{fill:#FAD28C;}
	.st23{fill:#D8B47C;}
	.st24{fill:#AF9068;}
	.st25{fill:#C5D859;}
	.st26{fill:#97A045;}
	.st27{fill:#A58362;}
	.st28{fill:#DDB185;}
	.st29{fill:#68564E;}
	.st30{fill:#59D2D8;}
	.st31{fill:#40A0A0;}
	.st32{fill:#F2F2F2;}
	.st33{fill:#757575;}
	.st34{fill:#E5E5E5;}
	.st35{fill:#BFBFBF;}
	.st36{fill:#303030;}
	.st37{fill:#6AD65B;}
	.st38{fill:#58A54A;}
	.st39{fill:#935E2A;}
	.st40{fill:#6D4721;}
	.st41{fill:#9E682A;}
	.st42{fill:#7594C6;}
	.st43{fill:#536C91;}
	.st44{fill:#F1BB71;}
	.st45{fill:#DB9F58;}
	.st46{fill:#B25204;}
	.st47{fill:#FFEECD;}
	.st48{fill:#28231F;}
	.st49{fill:#984815;}
	.st50{fill:#B75E83;}
	.st51{fill:#874865;}
	.st52{fill:#E5B070;}
	.st53{fill:#5B83D3;}
	.st54{fill:#496DA5;}
	.st55{fill:#15161A;}
	.st56{fill:#E8E8E8;}
	.st57{fill:#F8F8F8;}
	.st58{fill:#CECECE;}
	.st59{fill:#7C7C7C;}
	.st60{fill:#914C6B;}
	.st61{fill:#FF991F;}
	.st62{fill:#CC7A1F;}
	.st63{fill:#FFF9EE;}
	.st64{fill:#FCAE59;}
	.st65{fill:#455E83;}
	.st66{fill:#31445B;}
	.st67{fill:#A0A0A0;}
	.st68{fill:#7A7A7A;}
	.st69{fill:#C1C1C1;}
	.st70{fill:#E0E0E0;}
	.st71{fill:#85CCD3;}
	.st72{fill:#6AA2A5;}
	.st73{fill:#B97342;}
	.st74{fill:#F4F6F5;}
	.st75{fill:#FF9CC7;}
	.st76{fill:#D180A6;}
	.st77{fill:#C6C6C6;}
	.st78{fill:#191919;}
	.st79{fill:#895633;}
	.st80{fill:#8DABAD;}
	.st81{fill:#607272;}
	.st82{fill:#797572;}
	.st83{fill:#93918F;}
	.st84{fill:#393333;}
	.st85{fill:#FBFDFA;}
	.st86{fill:#5FAFFF;}
	.st87{fill:#4380AA;}
	.st88{fill:#D87430;}
	.st89{fill:#FCF0DE;}
	.st90{fill:#BC672E;}
	.st91{fill:#F99885;}
	.st92{fill:#3D332C;}
	.st93{fill:#2DFFAC;}
	.st94{fill:#20A56B;}
	.st95{fill:#E8B360;}
	.st96{fill:#FCCF86;}
	.st97{fill:#CE9E51;}
	.st98{fill:#FFC866;}
	.st99{fill:#FCEEE0;}
	.st100{fill:#FCDDB1;}
	.st101{fill:#4BB7A7;}
	.st102{fill:#31776B;}
	.st103{fill:#8E8E8E;}
	.st104{fill:#666666;}
	.st105{fill:#FAFCE8;}
	.st106{fill:#444444;}
	.st107{fill:#232323;}
	.st108{fill:#D3D3D3;}
	.st109{fill:#595959;}
	.st110{fill:#3A3A3A;}
	.st111{fill:#515151;}
	.st112{fill:#353535;}
	.st113{fill:#6D6D6D;}
	.st114{fill:#919191;}
	.st115{fill:#F9F9F9;}
	.st116{fill:#DDDDDD;}
	.st117{fill:#ADADAD;}
	.st118{fill:#CCD875;}
	.st119{fill:#A5AA5F;}
	.st120{fill:#9E9183;}
	.st121{fill:#8C8073;}
	.st122{fill:#B8A996;}
	.st123{fill:#5FB2B2;}
	.st124{fill:#4E8986;}
	.st125{fill:#415168;}
	.st126{fill:#99BDE0;}
	.st127{fill:#C8D4DB;}
	.st128{fill:#5F7693;}
	.st129{fill:#5F8AB4;}
	.st130{fill:#43627C;}
	.st131{fill:#683916;}
	.st132{fill:#AD621E;}
	.st133{fill:#96541D;}
	.st134{fill:#AA6D3C;}
	.st135{fill:#442510;}
	.st136{fill:#E1DAC7;}
	.st137{fill:#B27C50;}
	.st138{fill:#D9B382;}
	.st139{fill:#B2916D;}
	.st140{fill:#7F664E;}
	.st141{fill:#231307;}
	.st142{fill:#474749;}
	.st143{fill:#282828;}
	.st144{fill:#70665D;}
	.st145{fill:#A3978B;}
	.st146{fill:#665E58;}
	.st147{fill:#BCB0A6;}
	.st148{fill:#33302D;}
</style>
<g id="panda">
	<path class="st53" d="M100,50.3c0,16.4-8,31-20.3,40c-8.2,6-18.4,2.9-29.4,2.9c-11,0-21.1,3.2-29.3-2.9C8.7,81.4,0.7,66.8,0.7,50.3
		c0-27.4,22.2-49.7,49.7-49.7C77.8,0.7,100,22.9,100,50.3z"/>
	<path class="st54" d="M100,49.6L77.6,27.2l-6.2,2.4L66.9,34L59,35.6L37.2,42l2.2,10.3l7,38.2c2.2,0.3,5,2.6,7.2,2.6
		c11,0,17.8,3.3,26-2.7C92,81.4,100,66.8,100,50.3C100,50.1,100,49.8,100,49.6z"/>
	<path class="st55" d="M50.4,58.1c-16.4,0-29.7,12.6-29.7,28.1c0,1.5,0.1,2.9,0.4,4.3c5,3.7,10.8,6.5,17.1,8
		c2.2-2.2,7.4-1.8,11.7-1.8c4.2,0,10-0.2,12.8,1.8c6.2-1.6,12-4.4,17.1-8.1c0.2-1.4,0.3-2.8,0.3-4.3C80,70.6,66.7,58.1,50.4,58.1z"
		/>
	<path class="st56" d="M50.4,62.1c-10.2,0-18.5,9.3-18.5,20.8c0,6.2,2.4,11.8,6.3,15.6c3.9,1,8,1.5,12.2,1.5c4.2,0,8.3-0.5,12.3-1.5
		c3.9-3.8,6.3-9.4,6.3-15.6C68.9,71.4,60.6,62.1,50.4,62.1z"/>
	<path class="st57" d="M74.8,54.9c0,13.5-10.9,16.3-24.5,16.3s-24.5-2.8-24.5-16.3s3.7-27.7,24.5-27.7S74.8,41.4,74.8,54.9z"/>
	<path class="st58" d="M51.5,62.1h-2.3c-3.2,0-5.8-2.6-5.8-5.8v-1c0-3.2,2.6-5.8,5.8-5.8h2.3c3.2,0,5.8,2.6,5.8,5.8v1
		C57.2,59.5,54.6,62.1,51.5,62.1z"/>
	<path class="st36" d="M58.3,64.2C58.2,64,58,63.9,57.8,64c0,0-3.5,1.6-7.1,1.7v-3c3.5-0.1,6.2-2.1,6.2-4.6c0-2.5-2.9-4.6-6.6-4.6
		c-3.6,0-6.6,2.1-6.6,4.6c0,2.5,2.8,4.5,6.2,4.6v3c-3.5-0.1-7.1-1.7-7.1-1.7c-0.2-0.1-0.4,0-0.5,0.2c-0.1,0.2,0,0.4,0.2,0.5
		c0.2,0.1,4.1,1.8,7.8,1.8c4,0,7.6-1.7,7.7-1.8C58.3,64.6,58.4,64.3,58.3,64.2z"/>
	<ellipse transform="matrix(0.6519 -0.7583 0.7583 0.6519 1.0939 65.7483)" class="st55" cx="72.2" cy="31.7" rx="7" ry="7"/>
	<ellipse transform="matrix(0.7071 -0.7071 0.7071 0.7071 -14.0515 29.4417)" class="st55" cx="28.5" cy="31.7" rx="7" ry="7"/>
	<path class="st55" d="M64,53.5c-1.9,2.3-8.5-2.2-8.5-4.3c0-2.1,1.7-3.8,3.8-3.8S65.9,51.1,64,53.5z"/>
	<path class="st7" d="M61.4,49.2c0,1.1-0.9,2.1-2.1,2.1c-1.1,0-2.1-0.9-2.1-2.1c0-1.1,0.9-2.1,2.1-2.1
		C60.5,47.1,61.4,48.1,61.4,49.2z"/>
	<path class="st59" d="M59.3,51.7c-1.4,0-2.5-1.1-2.5-2.5c0-1.4,1.1-2.5,2.5-2.5c1.4,0,2.5,1.1,2.5,2.5
		C61.8,50.6,60.7,51.7,59.3,51.7z M59.3,47.5c-0.9,0-1.7,0.8-1.7,1.7s0.8,1.7,1.7,1.7c0.9,0,1.7-0.8,1.7-1.7S60.3,47.5,59.3,47.5z"
		/>
	<path class="st8" d="M61.1,48.5c0,0.6-0.5,1.1-1.1,1.1c-0.6,0-1.1-0.5-1.1-1.1c0-0.6,0.5-1.1,1.1-1.1
		C60.6,47.4,61.1,47.9,61.1,48.5z"/>
	<path class="st55" d="M36.7,53.5c1.9,2.3,8.5-2.2,8.5-4.3c0-2.1-1.7-3.8-3.8-3.8C39.3,45.4,34.7,51.1,36.7,53.5z"/>
	<circle class="st7" cx="41.3" cy="49.2" r="2.1"/>
	<path class="st59" d="M41.3,51.7c-1.4,0-2.5-1.1-2.5-2.5c0-1.4,1.1-2.5,2.5-2.5c1.4,0,2.5,1.1,2.5,2.5
		C43.8,50.6,42.7,51.7,41.3,51.7z M41.3,47.5c-0.9,0-1.7,0.8-1.7,1.7s0.8,1.7,1.7,1.7c0.9,0,1.7-0.8,1.7-1.7S42.3,47.5,41.3,47.5z"
		/>
	<path class="st8" d="M41.1,48.6c0,0.6,0.5,1.1,1.1,1.1c0.6,0,1.1-0.5,1.1-1.1c0-0.6-0.5-1.1-1.1-1.1C41.6,47.5,41.1,48,41.1,48.6z"
		/>
</g>
</svg>
