<?xml version="1.0" encoding="utf-8"?>
<!-- Generator: Adobe Illustrator 22.0.1, SVG Export Plug-In . SVG Version: 6.00 Build 0)  -->
<svg version="1.1" id="Layer_1" xmlns="http://www.w3.org/2000/svg" xmlns:xlink="http://www.w3.org/1999/xlink" x="0px" y="0px"
	 viewBox="0 0 100 100" style="enable-background:new 0 0 100 100;" xml:space="preserve">
<style type="text/css">
	.st0{fill:#DB7758;}
	.st1{fill:#A55038;}
	.st2{fill:#BAB1AE;}
	.st3{fill:#E2DCDE;}
	.st4{fill:#CCC1BD;}
	.st5{fill:#A5A09F;}
	.st6{fill:#3A3144;}
	.st7{fill:#1C1C1C;}
	.st8{fill:#FFFFFF;}
	.st9{fill:#64DD80;}
	.st10{fill:#4FA35D;}
	.st11{fill:#A3805F;}
	.st12{fill:#BD966B;}
	.st13{fill:#997756;}
	.st14{fill:#563A28;}
	.st15{fill:#D3A87D;}
	.st16{fill:#82634A;}
	.st17{fill:#C25DD1;}
	.st18{fill:#924C9E;}
	.st19{fill:#3E2318;}
	.st20{fill:#E2BD81;}
	.st21{fill:#F9E4C0;}
	.st22{fill:#FAD28C;}
	.st23{fill:#D8B47C;}
	.st24{fill:#AF9068;}
	.st25{fill:#C5D859;}
	.st26{fill:#97A045;}
	.st27{fill:#A58362;}
	.st28{fill:#DDB185;}
	.st29{fill:#68564E;}
	.st30{fill:#59D2D8;}
	.st31{fill:#40A0A0;}
	.st32{fill:#F2F2F2;}
	.st33{fill:#757575;}
	.st34{fill:#E5E5E5;}
	.st35{fill:#BFBFBF;}
	.st36{fill:#303030;}
	.st37{fill:#6AD65B;}
	.st38{fill:#58A54A;}
	.st39{fill:#935E2A;}
	.st40{fill:#6D4721;}
	.st41{fill:#9E682A;}
	.st42{fill:#7594C6;}
	.st43{fill:#536C91;}
	.st44{fill:#F1BB71;}
	.st45{fill:#DB9F58;}
	.st46{fill:#B25204;}
	.st47{fill:#FFEECD;}
	.st48{fill:#28231F;}
	.st49{fill:#984815;}
	.st50{fill:#B75E83;}
	.st51{fill:#874865;}
	.st52{fill:#E5B070;}
	.st53{fill:#5B83D3;}
	.st54{fill:#496DA5;}
	.st55{fill:#15161A;}
	.st56{fill:#E8E8E8;}
	.st57{fill:#F8F8F8;}
	.st58{fill:#CECECE;}
	.st59{fill:#7C7C7C;}
	.st60{fill:#914C6B;}
	.st61{fill:#FF991F;}
	.st62{fill:#CC7A1F;}
	.st63{fill:#FFF9EE;}
	.st64{fill:#FCAE59;}
	.st65{fill:#455E83;}
	.st66{fill:#31445B;}
	.st67{fill:#A0A0A0;}
	.st68{fill:#7A7A7A;}
	.st69{fill:#C1C1C1;}
	.st70{fill:#E0E0E0;}
	.st71{fill:#85CCD3;}
	.st72{fill:#6AA2A5;}
	.st73{fill:#B97342;}
	.st74{fill:#F4F6F5;}
	.st75{fill:#FF9CC7;}
	.st76{fill:#D180A6;}
	.st77{fill:#C6C6C6;}
	.st78{fill:#191919;}
	.st79{fill:#895633;}
	.st80{fill:#8DABAD;}
	.st81{fill:#607272;}
	.st82{fill:#797572;}
	.st83{fill:#93918F;}
	.st84{fill:#393333;}
	.st85{fill:#FBFDFA;}
	.st86{fill:#5FAFFF;}
	.st87{fill:#4380AA;}
	.st88{fill:#D87430;}
	.st89{fill:#FCF0DE;}
	.st90{fill:#BC672E;}
	.st91{fill:#F99885;}
	.st92{fill:#3D332C;}
	.st93{fill:#2DFFAC;}
	.st94{fill:#20A56B;}
	.st95{fill:#E8B360;}
	.st96{fill:#FCCF86;}
	.st97{fill:#CE9E51;}
	.st98{fill:#FFC866;}
	.st99{fill:#FCEEE0;}
	.st100{fill:#FCDDB1;}
	.st101{fill:#4BB7A7;}
	.st102{fill:#31776B;}
	.st103{fill:#8E8E8E;}
	.st104{fill:#666666;}
	.st105{fill:#FAFCE8;}
	.st106{fill:#444444;}
	.st107{fill:#232323;}
	.st108{fill:#D3D3D3;}
	.st109{fill:#595959;}
	.st110{fill:#3A3A3A;}
	.st111{fill:#515151;}
	.st112{fill:#353535;}
	.st113{fill:#6D6D6D;}
	.st114{fill:#919191;}
	.st115{fill:#F9F9F9;}
	.st116{fill:#DDDDDD;}
	.st117{fill:#ADADAD;}
	.st118{fill:#CCD875;}
	.st119{fill:#A5AA5F;}
	.st120{fill:#9E9183;}
	.st121{fill:#8C8073;}
	.st122{fill:#B8A996;}
	.st123{fill:#5FB2B2;}
	.st124{fill:#4E8986;}
	.st125{fill:#415168;}
	.st126{fill:#99BDE0;}
	.st127{fill:#C8D4DB;}
	.st128{fill:#5F7693;}
	.st129{fill:#5F8AB4;}
	.st130{fill:#43627C;}
	.st131{fill:#683916;}
	.st132{fill:#AD621E;}
	.st133{fill:#96541D;}
	.st134{fill:#AA6D3C;}
	.st135{fill:#442510;}
	.st136{fill:#E1DAC7;}
	.st137{fill:#B27C50;}
	.st138{fill:#D9B382;}
	.st139{fill:#B2916D;}
	.st140{fill:#7F664E;}
	.st141{fill:#231307;}
	.st142{fill:#474749;}
	.st143{fill:#282828;}
	.st144{fill:#70665D;}
	.st145{fill:#A3978B;}
	.st146{fill:#665E58;}
	.st147{fill:#BCB0A6;}
	.st148{fill:#33302D;}
</style>
<g id="dog">
	<path class="st71" d="M99.3,50.2c0,18.3-9.9,34.3-24.6,42.9C66.7,90,59.1,91,50,91c-9.4,0-18.8-2.4-26.1,1.7
		C9.6,84-0.1,68.2-0.1,50.2c0-27.4,22.2-49.7,49.7-49.7C77,0.5,99.3,22.8,99.3,50.2z"/>
	<path class="st72" d="M99.3,50.2c0-0.8,0-1.6-0.1-2.4L87.5,35.9L68.5,46.4L50,66.4l15.3,24.8c3.9-1.1,5-0.5,8.9,2.2
		C89.2,84.8,99.3,68.7,99.3,50.2z"/>
	<path class="st73" d="M49.2,61.4c-14,0-25.4,13.1-25.4,29.2c0,0.7,0,1.4,0.1,2.1c4.3,2.6,9.1,4.6,14.2,5.8
		c2.9-3.1,7.1-5.2,11.1-5.2c3.7,0,8.7,2.6,11.1,5.4c5.1-1.1,9.8-3,14.2-5.5c0.1-0.9,0.1-1.7,0.1-2.6C74.6,74.5,63.2,61.4,49.2,61.4z
		"/>
	<path class="st74" d="M49.2,76c-6.8,0-12.4,4.6-12.4,14.6c0,2.8,0.4,5.5,1.2,7.9c3.7,0.9,7.5,1.3,11.5,1.3c3.7,0,7.2-0.4,10.7-1.2
		c0.8-2.4,1.3-5.2,1.3-8.1C61.6,80.6,56.1,76,49.2,76z"/>
	<path class="st73" d="M30.4,30.1c-4,3.5-9.2,18.9-9.2,18.9s14.3,23.6,28.4,23.6C63.7,72.7,78,49,78,49s-5.3-15.4-9.2-18.9
		C59.7,22,39.7,22,30.4,30.1z"/>
	<path class="st74" d="M52.5,48.3v-8.5c0-1.6-1.3-2.9-2.9-2.9l0,0c-1.6,0-2.9,1.3-2.9,2.9v8.5c0,1.3-0.9,2.4-2.1,2.7
		c-5.9,1.6-10.1,6-10.1,11.1c0,1.4,0.3,2.7,0.9,3.9c4.4,3.7,9.3,6.6,14.2,6.6c4.9,0,9.9-2.9,14.2-6.6c0.6-1.2,0.9-2.5,0.9-3.9
		c0-5.1-4.2-9.5-10.1-11.1C53.4,50.7,52.5,49.6,52.5,48.3z"/>
	<path class="st75" d="M49.9,73.9h-0.6c-2,0-3.6-1.6-3.6-3.6v-6.6c0-2,1.6-3.6,3.6-3.6h0.6c2,0,3.6,1.6,3.6,3.6v6.6
		C53.5,72.3,51.9,73.9,49.9,73.9z"/>
	<path class="st76" d="M49.6,72.2c-0.2,0-0.4-0.2-0.4-0.4V61c0-0.2,0.2-0.4,0.4-0.4c0.2,0,0.4,0.2,0.4,0.4v10.7
		C50,72,49.8,72.2,49.6,72.2z"/>
	<path class="st77" d="M49.6,63.2c0,2.9-2.3,5.2-5.2,5.2c-2.9,0-5.2-2.3-5.2-5.2c0-2.9,2.3-5.2,5.2-5.2C47.3,58,49.6,60.3,49.6,63.2
		z"/>
	<path class="st77" d="M60.1,63.2c0,2.9-2.3,5.2-5.2,5.2c-2.9,0-5.2-2.3-5.2-5.2c0-2.9,2.3-5.2,5.2-5.2C57.7,58,60.1,60.3,60.1,63.2
		z"/>
	<path class="st78" d="M54.9,58.3c0,1.9-2.4,4.9-5.3,4.9c-2.9,0-5.3-3-5.3-4.9c0-1.9,2.4-2,5.3-2C52.5,56.3,54.9,56.4,54.9,58.3z"/>
	<circle class="st79" cx="39.3" cy="46" r="4.5"/>
	<path class="st79" d="M64.3,46c0,2.5-2,4.5-4.5,4.5c-2.5,0-4.5-2-4.5-4.5s2-4.5,4.5-4.5C62.3,41.5,64.3,43.5,64.3,46z"/>
	<circle class="st7" cx="39.3" cy="46" r="2.4"/>
	<circle class="st7" cx="59.9" cy="46" r="2.4"/>
	<path class="st8" d="M62,45.1c0,0.7-0.6,1.3-1.3,1.3c-0.7,0-1.3-0.6-1.3-1.3c0-0.7,0.6-1.3,1.3-1.3C61.4,43.9,62,44.4,62,45.1z"/>
	<path class="st8" d="M41.5,45.1c0,0.7-0.6,1.3-1.3,1.3c-0.7,0-1.3-0.6-1.3-1.3c0-0.7,0.6-1.3,1.3-1.3
		C40.9,43.9,41.5,44.4,41.5,45.1z"/>
	<path class="st79" d="M85.9,34.5c1.2,0.3,2,1.5,1.9,2.8c-0.6,5-2.5,16.9-6.7,20.2C77,60.8,69.9,42.3,66.8,33.3
		c-0.7-2,1.1-3.9,3.2-3.3L85.9,34.5z"/>
	<path class="st79" d="M13.3,34.5c-1.2,0.3-2,1.5-1.9,2.8c0.6,5,2.5,16.9,6.7,20.2c4.1,3.3,11.1-15.2,14.2-24.2
		c0.7-2-1.1-3.9-3.2-3.3L13.3,34.5z"/>
</g>
</svg>
